<?xml version="1.0" encoding="utf-8" standalone="no"?>
<!DOCTYPE svg PUBLIC "-//W3C//DTD SVG 1.1//EN"
  "http://www.w3.org/Graphics/SVG/1.1/DTD/svg11.dtd">
<svg xmlns:xlink="http://www.w3.org/1999/xlink" width="288pt" height="144pt" viewBox="0 0 288 144" xmlns="http://www.w3.org/2000/svg" version="1.1">
 <metadata>
  <rdf:RDF xmlns:dc="http://purl.org/dc/elements/1.1/" xmlns:cc="http://creativecommons.org/ns#" xmlns:rdf="http://www.w3.org/1999/02/22-rdf-syntax-ns#">
   <cc:Work>
    <dc:type rdf:resource="http://purl.org/dc/dcmitype/StillImage"/>
    <dc:date>2023-07-12T14:16:43.126665</dc:date>
    <dc:format>image/svg+xml</dc:format>
    <dc:creator>
     <cc:Agent>
      <dc:title>Matplotlib v3.6.2, https://matplotlib.org/</dc:title>
     </cc:Agent>
    </dc:creator>
   </cc:Work>
  </rdf:RDF>
 </metadata>
 <defs>
  <style type="text/css">*{stroke-linejoin: round; stroke-linecap: butt}</style>
 </defs>
 <g id="figure_1">
  <g id="patch_1">
   <path d="M 0 144 
L 288 144 
L 288 0 
L 0 0 
z
" style="fill: #ffffff"/>
  </g>
  <g id="axes_1">
   <g id="patch_2">
    <path d="M 54.2 102.04 
L 277.2 102.04 
L 277.2 10.8 
L 54.2 10.8 
z
" style="fill: #ffffff"/>
   </g>
   <g id="matplotlib.axis_1">
    <g id="xtick_1">
     <g id="line2d_1">
      <defs>
       <path id="md8351be2fc" d="M 0 0 
L 0 3.5 
" style="stroke: #000000; stroke-width: 0.8"/>
      </defs>
      <g>
       <use xlink:href="#md8351be2fc" x="54.2" y="102.04" style="stroke: #000000; stroke-width: 0.8"/>
      </g>
     </g>
     <g id="text_1">
      <!-- 0 -->
      <g transform="translate(51.01875 116.638437) scale(0.1 -0.1)">
       <defs>
        <path id="DejaVuSans-30" d="M 2034 4250 
Q 1547 4250 1301 3770 
Q 1056 3291 1056 2328 
Q 1056 1369 1301 889 
Q 1547 409 2034 409 
Q 2525 409 2770 889 
Q 3016 1369 3016 2328 
Q 3016 3291 2770 3770 
Q 2525 4250 2034 4250 
z
M 2034 4750 
Q 2819 4750 3233 4129 
Q 3647 3509 3647 2328 
Q 3647 1150 3233 529 
Q 2819 -91 2034 -91 
Q 1250 -91 836 529 
Q 422 1150 422 2328 
Q 422 3509 836 4129 
Q 1250 4750 2034 4750 
z
" transform="scale(0.015625)"/>
       </defs>
       <use xlink:href="#DejaVuSans-30"/>
      </g>
     </g>
    </g>
    <g id="xtick_2">
     <g id="line2d_2">
      <g>
       <use xlink:href="#md8351be2fc" x="87.577459" y="102.04" style="stroke: #000000; stroke-width: 0.8"/>
      </g>
     </g>
     <g id="text_2">
      <!-- 250 -->
      <g transform="translate(78.033709 116.638437) scale(0.1 -0.1)">
       <defs>
        <path id="DejaVuSans-32" d="M 1228 531 
L 3431 531 
L 3431 0 
L 469 0 
L 469 531 
Q 828 903 1448 1529 
Q 2069 2156 2228 2338 
Q 2531 2678 2651 2914 
Q 2772 3150 2772 3378 
Q 2772 3750 2511 3984 
Q 2250 4219 1831 4219 
Q 1534 4219 1204 4116 
Q 875 4013 500 3803 
L 500 4441 
Q 881 4594 1212 4672 
Q 1544 4750 1819 4750 
Q 2544 4750 2975 4387 
Q 3406 4025 3406 3419 
Q 3406 3131 3298 2873 
Q 3191 2616 2906 2266 
Q 2828 2175 2409 1742 
Q 1991 1309 1228 531 
z
" transform="scale(0.015625)"/>
        <path id="DejaVuSans-35" d="M 691 4666 
L 3169 4666 
L 3169 4134 
L 1269 4134 
L 1269 2991 
Q 1406 3038 1543 3061 
Q 1681 3084 1819 3084 
Q 2600 3084 3056 2656 
Q 3513 2228 3513 1497 
Q 3513 744 3044 326 
Q 2575 -91 1722 -91 
Q 1428 -91 1123 -41 
Q 819 9 494 109 
L 494 744 
Q 775 591 1075 516 
Q 1375 441 1709 441 
Q 2250 441 2565 725 
Q 2881 1009 2881 1497 
Q 2881 1984 2565 2268 
Q 2250 2553 1709 2553 
Q 1456 2553 1204 2497 
Q 953 2441 691 2322 
L 691 4666 
z
" transform="scale(0.015625)"/>
       </defs>
       <use xlink:href="#DejaVuSans-32"/>
       <use xlink:href="#DejaVuSans-35" x="63.623047"/>
       <use xlink:href="#DejaVuSans-30" x="127.246094"/>
      </g>
     </g>
    </g>
    <g id="xtick_3">
     <g id="line2d_3">
      <g>
       <use xlink:href="#md8351be2fc" x="120.954919" y="102.04" style="stroke: #000000; stroke-width: 0.8"/>
      </g>
     </g>
     <g id="text_3">
      <!-- 500 -->
      <g transform="translate(111.411169 116.638437) scale(0.1 -0.1)">
       <use xlink:href="#DejaVuSans-35"/>
       <use xlink:href="#DejaVuSans-30" x="63.623047"/>
       <use xlink:href="#DejaVuSans-30" x="127.246094"/>
      </g>
     </g>
    </g>
    <g id="xtick_4">
     <g id="line2d_4">
      <g>
       <use xlink:href="#md8351be2fc" x="154.332378" y="102.04" style="stroke: #000000; stroke-width: 0.8"/>
      </g>
     </g>
     <g id="text_4">
      <!-- 750 -->
      <g transform="translate(144.788628 116.638437) scale(0.1 -0.1)">
       <defs>
        <path id="DejaVuSans-37" d="M 525 4666 
L 3525 4666 
L 3525 4397 
L 1831 0 
L 1172 0 
L 2766 4134 
L 525 4134 
L 525 4666 
z
" transform="scale(0.015625)"/>
       </defs>
       <use xlink:href="#DejaVuSans-37"/>
       <use xlink:href="#DejaVuSans-35" x="63.623047"/>
       <use xlink:href="#DejaVuSans-30" x="127.246094"/>
      </g>
     </g>
    </g>
    <g id="xtick_5">
     <g id="line2d_5">
      <g>
       <use xlink:href="#md8351be2fc" x="187.709838" y="102.04" style="stroke: #000000; stroke-width: 0.8"/>
      </g>
     </g>
     <g id="text_5">
      <!-- 1000 -->
      <g transform="translate(174.984838 116.638437) scale(0.1 -0.1)">
       <defs>
        <path id="DejaVuSans-31" d="M 794 531 
L 1825 531 
L 1825 4091 
L 703 3866 
L 703 4441 
L 1819 4666 
L 2450 4666 
L 2450 531 
L 3481 531 
L 3481 0 
L 794 0 
L 794 531 
z
" transform="scale(0.015625)"/>
       </defs>
       <use xlink:href="#DejaVuSans-31"/>
       <use xlink:href="#DejaVuSans-30" x="63.623047"/>
       <use xlink:href="#DejaVuSans-30" x="127.246094"/>
       <use xlink:href="#DejaVuSans-30" x="190.869141"/>
      </g>
     </g>
    </g>
    <g id="xtick_6">
     <g id="line2d_6">
      <g>
       <use xlink:href="#md8351be2fc" x="221.087297" y="102.04" style="stroke: #000000; stroke-width: 0.8"/>
      </g>
     </g>
     <g id="text_6">
      <!-- 1250 -->
      <g transform="translate(208.362297 116.638437) scale(0.1 -0.1)">
       <use xlink:href="#DejaVuSans-31"/>
       <use xlink:href="#DejaVuSans-32" x="63.623047"/>
       <use xlink:href="#DejaVuSans-35" x="127.246094"/>
       <use xlink:href="#DejaVuSans-30" x="190.869141"/>
      </g>
     </g>
    </g>
    <g id="xtick_7">
     <g id="line2d_7">
      <g>
       <use xlink:href="#md8351be2fc" x="254.464757" y="102.04" style="stroke: #000000; stroke-width: 0.8"/>
      </g>
     </g>
     <g id="text_7">
      <!-- 1500 -->
      <g transform="translate(241.739757 116.638437) scale(0.1 -0.1)">
       <use xlink:href="#DejaVuSans-31"/>
       <use xlink:href="#DejaVuSans-35" x="63.623047"/>
       <use xlink:href="#DejaVuSans-30" x="127.246094"/>
       <use xlink:href="#DejaVuSans-30" x="190.869141"/>
      </g>
     </g>
    </g>
    <g id="text_8">
     <!-- m/z -->
     <g transform="translate(156.521094 130.316563) scale(0.1 -0.1)">
      <defs>
       <path id="DejaVuSans-6d" d="M 3328 2828 
Q 3544 3216 3844 3400 
Q 4144 3584 4550 3584 
Q 5097 3584 5394 3201 
Q 5691 2819 5691 2113 
L 5691 0 
L 5113 0 
L 5113 2094 
Q 5113 2597 4934 2840 
Q 4756 3084 4391 3084 
Q 3944 3084 3684 2787 
Q 3425 2491 3425 1978 
L 3425 0 
L 2847 0 
L 2847 2094 
Q 2847 2600 2669 2842 
Q 2491 3084 2119 3084 
Q 1678 3084 1418 2786 
Q 1159 2488 1159 1978 
L 1159 0 
L 581 0 
L 581 3500 
L 1159 3500 
L 1159 2956 
Q 1356 3278 1631 3431 
Q 1906 3584 2284 3584 
Q 2666 3584 2933 3390 
Q 3200 3197 3328 2828 
z
" transform="scale(0.015625)"/>
       <path id="DejaVuSans-2f" d="M 1625 4666 
L 2156 4666 
L 531 -594 
L 0 -594 
L 1625 4666 
z
" transform="scale(0.015625)"/>
       <path id="DejaVuSans-7a" d="M 353 3500 
L 3084 3500 
L 3084 2975 
L 922 459 
L 3084 459 
L 3084 0 
L 275 0 
L 275 525 
L 2438 3041 
L 353 3041 
L 353 3500 
z
" transform="scale(0.015625)"/>
      </defs>
      <use xlink:href="#DejaVuSans-6d"/>
      <use xlink:href="#DejaVuSans-2f" x="97.412109"/>
      <use xlink:href="#DejaVuSans-7a" x="131.103516"/>
     </g>
    </g>
   </g>
   <g id="matplotlib.axis_2">
    <g id="ytick_1">
     <g id="line2d_8">
      <defs>
       <path id="m247f340634" d="M 0 0 
L -3.5 0 
" style="stroke: #000000; stroke-width: 0.8"/>
      </defs>
      <g>
       <use xlink:href="#m247f340634" x="54.2" y="102.04" style="stroke: #000000; stroke-width: 0.8"/>
      </g>
     </g>
     <g id="text_9">
      <!-- 0.0 -->
      <g transform="translate(31.296875 105.839219) scale(0.1 -0.1)">
       <defs>
        <path id="DejaVuSans-2e" d="M 684 794 
L 1344 794 
L 1344 0 
L 684 0 
L 684 794 
z
" transform="scale(0.015625)"/>
       </defs>
       <use xlink:href="#DejaVuSans-30"/>
       <use xlink:href="#DejaVuSans-2e" x="63.623047"/>
       <use xlink:href="#DejaVuSans-30" x="95.410156"/>
      </g>
     </g>
    </g>
    <g id="ytick_2">
     <g id="line2d_9">
      <g>
       <use xlink:href="#m247f340634" x="54.2" y="60.567273" style="stroke: #000000; stroke-width: 0.8"/>
      </g>
     </g>
     <g id="text_10">
      <!-- 0.5 -->
      <g transform="translate(31.296875 64.366491) scale(0.1 -0.1)">
       <use xlink:href="#DejaVuSans-30"/>
       <use xlink:href="#DejaVuSans-2e" x="63.623047"/>
       <use xlink:href="#DejaVuSans-35" x="95.410156"/>
      </g>
     </g>
    </g>
    <g id="ytick_3">
     <g id="line2d_10">
      <g>
       <use xlink:href="#m247f340634" x="54.2" y="19.094545" style="stroke: #000000; stroke-width: 0.8"/>
      </g>
     </g>
     <g id="text_11">
      <!-- 1.0 -->
      <g transform="translate(31.296875 22.893764) scale(0.1 -0.1)">
       <use xlink:href="#DejaVuSans-31"/>
       <use xlink:href="#DejaVuSans-2e" x="63.623047"/>
       <use xlink:href="#DejaVuSans-30" x="95.410156"/>
      </g>
     </g>
    </g>
    <g id="text_12">
     <!-- Intensity -->
     <g transform="translate(25.217187 78.1825) rotate(-90) scale(0.1 -0.1)">
      <defs>
       <path id="DejaVuSans-49" d="M 628 4666 
L 1259 4666 
L 1259 0 
L 628 0 
L 628 4666 
z
" transform="scale(0.015625)"/>
       <path id="DejaVuSans-6e" d="M 3513 2113 
L 3513 0 
L 2938 0 
L 2938 2094 
Q 2938 2591 2744 2837 
Q 2550 3084 2163 3084 
Q 1697 3084 1428 2787 
Q 1159 2491 1159 1978 
L 1159 0 
L 581 0 
L 581 3500 
L 1159 3500 
L 1159 2956 
Q 1366 3272 1645 3428 
Q 1925 3584 2291 3584 
Q 2894 3584 3203 3211 
Q 3513 2838 3513 2113 
z
" transform="scale(0.015625)"/>
       <path id="DejaVuSans-74" d="M 1172 4494 
L 1172 3500 
L 2356 3500 
L 2356 3053 
L 1172 3053 
L 1172 1153 
Q 1172 725 1289 603 
Q 1406 481 1766 481 
L 2356 481 
L 2356 0 
L 1766 0 
Q 1100 0 847 248 
Q 594 497 594 1153 
L 594 3053 
L 172 3053 
L 172 3500 
L 594 3500 
L 594 4494 
L 1172 4494 
z
" transform="scale(0.015625)"/>
       <path id="DejaVuSans-65" d="M 3597 1894 
L 3597 1613 
L 953 1613 
Q 991 1019 1311 708 
Q 1631 397 2203 397 
Q 2534 397 2845 478 
Q 3156 559 3463 722 
L 3463 178 
Q 3153 47 2828 -22 
Q 2503 -91 2169 -91 
Q 1331 -91 842 396 
Q 353 884 353 1716 
Q 353 2575 817 3079 
Q 1281 3584 2069 3584 
Q 2775 3584 3186 3129 
Q 3597 2675 3597 1894 
z
M 3022 2063 
Q 3016 2534 2758 2815 
Q 2500 3097 2075 3097 
Q 1594 3097 1305 2825 
Q 1016 2553 972 2059 
L 3022 2063 
z
" transform="scale(0.015625)"/>
       <path id="DejaVuSans-73" d="M 2834 3397 
L 2834 2853 
Q 2591 2978 2328 3040 
Q 2066 3103 1784 3103 
Q 1356 3103 1142 2972 
Q 928 2841 928 2578 
Q 928 2378 1081 2264 
Q 1234 2150 1697 2047 
L 1894 2003 
Q 2506 1872 2764 1633 
Q 3022 1394 3022 966 
Q 3022 478 2636 193 
Q 2250 -91 1575 -91 
Q 1294 -91 989 -36 
Q 684 19 347 128 
L 347 722 
Q 666 556 975 473 
Q 1284 391 1588 391 
Q 1994 391 2212 530 
Q 2431 669 2431 922 
Q 2431 1156 2273 1281 
Q 2116 1406 1581 1522 
L 1381 1569 
Q 847 1681 609 1914 
Q 372 2147 372 2553 
Q 372 3047 722 3315 
Q 1072 3584 1716 3584 
Q 2034 3584 2315 3537 
Q 2597 3491 2834 3397 
z
" transform="scale(0.015625)"/>
       <path id="DejaVuSans-69" d="M 603 3500 
L 1178 3500 
L 1178 0 
L 603 0 
L 603 3500 
z
M 603 4863 
L 1178 4863 
L 1178 4134 
L 603 4134 
L 603 4863 
z
" transform="scale(0.015625)"/>
       <path id="DejaVuSans-79" d="M 2059 -325 
Q 1816 -950 1584 -1140 
Q 1353 -1331 966 -1331 
L 506 -1331 
L 506 -850 
L 844 -850 
Q 1081 -850 1212 -737 
Q 1344 -625 1503 -206 
L 1606 56 
L 191 3500 
L 800 3500 
L 1894 763 
L 2988 3500 
L 3597 3500 
L 2059 -325 
z
" transform="scale(0.015625)"/>
      </defs>
      <use xlink:href="#DejaVuSans-49"/>
      <use xlink:href="#DejaVuSans-6e" x="29.492188"/>
      <use xlink:href="#DejaVuSans-74" x="92.871094"/>
      <use xlink:href="#DejaVuSans-65" x="132.080078"/>
      <use xlink:href="#DejaVuSans-6e" x="193.603516"/>
      <use xlink:href="#DejaVuSans-73" x="256.982422"/>
      <use xlink:href="#DejaVuSans-69" x="309.082031"/>
      <use xlink:href="#DejaVuSans-74" x="336.865234"/>
      <use xlink:href="#DejaVuSans-79" x="376.074219"/>
     </g>
    </g>
   </g>
   <g id="LineCollection_1">
    <path d="M 124.873032 78.104862 
L 124.873032 102.04 
" clip-path="url(#paebeb8156c)" style="fill: none; stroke: #0000ff; stroke-width: 1.5"/>
    <path d="M 134.063569 84.197985 
L 134.063569 102.04 
" clip-path="url(#paebeb8156c)" style="fill: none; stroke: #0000ff; stroke-width: 1.5"/>
    <path d="M 146.162377 77.858223 
L 146.162377 102.04 
" clip-path="url(#paebeb8156c)" style="fill: none; stroke: #0000ff; stroke-width: 1.5"/>
    <path d="M 146.681811 69.611313 
L 146.681811 102.04 
" clip-path="url(#paebeb8156c)" style="fill: none; stroke: #0000ff; stroke-width: 1.5"/>
    <path d="M 146.944425 80.421258 
L 146.944425 102.04 
" clip-path="url(#paebeb8156c)" style="fill: none; stroke: #0000ff; stroke-width: 1.5"/>
    <path d="M 147.746098 65.196194 
L 147.746098 102.04 
" clip-path="url(#paebeb8156c)" style="fill: none; stroke: #0000ff; stroke-width: 1.5"/>
    <path d="M 151.052162 78.586381 
L 151.052162 102.04 
" clip-path="url(#paebeb8156c)" style="fill: none; stroke: #0000ff; stroke-width: 1.5"/>
    <path d="M 163.342664 77.417141 
L 163.342664 102.04 
" clip-path="url(#paebeb8156c)" style="fill: none; stroke: #0000ff; stroke-width: 1.5"/>
    <path d="M 163.559991 83.829747 
L 163.559991 102.04 
" clip-path="url(#paebeb8156c)" style="fill: none; stroke: #0000ff; stroke-width: 1.5"/>
    <path d="M 174.88798 83.824872 
L 174.88798 102.04 
" clip-path="url(#paebeb8156c)" style="fill: none; stroke: #0000ff; stroke-width: 1.5"/>
    <path d="M 185.36196 19.094545 
L 185.36196 102.04 
" clip-path="url(#paebeb8156c)" style="fill: none; stroke: #0000ff; stroke-width: 1.5"/>
    <path d="M 185.496245 67.033365 
L 185.496245 102.04 
" clip-path="url(#paebeb8156c)" style="fill: none; stroke: #0000ff; stroke-width: 1.5"/>
    <path d="M 192.566952 81.790676 
L 192.566952 102.04 
" clip-path="url(#paebeb8156c)" style="fill: none; stroke: #0000ff; stroke-width: 1.5"/>
    <path d="M 201.663832 81.809031 
L 201.663832 102.04 
" clip-path="url(#paebeb8156c)" style="fill: none; stroke: #0000ff; stroke-width: 1.5"/>
    <path d="M 203.661166 45.921379 
L 203.661166 102.04 
" clip-path="url(#paebeb8156c)" style="fill: none; stroke: #0000ff; stroke-width: 1.5"/>
    <path d="M 203.793808 71.247732 
L 203.793808 102.04 
" clip-path="url(#paebeb8156c)" style="fill: none; stroke: #0000ff; stroke-width: 1.5"/>
    <path d="M 206.333272 77.905543 
L 206.333272 102.04 
" clip-path="url(#paebeb8156c)" style="fill: none; stroke: #0000ff; stroke-width: 1.5"/>
    <path d="M 215.281034 78.201796 
L 215.281034 102.04 
" clip-path="url(#paebeb8156c)" style="fill: none; stroke: #0000ff; stroke-width: 1.5"/>
    <path d="M 222.894273 36.081642 
L 222.894273 102.04 
" clip-path="url(#paebeb8156c)" style="fill: none; stroke: #0000ff; stroke-width: 1.5"/>
    <path d="M 223.026688 58.389539 
L 223.026688 102.04 
" clip-path="url(#paebeb8156c)" style="fill: none; stroke: #0000ff; stroke-width: 1.5"/>
    <path d="M 223.562049 80.266678 
L 223.562049 102.04 
" clip-path="url(#paebeb8156c)" style="fill: none; stroke: #0000ff; stroke-width: 1.5"/>
    <path d="M 225.966361 34.88315 
L 225.966361 102.04 
" clip-path="url(#paebeb8156c)" style="fill: none; stroke: #0000ff; stroke-width: 1.5"/>
    <path d="M 226.101766 67.781598 
L 226.101766 102.04 
" clip-path="url(#paebeb8156c)" style="fill: none; stroke: #0000ff; stroke-width: 1.5"/>
    <path d="M 237.992032 66.909185 
L 237.992032 102.04 
" clip-path="url(#paebeb8156c)" style="fill: none; stroke: #0000ff; stroke-width: 1.5"/>
    <path d="M 238.040603 82.613187 
L 238.040603 102.04 
" clip-path="url(#paebeb8156c)" style="fill: none; stroke: #0000ff; stroke-width: 1.5"/>
    <path d="M 247.98778 82.693202 
L 247.98778 102.04 
" clip-path="url(#paebeb8156c)" style="fill: none; stroke: #0000ff; stroke-width: 1.5"/>
    <path d="M 249.88601 60.934506 
L 249.88601 102.04 
" clip-path="url(#paebeb8156c)" style="fill: none; stroke: #0000ff; stroke-width: 1.5"/>
    <path d="M 251.862343 74.774952 
L 251.862343 102.04 
" clip-path="url(#paebeb8156c)" style="fill: none; stroke: #0000ff; stroke-width: 1.5"/>
    <path d="M 257.443815 65.529729 
L 257.443815 102.04 
" clip-path="url(#paebeb8156c)" style="fill: none; stroke: #0000ff; stroke-width: 1.5"/>
    <path d="M 261.744501 78.204377 
L 261.744501 102.04 
" clip-path="url(#paebeb8156c)" style="fill: none; stroke: #0000ff; stroke-width: 1.5"/>
    <path d="M 267.251968 82.78268 
L 267.251968 102.04 
" clip-path="url(#paebeb8156c)" style="fill: none; stroke: #0000ff; stroke-width: 1.5"/>
    <path d="M 268.917931 84.317289 
L 268.917931 102.04 
" clip-path="url(#paebeb8156c)" style="fill: none; stroke: #0000ff; stroke-width: 1.5"/>
    <path d="M 271.01732 72.704334 
L 271.01732 102.04 
" clip-path="url(#paebeb8156c)" style="fill: none; stroke: #0000ff; stroke-width: 1.5"/>
    <path d="M 271.612667 67.978049 
L 271.612667 102.04 
" clip-path="url(#paebeb8156c)" style="fill: none; stroke: #0000ff; stroke-width: 1.5"/>
    <path d="M 277.2 61.850511 
L 277.2 102.04 
" clip-path="url(#paebeb8156c)" style="fill: none; stroke: #0000ff; stroke-width: 1.5"/>
   </g>
   <g id="patch_3">
    <path d="M 54.2 102.04 
L 54.2 10.8 
" style="fill: none; stroke: #000000; stroke-width: 0.8; stroke-linejoin: miter; stroke-linecap: square"/>
   </g>
   <g id="patch_4">
    <path d="M 277.2 102.04 
L 277.2 10.8 
" style="fill: none; stroke: #000000; stroke-width: 0.8; stroke-linejoin: miter; stroke-linecap: square"/>
   </g>
   <g id="patch_5">
    <path d="M 54.2 102.04 
L 277.2 102.04 
" style="fill: none; stroke: #000000; stroke-width: 0.8; stroke-linejoin: miter; stroke-linecap: square"/>
   </g>
   <g id="patch_6">
    <path d="M 54.2 10.8 
L 277.2 10.8 
" style="fill: none; stroke: #000000; stroke-width: 0.8; stroke-linejoin: miter; stroke-linecap: square"/>
   </g>
  </g>
 </g>
 <defs>
  <clipPath id="paebeb8156c">
   <rect x="54.2" y="10.8" width="223" height="91.24"/>
  </clipPath>
 </defs>
</svg>
