<?xml version="1.0" encoding="utf-8" standalone="no"?>
<!DOCTYPE svg PUBLIC "-//W3C//DTD SVG 1.1//EN"
  "http://www.w3.org/Graphics/SVG/1.1/DTD/svg11.dtd">
<svg xmlns:xlink="http://www.w3.org/1999/xlink" width="288pt" height="144pt" viewBox="0 0 288 144" xmlns="http://www.w3.org/2000/svg" version="1.1">
 <metadata>
  <rdf:RDF xmlns:dc="http://purl.org/dc/elements/1.1/" xmlns:cc="http://creativecommons.org/ns#" xmlns:rdf="http://www.w3.org/1999/02/22-rdf-syntax-ns#">
   <cc:Work>
    <dc:type rdf:resource="http://purl.org/dc/dcmitype/StillImage"/>
    <dc:date>2022-07-19T16:12:34.409294</dc:date>
    <dc:format>image/svg+xml</dc:format>
    <dc:creator>
     <cc:Agent>
      <dc:title>Matplotlib v3.5.1, https://matplotlib.org/</dc:title>
     </cc:Agent>
    </dc:creator>
   </cc:Work>
  </rdf:RDF>
 </metadata>
 <defs>
  <style type="text/css">*{stroke-linejoin: round; stroke-linecap: butt}</style>
 </defs>
 <g id="figure_1">
  <g id="patch_1">
   <path d="M 0 144 
L 288 144 
L 288 0 
L 0 0 
L 0 144 
z
" style="fill: none"/>
  </g>
  <g id="axes_1">
   <g id="patch_2">
    <path d="M 50.925 102.2 
L 264.45 102.2 
L 264.45 10.8 
L 50.925 10.8 
z
" style="fill: #ffffff"/>
   </g>
   <g id="matplotlib.axis_1">
    <g id="xtick_1">
     <g id="line2d_1">
      <defs>
       <path id="md23b18021c" d="M 0 0 
L 0 3.5 
" style="stroke: #000000; stroke-width: 0.8"/>
      </defs>
      <g>
       <use xlink:href="#md23b18021c" x="50.925" y="102.2" style="stroke: #000000; stroke-width: 0.8"/>
      </g>
     </g>
     <g id="text_1">
      <!-- 0 -->
      <g transform="translate(47.74375 116.798437)scale(0.1 -0.1)">
       <defs>
        <path id="DejaVuSans-30" d="M 2034 4250 
Q 1547 4250 1301 3770 
Q 1056 3291 1056 2328 
Q 1056 1369 1301 889 
Q 1547 409 2034 409 
Q 2525 409 2770 889 
Q 3016 1369 3016 2328 
Q 3016 3291 2770 3770 
Q 2525 4250 2034 4250 
z
M 2034 4750 
Q 2819 4750 3233 4129 
Q 3647 3509 3647 2328 
Q 3647 1150 3233 529 
Q 2819 -91 2034 -91 
Q 1250 -91 836 529 
Q 422 1150 422 2328 
Q 422 3509 836 4129 
Q 1250 4750 2034 4750 
z
" transform="scale(0.015625)"/>
       </defs>
       <use xlink:href="#DejaVuSans-30"/>
      </g>
     </g>
    </g>
    <g id="xtick_2">
     <g id="line2d_2">
      <g>
       <use xlink:href="#md23b18021c" x="104.30625" y="102.2" style="stroke: #000000; stroke-width: 0.8"/>
      </g>
     </g>
     <g id="text_2">
      <!-- 500 -->
      <g transform="translate(94.7625 116.798437)scale(0.1 -0.1)">
       <defs>
        <path id="DejaVuSans-35" d="M 691 4666 
L 3169 4666 
L 3169 4134 
L 1269 4134 
L 1269 2991 
Q 1406 3038 1543 3061 
Q 1681 3084 1819 3084 
Q 2600 3084 3056 2656 
Q 3513 2228 3513 1497 
Q 3513 744 3044 326 
Q 2575 -91 1722 -91 
Q 1428 -91 1123 -41 
Q 819 9 494 109 
L 494 744 
Q 775 591 1075 516 
Q 1375 441 1709 441 
Q 2250 441 2565 725 
Q 2881 1009 2881 1497 
Q 2881 1984 2565 2268 
Q 2250 2553 1709 2553 
Q 1456 2553 1204 2497 
Q 953 2441 691 2322 
L 691 4666 
z
" transform="scale(0.015625)"/>
       </defs>
       <use xlink:href="#DejaVuSans-35"/>
       <use xlink:href="#DejaVuSans-30" x="63.623047"/>
       <use xlink:href="#DejaVuSans-30" x="127.246094"/>
      </g>
     </g>
    </g>
    <g id="xtick_3">
     <g id="line2d_3">
      <g>
       <use xlink:href="#md23b18021c" x="157.6875" y="102.2" style="stroke: #000000; stroke-width: 0.8"/>
      </g>
     </g>
     <g id="text_3">
      <!-- 1000 -->
      <g transform="translate(144.9625 116.798437)scale(0.1 -0.1)">
       <defs>
        <path id="DejaVuSans-31" d="M 794 531 
L 1825 531 
L 1825 4091 
L 703 3866 
L 703 4441 
L 1819 4666 
L 2450 4666 
L 2450 531 
L 3481 531 
L 3481 0 
L 794 0 
L 794 531 
z
" transform="scale(0.015625)"/>
       </defs>
       <use xlink:href="#DejaVuSans-31"/>
       <use xlink:href="#DejaVuSans-30" x="63.623047"/>
       <use xlink:href="#DejaVuSans-30" x="127.246094"/>
       <use xlink:href="#DejaVuSans-30" x="190.869141"/>
      </g>
     </g>
    </g>
    <g id="xtick_4">
     <g id="line2d_4">
      <g>
       <use xlink:href="#md23b18021c" x="211.06875" y="102.2" style="stroke: #000000; stroke-width: 0.8"/>
      </g>
     </g>
     <g id="text_4">
      <!-- 1500 -->
      <g transform="translate(198.34375 116.798437)scale(0.1 -0.1)">
       <use xlink:href="#DejaVuSans-31"/>
       <use xlink:href="#DejaVuSans-35" x="63.623047"/>
       <use xlink:href="#DejaVuSans-30" x="127.246094"/>
       <use xlink:href="#DejaVuSans-30" x="190.869141"/>
      </g>
     </g>
    </g>
    <g id="xtick_5">
     <g id="line2d_5">
      <g>
       <use xlink:href="#md23b18021c" x="264.45" y="102.2" style="stroke: #000000; stroke-width: 0.8"/>
      </g>
     </g>
     <g id="text_5">
      <!-- 2000 -->
      <g transform="translate(251.725 116.798437)scale(0.1 -0.1)">
       <defs>
        <path id="DejaVuSans-32" d="M 1228 531 
L 3431 531 
L 3431 0 
L 469 0 
L 469 531 
Q 828 903 1448 1529 
Q 2069 2156 2228 2338 
Q 2531 2678 2651 2914 
Q 2772 3150 2772 3378 
Q 2772 3750 2511 3984 
Q 2250 4219 1831 4219 
Q 1534 4219 1204 4116 
Q 875 4013 500 3803 
L 500 4441 
Q 881 4594 1212 4672 
Q 1544 4750 1819 4750 
Q 2544 4750 2975 4387 
Q 3406 4025 3406 3419 
Q 3406 3131 3298 2873 
Q 3191 2616 2906 2266 
Q 2828 2175 2409 1742 
Q 1991 1309 1228 531 
z
" transform="scale(0.015625)"/>
       </defs>
       <use xlink:href="#DejaVuSans-32"/>
       <use xlink:href="#DejaVuSans-30" x="63.623047"/>
       <use xlink:href="#DejaVuSans-30" x="127.246094"/>
       <use xlink:href="#DejaVuSans-30" x="190.869141"/>
      </g>
     </g>
    </g>
    <g id="text_6">
     <!-- m/z -->
     <g transform="translate(148.508594 130.476562)scale(0.1 -0.1)">
      <defs>
       <path id="DejaVuSans-6d" d="M 3328 2828 
Q 3544 3216 3844 3400 
Q 4144 3584 4550 3584 
Q 5097 3584 5394 3201 
Q 5691 2819 5691 2113 
L 5691 0 
L 5113 0 
L 5113 2094 
Q 5113 2597 4934 2840 
Q 4756 3084 4391 3084 
Q 3944 3084 3684 2787 
Q 3425 2491 3425 1978 
L 3425 0 
L 2847 0 
L 2847 2094 
Q 2847 2600 2669 2842 
Q 2491 3084 2119 3084 
Q 1678 3084 1418 2786 
Q 1159 2488 1159 1978 
L 1159 0 
L 581 0 
L 581 3500 
L 1159 3500 
L 1159 2956 
Q 1356 3278 1631 3431 
Q 1906 3584 2284 3584 
Q 2666 3584 2933 3390 
Q 3200 3197 3328 2828 
z
" transform="scale(0.015625)"/>
       <path id="DejaVuSans-2f" d="M 1625 4666 
L 2156 4666 
L 531 -594 
L 0 -594 
L 1625 4666 
z
" transform="scale(0.015625)"/>
       <path id="DejaVuSans-7a" d="M 353 3500 
L 3084 3500 
L 3084 2975 
L 922 459 
L 3084 459 
L 3084 0 
L 275 0 
L 275 525 
L 2438 3041 
L 353 3041 
L 353 3500 
z
" transform="scale(0.015625)"/>
      </defs>
      <use xlink:href="#DejaVuSans-6d"/>
      <use xlink:href="#DejaVuSans-2f" x="97.412109"/>
      <use xlink:href="#DejaVuSans-7a" x="131.103516"/>
     </g>
    </g>
   </g>
   <g id="matplotlib.axis_2">
    <g id="ytick_1">
     <g id="line2d_6">
      <defs>
       <path id="m2f3c44d133" d="M 0 0 
L -3.5 0 
" style="stroke: #000000; stroke-width: 0.8"/>
      </defs>
      <g>
       <use xlink:href="#m2f3c44d133" x="50.925" y="102.2" style="stroke: #000000; stroke-width: 0.8"/>
      </g>
     </g>
     <g id="text_7">
      <!-- 0 -->
      <g transform="translate(37.5625 105.999219)scale(0.1 -0.1)">
       <use xlink:href="#DejaVuSans-30"/>
      </g>
     </g>
    </g>
    <g id="ytick_2">
     <g id="line2d_7">
      <g>
       <use xlink:href="#m2f3c44d133" x="50.925" y="79.327127" style="stroke: #000000; stroke-width: 0.8"/>
      </g>
     </g>
     <g id="text_8">
      <!-- 250 -->
      <g transform="translate(24.8375 83.126346)scale(0.1 -0.1)">
       <use xlink:href="#DejaVuSans-32"/>
       <use xlink:href="#DejaVuSans-35" x="63.623047"/>
       <use xlink:href="#DejaVuSans-30" x="127.246094"/>
      </g>
     </g>
    </g>
    <g id="ytick_3">
     <g id="line2d_8">
      <g>
       <use xlink:href="#m2f3c44d133" x="50.925" y="56.454255" style="stroke: #000000; stroke-width: 0.8"/>
      </g>
     </g>
     <g id="text_9">
      <!-- 500 -->
      <g transform="translate(24.8375 60.253473)scale(0.1 -0.1)">
       <use xlink:href="#DejaVuSans-35"/>
       <use xlink:href="#DejaVuSans-30" x="63.623047"/>
       <use xlink:href="#DejaVuSans-30" x="127.246094"/>
      </g>
     </g>
    </g>
    <g id="ytick_4">
     <g id="line2d_9">
      <g>
       <use xlink:href="#m2f3c44d133" x="50.925" y="33.581382" style="stroke: #000000; stroke-width: 0.8"/>
      </g>
     </g>
     <g id="text_10">
      <!-- 750 -->
      <g transform="translate(24.8375 37.380601)scale(0.1 -0.1)">
       <defs>
        <path id="DejaVuSans-37" d="M 525 4666 
L 3525 4666 
L 3525 4397 
L 1831 0 
L 1172 0 
L 2766 4134 
L 525 4134 
L 525 4666 
z
" transform="scale(0.015625)"/>
       </defs>
       <use xlink:href="#DejaVuSans-37"/>
       <use xlink:href="#DejaVuSans-35" x="63.623047"/>
       <use xlink:href="#DejaVuSans-30" x="127.246094"/>
      </g>
     </g>
    </g>
    <g id="text_11">
     <!-- Intensity -->
     <g transform="translate(18.757812 78.2625)rotate(-90)scale(0.1 -0.1)">
      <defs>
       <path id="DejaVuSans-49" d="M 628 4666 
L 1259 4666 
L 1259 0 
L 628 0 
L 628 4666 
z
" transform="scale(0.015625)"/>
       <path id="DejaVuSans-6e" d="M 3513 2113 
L 3513 0 
L 2938 0 
L 2938 2094 
Q 2938 2591 2744 2837 
Q 2550 3084 2163 3084 
Q 1697 3084 1428 2787 
Q 1159 2491 1159 1978 
L 1159 0 
L 581 0 
L 581 3500 
L 1159 3500 
L 1159 2956 
Q 1366 3272 1645 3428 
Q 1925 3584 2291 3584 
Q 2894 3584 3203 3211 
Q 3513 2838 3513 2113 
z
" transform="scale(0.015625)"/>
       <path id="DejaVuSans-74" d="M 1172 4494 
L 1172 3500 
L 2356 3500 
L 2356 3053 
L 1172 3053 
L 1172 1153 
Q 1172 725 1289 603 
Q 1406 481 1766 481 
L 2356 481 
L 2356 0 
L 1766 0 
Q 1100 0 847 248 
Q 594 497 594 1153 
L 594 3053 
L 172 3053 
L 172 3500 
L 594 3500 
L 594 4494 
L 1172 4494 
z
" transform="scale(0.015625)"/>
       <path id="DejaVuSans-65" d="M 3597 1894 
L 3597 1613 
L 953 1613 
Q 991 1019 1311 708 
Q 1631 397 2203 397 
Q 2534 397 2845 478 
Q 3156 559 3463 722 
L 3463 178 
Q 3153 47 2828 -22 
Q 2503 -91 2169 -91 
Q 1331 -91 842 396 
Q 353 884 353 1716 
Q 353 2575 817 3079 
Q 1281 3584 2069 3584 
Q 2775 3584 3186 3129 
Q 3597 2675 3597 1894 
z
M 3022 2063 
Q 3016 2534 2758 2815 
Q 2500 3097 2075 3097 
Q 1594 3097 1305 2825 
Q 1016 2553 972 2059 
L 3022 2063 
z
" transform="scale(0.015625)"/>
       <path id="DejaVuSans-73" d="M 2834 3397 
L 2834 2853 
Q 2591 2978 2328 3040 
Q 2066 3103 1784 3103 
Q 1356 3103 1142 2972 
Q 928 2841 928 2578 
Q 928 2378 1081 2264 
Q 1234 2150 1697 2047 
L 1894 2003 
Q 2506 1872 2764 1633 
Q 3022 1394 3022 966 
Q 3022 478 2636 193 
Q 2250 -91 1575 -91 
Q 1294 -91 989 -36 
Q 684 19 347 128 
L 347 722 
Q 666 556 975 473 
Q 1284 391 1588 391 
Q 1994 391 2212 530 
Q 2431 669 2431 922 
Q 2431 1156 2273 1281 
Q 2116 1406 1581 1522 
L 1381 1569 
Q 847 1681 609 1914 
Q 372 2147 372 2553 
Q 372 3047 722 3315 
Q 1072 3584 1716 3584 
Q 2034 3584 2315 3537 
Q 2597 3491 2834 3397 
z
" transform="scale(0.015625)"/>
       <path id="DejaVuSans-69" d="M 603 3500 
L 1178 3500 
L 1178 0 
L 603 0 
L 603 3500 
z
M 603 4863 
L 1178 4863 
L 1178 4134 
L 603 4134 
L 603 4863 
z
" transform="scale(0.015625)"/>
       <path id="DejaVuSans-79" d="M 2059 -325 
Q 1816 -950 1584 -1140 
Q 1353 -1331 966 -1331 
L 506 -1331 
L 506 -850 
L 844 -850 
Q 1081 -850 1212 -737 
Q 1344 -625 1503 -206 
L 1606 56 
L 191 3500 
L 800 3500 
L 1894 763 
L 2988 3500 
L 3597 3500 
L 2059 -325 
z
" transform="scale(0.015625)"/>
      </defs>
      <use xlink:href="#DejaVuSans-49"/>
      <use xlink:href="#DejaVuSans-6e" x="29.492188"/>
      <use xlink:href="#DejaVuSans-74" x="92.871094"/>
      <use xlink:href="#DejaVuSans-65" x="132.080078"/>
      <use xlink:href="#DejaVuSans-6e" x="193.603516"/>
      <use xlink:href="#DejaVuSans-73" x="256.982422"/>
      <use xlink:href="#DejaVuSans-69" x="309.082031"/>
      <use xlink:href="#DejaVuSans-74" x="336.865234"/>
      <use xlink:href="#DejaVuSans-79" x="376.074219"/>
     </g>
    </g>
   </g>
   <g id="LineCollection_1">
    <path d="M 61.718689 102.034794 
L 61.718689 102.2 
" clip-path="url(#p2ab45f0692)" style="fill: none; stroke: #0000ff"/>
    <path d="M 61.825451 102.096488 
L 61.825451 102.2 
" clip-path="url(#p2ab45f0692)" style="fill: none; stroke: #0000ff"/>
    <path d="M 62.679551 101.550506 
L 62.679551 102.2 
" clip-path="url(#p2ab45f0692)" style="fill: none; stroke: #0000ff"/>
    <path d="M 63.747176 100.823531 
L 63.747176 102.2 
" clip-path="url(#p2ab45f0692)" style="fill: none; stroke: #0000ff"/>
    <path d="M 64.708039 99.072484 
L 64.708039 102.2 
" clip-path="url(#p2ab45f0692)" style="fill: none; stroke: #0000ff"/>
    <path d="M 64.814801 101.012071 
L 64.814801 102.2 
" clip-path="url(#p2ab45f0692)" style="fill: none; stroke: #0000ff"/>
    <path d="M 65.455376 101.08103 
L 65.455376 102.2 
" clip-path="url(#p2ab45f0692)" style="fill: none; stroke: #0000ff"/>
    <path d="M 65.989189 100.035268 
L 65.989189 102.2 
" clip-path="url(#p2ab45f0692)" style="fill: none; stroke: #0000ff"/>
    <path d="M 66.202714 102.160596 
L 66.202714 102.2 
" clip-path="url(#p2ab45f0692)" style="fill: none; stroke: #0000ff"/>
    <path d="M 66.629764 99.187265 
L 66.629764 102.2 
" clip-path="url(#p2ab45f0692)" style="fill: none; stroke: #0000ff"/>
    <path d="M 67.483864 96.015171 
L 67.483864 102.2 
" clip-path="url(#p2ab45f0692)" style="fill: none; stroke: #0000ff"/>
    <path d="M 67.697389 100.750084 
L 67.697389 102.2 
" clip-path="url(#p2ab45f0692)" style="fill: none; stroke: #0000ff"/>
    <path d="M 67.910914 95.692486 
L 67.910914 102.2 
" clip-path="url(#p2ab45f0692)" style="fill: none; stroke: #0000ff"/>
    <path d="M 68.978539 102.178488 
L 68.978539 102.2 
" clip-path="url(#p2ab45f0692)" style="fill: none; stroke: #0000ff"/>
    <path d="M 69.192064 102.16098 
L 69.192064 102.2 
" clip-path="url(#p2ab45f0692)" style="fill: none; stroke: #0000ff"/>
    <path d="M 69.405589 102.081139 
L 69.405589 102.2 
" clip-path="url(#p2ab45f0692)" style="fill: none; stroke: #0000ff"/>
    <path d="M 69.619114 101.609455 
L 69.619114 102.2 
" clip-path="url(#p2ab45f0692)" style="fill: none; stroke: #0000ff"/>
    <path d="M 70.473214 95.786929 
L 70.473214 102.2 
" clip-path="url(#p2ab45f0692)" style="fill: none; stroke: #0000ff"/>
    <path d="M 70.686739 100.381293 
L 70.686739 102.2 
" clip-path="url(#p2ab45f0692)" style="fill: none; stroke: #0000ff"/>
    <path d="M 70.697415 102.159844 
L 70.697415 102.2 
" clip-path="url(#p2ab45f0692)" style="fill: none; stroke: #0000ff"/>
    <path d="M 70.793501 102.189372 
L 70.793501 102.2 
" clip-path="url(#p2ab45f0692)" style="fill: none; stroke: #0000ff"/>
    <path d="M 70.900264 102.021523 
L 70.900264 102.2 
" clip-path="url(#p2ab45f0692)" style="fill: none; stroke: #0000ff"/>
    <path d="M 71.967889 102.178486 
L 71.967889 102.2 
" clip-path="url(#p2ab45f0692)" style="fill: none; stroke: #0000ff"/>
    <path d="M 72.19209 101.247903 
L 72.19209 102.2 
" clip-path="url(#p2ab45f0692)" style="fill: none; stroke: #0000ff"/>
    <path d="M 72.288176 10.8 
L 72.288176 102.2 
" clip-path="url(#p2ab45f0692)" style="fill: none; stroke: #0000ff"/>
    <path d="M 72.394939 100.496742 
L 72.394939 102.2 
" clip-path="url(#p2ab45f0692)" style="fill: none; stroke: #0000ff"/>
    <path d="M 73.462564 102.037074 
L 73.462564 102.2 
" clip-path="url(#p2ab45f0692)" style="fill: none; stroke: #0000ff"/>
    <path d="M 73.686765 102.186489 
L 73.686765 102.2 
" clip-path="url(#p2ab45f0692)" style="fill: none; stroke: #0000ff"/>
    <path d="M 73.889614 102.127852 
L 73.889614 102.2 
" clip-path="url(#p2ab45f0692)" style="fill: none; stroke: #0000ff"/>
    <path d="M 75.064001 102.160033 
L 75.064001 102.2 
" clip-path="url(#p2ab45f0692)" style="fill: none; stroke: #0000ff"/>
    <path d="M 75.18144 101.604344 
L 75.18144 102.2 
" clip-path="url(#p2ab45f0692)" style="fill: none; stroke: #0000ff"/>
    <path d="M 75.277526 56.458166 
L 75.277526 102.2 
" clip-path="url(#p2ab45f0692)" style="fill: none; stroke: #0000ff"/>
    <path d="M 75.384289 101.883711 
L 75.384289 102.2 
" clip-path="url(#p2ab45f0692)" style="fill: none; stroke: #0000ff"/>
    <path d="M 75.491051 102.087805 
L 75.491051 102.2 
" clip-path="url(#p2ab45f0692)" style="fill: none; stroke: #0000ff"/>
    <path d="M 76.558676 102.143772 
L 76.558676 102.2 
" clip-path="url(#p2ab45f0692)" style="fill: none; stroke: #0000ff"/>
    <path d="M 76.878964 101.92749 
L 76.878964 102.2 
" clip-path="url(#p2ab45f0692)" style="fill: none; stroke: #0000ff"/>
    <path d="M 76.985726 102.17601 
L 76.985726 102.2 
" clip-path="url(#p2ab45f0692)" style="fill: none; stroke: #0000ff"/>
    <path d="M 76.996403 102.163112 
L 76.996403 102.2 
" clip-path="url(#p2ab45f0692)" style="fill: none; stroke: #0000ff"/>
    <path d="M 78.384315 101.972182 
L 78.384315 102.2 
" clip-path="url(#p2ab45f0692)" style="fill: none; stroke: #0000ff"/>
    <path d="M 78.480401 100.209841 
L 78.480401 102.2 
" clip-path="url(#p2ab45f0692)" style="fill: none; stroke: #0000ff"/>
    <path d="M 78.693926 102.168419 
L 78.693926 102.2 
" clip-path="url(#p2ab45f0692)" style="fill: none; stroke: #0000ff"/>
    <path d="M 79.761551 102.189326 
L 79.761551 102.2 
" clip-path="url(#p2ab45f0692)" style="fill: none; stroke: #0000ff"/>
    <path d="M 79.985753 102.174724 
L 79.985753 102.2 
" clip-path="url(#p2ab45f0692)" style="fill: none; stroke: #0000ff"/>
    <path d="M 80.30604 100.795311 
L 80.30604 102.2 
" clip-path="url(#p2ab45f0692)" style="fill: none; stroke: #0000ff"/>
    <path d="M 80.73309 102.18719 
L 80.73309 102.2 
" clip-path="url(#p2ab45f0692)" style="fill: none; stroke: #0000ff"/>
    <path d="M 81.053378 101.83117 
L 81.053378 102.2 
" clip-path="url(#p2ab45f0692)" style="fill: none; stroke: #0000ff"/>
    <path d="M 81.683276 102.056001 
L 81.683276 102.2 
" clip-path="url(#p2ab45f0692)" style="fill: none; stroke: #0000ff"/>
    <path d="M 82.548053 102.091743 
L 82.548053 102.2 
" clip-path="url(#p2ab45f0692)" style="fill: none; stroke: #0000ff"/>
    <path d="M 82.761578 102.137607 
L 82.761578 102.2 
" clip-path="url(#p2ab45f0692)" style="fill: none; stroke: #0000ff"/>
    <path d="M 82.86834 101.758013 
L 82.86834 102.2 
" clip-path="url(#p2ab45f0692)" style="fill: none; stroke: #0000ff"/>
    <path d="M 83.829203 102.174162 
L 83.829203 102.2 
" clip-path="url(#p2ab45f0692)" style="fill: none; stroke: #0000ff"/>
    <path d="M 84.363015 101.937099 
L 84.363015 102.2 
" clip-path="url(#p2ab45f0692)" style="fill: none; stroke: #0000ff"/>
    <path d="M 85.43064 101.78103 
L 85.43064 102.2 
" clip-path="url(#p2ab45f0692)" style="fill: none; stroke: #0000ff"/>
    <path d="M 85.537403 101.738774 
L 85.537403 102.2 
" clip-path="url(#p2ab45f0692)" style="fill: none; stroke: #0000ff"/>
    <path d="M 85.750928 102.061296 
L 85.750928 102.2 
" clip-path="url(#p2ab45f0692)" style="fill: none; stroke: #0000ff"/>
    <path d="M 86.274064 102.116189 
L 86.274064 102.2 
" clip-path="url(#p2ab45f0692)" style="fill: none; stroke: #0000ff"/>
    <path d="M 87.352365 82.492788 
L 87.352365 102.2 
" clip-path="url(#p2ab45f0692)" style="fill: none; stroke: #0000ff"/>
    <path d="M 87.459128 101.975823 
L 87.459128 102.2 
" clip-path="url(#p2ab45f0692)" style="fill: none; stroke: #0000ff"/>
    <path d="M 88.740278 102.157035 
L 88.740278 102.2 
" clip-path="url(#p2ab45f0692)" style="fill: none; stroke: #0000ff"/>
    <path d="M 88.84704 102.021723 
L 88.84704 102.2 
" clip-path="url(#p2ab45f0692)" style="fill: none; stroke: #0000ff"/>
    <path d="M 89.156651 102.190644 
L 89.156651 102.2 
" clip-path="url(#p2ab45f0692)" style="fill: none; stroke: #0000ff"/>
    <path d="M 89.27409 102.163622 
L 89.27409 102.2 
" clip-path="url(#p2ab45f0692)" style="fill: none; stroke: #0000ff"/>
    <path d="M 90.55524 101.987692 
L 90.55524 102.2 
" clip-path="url(#p2ab45f0692)" style="fill: none; stroke: #0000ff"/>
    <path d="M 90.662003 100.949305 
L 90.662003 102.2 
" clip-path="url(#p2ab45f0692)" style="fill: none; stroke: #0000ff"/>
    <path d="M 91.953829 102.179936 
L 91.953829 102.2 
" clip-path="url(#p2ab45f0692)" style="fill: none; stroke: #0000ff"/>
    <path d="M 92.476965 94.977593 
L 92.476965 102.2 
" clip-path="url(#p2ab45f0692)" style="fill: none; stroke: #0000ff"/>
    <path d="M 92.583728 102.129153 
L 92.583728 102.2 
" clip-path="url(#p2ab45f0692)" style="fill: none; stroke: #0000ff"/>
    <path d="M 93.11754 102.141844 
L 93.11754 102.2 
" clip-path="url(#p2ab45f0692)" style="fill: none; stroke: #0000ff"/>
    <path d="M 94.943179 97.767013 
L 94.943179 102.2 
" clip-path="url(#p2ab45f0692)" style="fill: none; stroke: #0000ff"/>
    <path d="M 95.049941 102.176687 
L 95.049941 102.2 
" clip-path="url(#p2ab45f0692)" style="fill: none; stroke: #0000ff"/>
    <path d="M 96.96099 102.190074 
L 96.96099 102.2 
" clip-path="url(#p2ab45f0692)" style="fill: none; stroke: #0000ff"/>
    <path d="M 97.067753 102.099415 
L 97.067753 102.2 
" clip-path="url(#p2ab45f0692)" style="fill: none; stroke: #0000ff"/>
    <path d="M 97.654946 102.171216 
L 97.654946 102.2 
" clip-path="url(#p2ab45f0692)" style="fill: none; stroke: #0000ff"/>
    <path d="M 97.708328 102.018624 
L 97.708328 102.2 
" clip-path="url(#p2ab45f0692)" style="fill: none; stroke: #0000ff"/>
    <path d="M 98.615809 102.107545 
L 98.615809 102.2 
" clip-path="url(#p2ab45f0692)" style="fill: none; stroke: #0000ff"/>
    <path d="M 98.66919 102.189426 
L 98.66919 102.2 
" clip-path="url(#p2ab45f0692)" style="fill: none; stroke: #0000ff"/>
    <path d="M 99.95034 102.133045 
L 99.95034 102.2 
" clip-path="url(#p2ab45f0692)" style="fill: none; stroke: #0000ff"/>
    <path d="M 101.017965 102.184336 
L 101.017965 102.2 
" clip-path="url(#p2ab45f0692)" style="fill: none; stroke: #0000ff"/>
    <path d="M 101.348929 102.178202 
L 101.348929 102.2 
" clip-path="url(#p2ab45f0692)" style="fill: none; stroke: #0000ff"/>
    <path d="M 102.832928 102.182201 
L 102.832928 102.2 
" clip-path="url(#p2ab45f0692)" style="fill: none; stroke: #0000ff"/>
    <path d="M 102.93969 101.709156 
L 102.93969 102.2 
" clip-path="url(#p2ab45f0692)" style="fill: none; stroke: #0000ff"/>
    <path d="M 104.754653 96.656083 
L 104.754653 102.2 
" clip-path="url(#p2ab45f0692)" style="fill: none; stroke: #0000ff"/>
    <path d="M 104.765329 102.190098 
L 104.765329 102.2 
" clip-path="url(#p2ab45f0692)" style="fill: none; stroke: #0000ff"/>
    <path d="M 104.861415 102.17123 
L 104.861415 102.2 
" clip-path="url(#p2ab45f0692)" style="fill: none; stroke: #0000ff"/>
    <path d="M 110.733353 102.082662 
L 110.733353 102.2 
" clip-path="url(#p2ab45f0692)" style="fill: none; stroke: #0000ff"/>
    <path d="M 111.811654 102.190282 
L 111.811654 102.2 
" clip-path="url(#p2ab45f0692)" style="fill: none; stroke: #0000ff"/>
    <path d="M 113.626616 102.099291 
L 113.626616 102.2 
" clip-path="url(#p2ab45f0692)" style="fill: none; stroke: #0000ff"/>
    <path d="M 113.733379 101.735899 
L 113.733379 102.2 
" clip-path="url(#p2ab45f0692)" style="fill: none; stroke: #0000ff"/>
    <path d="M 114.801004 102.151853 
L 114.801004 102.2 
" clip-path="url(#p2ab45f0692)" style="fill: none; stroke: #0000ff"/>
    <path d="M 115.014529 102.138635 
L 115.014529 102.2 
" clip-path="url(#p2ab45f0692)" style="fill: none; stroke: #0000ff"/>
    <path d="M 115.548341 91.138223 
L 115.548341 102.2 
" clip-path="url(#p2ab45f0692)" style="fill: none; stroke: #0000ff"/>
    <path d="M 115.655104 102.023127 
L 115.655104 102.2 
" clip-path="url(#p2ab45f0692)" style="fill: none; stroke: #0000ff"/>
    <path d="M 119.605316 102.166775 
L 119.605316 102.2 
" clip-path="url(#p2ab45f0692)" style="fill: none; stroke: #0000ff"/>
    <path d="M 119.615993 102.189657 
L 119.615993 102.2 
" clip-path="url(#p2ab45f0692)" style="fill: none; stroke: #0000ff"/>
    <path d="M 119.712079 102.190432 
L 119.712079 102.2 
" clip-path="url(#p2ab45f0692)" style="fill: none; stroke: #0000ff"/>
    <path d="M 120.459416 101.929763 
L 120.459416 102.2 
" clip-path="url(#p2ab45f0692)" style="fill: none; stroke: #0000ff"/>
    <path d="M 120.470093 101.959064 
L 120.470093 102.2 
" clip-path="url(#p2ab45f0692)" style="fill: none; stroke: #0000ff"/>
    <path d="M 120.512798 102.043139 
L 120.512798 102.2 
" clip-path="url(#p2ab45f0692)" style="fill: none; stroke: #0000ff"/>
    <path d="M 120.566179 100.68597 
L 120.566179 102.2 
" clip-path="url(#p2ab45f0692)" style="fill: none; stroke: #0000ff"/>
    <path d="M 120.576855 101.672174 
L 120.576855 102.2 
" clip-path="url(#p2ab45f0692)" style="fill: none; stroke: #0000ff"/>
    <path d="M 121.430955 102.183292 
L 121.430955 102.2 
" clip-path="url(#p2ab45f0692)" style="fill: none; stroke: #0000ff"/>
    <path d="M 122.594666 102.173044 
L 122.594666 102.2 
" clip-path="url(#p2ab45f0692)" style="fill: none; stroke: #0000ff"/>
    <path d="M 124.409629 101.73868 
L 124.409629 102.2 
" clip-path="url(#p2ab45f0692)" style="fill: none; stroke: #0000ff"/>
    <path d="M 124.516391 101.37142 
L 124.516391 102.2 
" clip-path="url(#p2ab45f0692)" style="fill: none; stroke: #0000ff"/>
    <path d="M 126.331354 79.09357 
L 126.331354 102.2 
" clip-path="url(#p2ab45f0692)" style="fill: none; stroke: #0000ff"/>
    <path d="M 126.34203 102.186919 
L 126.34203 102.2 
" clip-path="url(#p2ab45f0692)" style="fill: none; stroke: #0000ff"/>
    <path d="M 126.438116 101.508356 
L 126.438116 102.2 
" clip-path="url(#p2ab45f0692)" style="fill: none; stroke: #0000ff"/>
    <path d="M 130.601854 102.134281 
L 130.601854 102.2 
" clip-path="url(#p2ab45f0692)" style="fill: none; stroke: #0000ff"/>
    <path d="M 136.59123 102.187979 
L 136.59123 102.2 
" clip-path="url(#p2ab45f0692)" style="fill: none; stroke: #0000ff"/>
    <path d="M 138.192668 102.140012 
L 138.192668 102.2 
" clip-path="url(#p2ab45f0692)" style="fill: none; stroke: #0000ff"/>
    <path d="M 142.463168 102.171178 
L 142.463168 102.2 
" clip-path="url(#p2ab45f0692)" style="fill: none; stroke: #0000ff"/>
    <path d="M 144.27813 101.568169 
L 144.27813 102.2 
" clip-path="url(#p2ab45f0692)" style="fill: none; stroke: #0000ff"/>
    <path d="M 144.384893 100.589907 
L 144.384893 102.2 
" clip-path="url(#p2ab45f0692)" style="fill: none; stroke: #0000ff"/>
    <path d="M 144.491655 102.151777 
L 144.491655 102.2 
" clip-path="url(#p2ab45f0692)" style="fill: none; stroke: #0000ff"/>
    <path d="M 146.199855 71.900966 
L 146.199855 102.2 
" clip-path="url(#p2ab45f0692)" style="fill: none; stroke: #0000ff"/>
    <path d="M 146.306618 100.312247 
L 146.306618 102.2 
" clip-path="url(#p2ab45f0692)" style="fill: none; stroke: #0000ff"/>
    <path d="M 150.043305 102.178717 
L 150.043305 102.2 
" clip-path="url(#p2ab45f0692)" style="fill: none; stroke: #0000ff"/>
    <path d="M 150.25683 102.190316 
L 150.25683 102.2 
" clip-path="url(#p2ab45f0692)" style="fill: none; stroke: #0000ff"/>
    <path d="M 151.858268 101.85119 
L 151.858268 102.2 
" clip-path="url(#p2ab45f0692)" style="fill: none; stroke: #0000ff"/>
    <path d="M 151.868944 102.158028 
L 151.868944 102.2 
" clip-path="url(#p2ab45f0692)" style="fill: none; stroke: #0000ff"/>
    <path d="M 151.96503 101.089669 
L 151.96503 102.2 
" clip-path="url(#p2ab45f0692)" style="fill: none; stroke: #0000ff"/>
    <path d="M 151.975706 102.170142 
L 151.975706 102.2 
" clip-path="url(#p2ab45f0692)" style="fill: none; stroke: #0000ff"/>
    <path d="M 152.071793 102.18991 
L 152.071793 102.2 
" clip-path="url(#p2ab45f0692)" style="fill: none; stroke: #0000ff"/>
    <path d="M 153.779993 101.794308 
L 153.779993 102.2 
" clip-path="url(#p2ab45f0692)" style="fill: none; stroke: #0000ff"/>
    <path d="M 153.790669 70.424067 
L 153.790669 102.2 
" clip-path="url(#p2ab45f0692)" style="fill: none; stroke: #0000ff"/>
    <path d="M 153.886755 102.186705 
L 153.886755 102.2 
" clip-path="url(#p2ab45f0692)" style="fill: none; stroke: #0000ff"/>
    <path d="M 153.897431 99.159873 
L 153.897431 102.2 
" clip-path="url(#p2ab45f0692)" style="fill: none; stroke: #0000ff"/>
    <path d="M 162.118144 102.179027 
L 162.118144 102.2 
" clip-path="url(#p2ab45f0692)" style="fill: none; stroke: #0000ff"/>
    <path d="M 163.933106 101.666016 
L 163.933106 102.2 
" clip-path="url(#p2ab45f0692)" style="fill: none; stroke: #0000ff"/>
    <path d="M 164.039869 101.137441 
L 164.039869 102.2 
" clip-path="url(#p2ab45f0692)" style="fill: none; stroke: #0000ff"/>
    <path d="M 164.146631 102.174107 
L 164.146631 102.2 
" clip-path="url(#p2ab45f0692)" style="fill: none; stroke: #0000ff"/>
    <path d="M 165.854831 69.539739 
L 165.854831 102.2 
" clip-path="url(#p2ab45f0692)" style="fill: none; stroke: #0000ff"/>
    <path d="M 165.865508 102.166052 
L 165.865508 102.2 
" clip-path="url(#p2ab45f0692)" style="fill: none; stroke: #0000ff"/>
    <path d="M 165.961594 100.013907 
L 165.961594 102.2 
" clip-path="url(#p2ab45f0692)" style="fill: none; stroke: #0000ff"/>
    <path d="M 166.922456 102.187597 
L 166.922456 102.2 
" clip-path="url(#p2ab45f0692)" style="fill: none; stroke: #0000ff"/>
    <path d="M 178.997295 101.342921 
L 178.997295 102.2 
" clip-path="url(#p2ab45f0692)" style="fill: none; stroke: #0000ff"/>
    <path d="M 179.104058 102.161272 
L 179.104058 102.2 
" clip-path="url(#p2ab45f0692)" style="fill: none; stroke: #0000ff"/>
   </g>
   <g id="patch_3">
    <path d="M 50.925 102.2 
L 50.925 10.8 
" style="fill: none; stroke: #000000; stroke-width: 0.8; stroke-linejoin: miter; stroke-linecap: square"/>
   </g>
   <g id="patch_4">
    <path d="M 264.45 102.2 
L 264.45 10.8 
" style="fill: none; stroke: #000000; stroke-width: 0.8; stroke-linejoin: miter; stroke-linecap: square"/>
   </g>
   <g id="patch_5">
    <path d="M 50.925 102.2 
L 264.45 102.2 
" style="fill: none; stroke: #000000; stroke-width: 0.8; stroke-linejoin: miter; stroke-linecap: square"/>
   </g>
   <g id="patch_6">
    <path d="M 50.925 10.8 
L 264.45 10.8 
" style="fill: none; stroke: #000000; stroke-width: 0.8; stroke-linejoin: miter; stroke-linecap: square"/>
   </g>
  </g>
 </g>
 <defs>
  <clipPath id="p2ab45f0692">
   <rect x="50.925" y="10.8" width="213.525" height="91.4"/>
  </clipPath>
 </defs>
</svg>
