<?xml version="1.0" encoding="utf-8" standalone="no"?>
<!DOCTYPE svg PUBLIC "-//W3C//DTD SVG 1.1//EN"
  "http://www.w3.org/Graphics/SVG/1.1/DTD/svg11.dtd">
<svg xmlns:xlink="http://www.w3.org/1999/xlink" width="288pt" height="144pt" viewBox="0 0 288 144" xmlns="http://www.w3.org/2000/svg" version="1.1">
 <metadata>
  <rdf:RDF xmlns:dc="http://purl.org/dc/elements/1.1/" xmlns:cc="http://creativecommons.org/ns#" xmlns:rdf="http://www.w3.org/1999/02/22-rdf-syntax-ns#">
   <cc:Work>
    <dc:type rdf:resource="http://purl.org/dc/dcmitype/StillImage"/>
    <dc:date>2023-07-12T09:55:10.852024</dc:date>
    <dc:format>image/svg+xml</dc:format>
    <dc:creator>
     <cc:Agent>
      <dc:title>Matplotlib v3.6.2, https://matplotlib.org/</dc:title>
     </cc:Agent>
    </dc:creator>
   </cc:Work>
  </rdf:RDF>
 </metadata>
 <defs>
  <style type="text/css">*{stroke-linejoin: round; stroke-linecap: butt}</style>
 </defs>
 <g id="figure_1">
  <g id="patch_1">
   <path d="M 0 144 
L 288 144 
L 288 0 
L 0 0 
z
" style="fill: #ffffff"/>
  </g>
  <g id="axes_1">
   <g id="patch_2">
    <path d="M 70.22 102.04 
L 277.2 102.04 
L 277.2 12.060623 
L 70.22 12.060623 
z
" style="fill: #ffffff"/>
   </g>
   <g id="matplotlib.axis_1">
    <g id="xtick_1">
     <g id="line2d_1">
      <defs>
       <path id="mce88d0b4f3" d="M 0 0 
L 0 3.5 
" style="stroke: #000000; stroke-width: 0.8"/>
      </defs>
      <g>
       <use xlink:href="#mce88d0b4f3" x="70.22" y="102.04" style="stroke: #000000; stroke-width: 0.8"/>
      </g>
     </g>
     <g id="text_1">
      <!-- 0 -->
      <g transform="translate(67.03875 116.638437) scale(0.1 -0.1)">
       <defs>
        <path id="DejaVuSans-30" d="M 2034 4250 
Q 1547 4250 1301 3770 
Q 1056 3291 1056 2328 
Q 1056 1369 1301 889 
Q 1547 409 2034 409 
Q 2525 409 2770 889 
Q 3016 1369 3016 2328 
Q 3016 3291 2770 3770 
Q 2525 4250 2034 4250 
z
M 2034 4750 
Q 2819 4750 3233 4129 
Q 3647 3509 3647 2328 
Q 3647 1150 3233 529 
Q 2819 -91 2034 -91 
Q 1250 -91 836 529 
Q 422 1150 422 2328 
Q 422 3509 836 4129 
Q 1250 4750 2034 4750 
z
" transform="scale(0.015625)"/>
       </defs>
       <use xlink:href="#DejaVuSans-30"/>
      </g>
     </g>
    </g>
    <g id="xtick_2">
     <g id="line2d_2">
      <g>
       <use xlink:href="#mce88d0b4f3" x="104.790897" y="102.04" style="stroke: #000000; stroke-width: 0.8"/>
      </g>
     </g>
     <g id="text_2">
      <!-- 250 -->
      <g transform="translate(95.247147 116.638437) scale(0.1 -0.1)">
       <defs>
        <path id="DejaVuSans-32" d="M 1228 531 
L 3431 531 
L 3431 0 
L 469 0 
L 469 531 
Q 828 903 1448 1529 
Q 2069 2156 2228 2338 
Q 2531 2678 2651 2914 
Q 2772 3150 2772 3378 
Q 2772 3750 2511 3984 
Q 2250 4219 1831 4219 
Q 1534 4219 1204 4116 
Q 875 4013 500 3803 
L 500 4441 
Q 881 4594 1212 4672 
Q 1544 4750 1819 4750 
Q 2544 4750 2975 4387 
Q 3406 4025 3406 3419 
Q 3406 3131 3298 2873 
Q 3191 2616 2906 2266 
Q 2828 2175 2409 1742 
Q 1991 1309 1228 531 
z
" transform="scale(0.015625)"/>
        <path id="DejaVuSans-35" d="M 691 4666 
L 3169 4666 
L 3169 4134 
L 1269 4134 
L 1269 2991 
Q 1406 3038 1543 3061 
Q 1681 3084 1819 3084 
Q 2600 3084 3056 2656 
Q 3513 2228 3513 1497 
Q 3513 744 3044 326 
Q 2575 -91 1722 -91 
Q 1428 -91 1123 -41 
Q 819 9 494 109 
L 494 744 
Q 775 591 1075 516 
Q 1375 441 1709 441 
Q 2250 441 2565 725 
Q 2881 1009 2881 1497 
Q 2881 1984 2565 2268 
Q 2250 2553 1709 2553 
Q 1456 2553 1204 2497 
Q 953 2441 691 2322 
L 691 4666 
z
" transform="scale(0.015625)"/>
       </defs>
       <use xlink:href="#DejaVuSans-32"/>
       <use xlink:href="#DejaVuSans-35" x="63.623047"/>
       <use xlink:href="#DejaVuSans-30" x="127.246094"/>
      </g>
     </g>
    </g>
    <g id="xtick_3">
     <g id="line2d_3">
      <g>
       <use xlink:href="#mce88d0b4f3" x="139.361795" y="102.04" style="stroke: #000000; stroke-width: 0.8"/>
      </g>
     </g>
     <g id="text_3">
      <!-- 500 -->
      <g transform="translate(129.818045 116.638437) scale(0.1 -0.1)">
       <use xlink:href="#DejaVuSans-35"/>
       <use xlink:href="#DejaVuSans-30" x="63.623047"/>
       <use xlink:href="#DejaVuSans-30" x="127.246094"/>
      </g>
     </g>
    </g>
    <g id="xtick_4">
     <g id="line2d_4">
      <g>
       <use xlink:href="#mce88d0b4f3" x="173.932692" y="102.04" style="stroke: #000000; stroke-width: 0.8"/>
      </g>
     </g>
     <g id="text_4">
      <!-- 750 -->
      <g transform="translate(164.388942 116.638437) scale(0.1 -0.1)">
       <defs>
        <path id="DejaVuSans-37" d="M 525 4666 
L 3525 4666 
L 3525 4397 
L 1831 0 
L 1172 0 
L 2766 4134 
L 525 4134 
L 525 4666 
z
" transform="scale(0.015625)"/>
       </defs>
       <use xlink:href="#DejaVuSans-37"/>
       <use xlink:href="#DejaVuSans-35" x="63.623047"/>
       <use xlink:href="#DejaVuSans-30" x="127.246094"/>
      </g>
     </g>
    </g>
    <g id="xtick_5">
     <g id="line2d_5">
      <g>
       <use xlink:href="#mce88d0b4f3" x="208.503589" y="102.04" style="stroke: #000000; stroke-width: 0.8"/>
      </g>
     </g>
     <g id="text_5">
      <!-- 1000 -->
      <g transform="translate(195.778589 116.638437) scale(0.1 -0.1)">
       <defs>
        <path id="DejaVuSans-31" d="M 794 531 
L 1825 531 
L 1825 4091 
L 703 3866 
L 703 4441 
L 1819 4666 
L 2450 4666 
L 2450 531 
L 3481 531 
L 3481 0 
L 794 0 
L 794 531 
z
" transform="scale(0.015625)"/>
       </defs>
       <use xlink:href="#DejaVuSans-31"/>
       <use xlink:href="#DejaVuSans-30" x="63.623047"/>
       <use xlink:href="#DejaVuSans-30" x="127.246094"/>
       <use xlink:href="#DejaVuSans-30" x="190.869141"/>
      </g>
     </g>
    </g>
    <g id="xtick_6">
     <g id="line2d_6">
      <g>
       <use xlink:href="#mce88d0b4f3" x="243.074486" y="102.04" style="stroke: #000000; stroke-width: 0.8"/>
      </g>
     </g>
     <g id="text_6">
      <!-- 1250 -->
      <g transform="translate(230.349486 116.638437) scale(0.1 -0.1)">
       <use xlink:href="#DejaVuSans-31"/>
       <use xlink:href="#DejaVuSans-32" x="63.623047"/>
       <use xlink:href="#DejaVuSans-35" x="127.246094"/>
       <use xlink:href="#DejaVuSans-30" x="190.869141"/>
      </g>
     </g>
    </g>
    <g id="text_7">
     <!-- m/z -->
     <g transform="translate(164.531094 130.316563) scale(0.1 -0.1)">
      <defs>
       <path id="DejaVuSans-6d" d="M 3328 2828 
Q 3544 3216 3844 3400 
Q 4144 3584 4550 3584 
Q 5097 3584 5394 3201 
Q 5691 2819 5691 2113 
L 5691 0 
L 5113 0 
L 5113 2094 
Q 5113 2597 4934 2840 
Q 4756 3084 4391 3084 
Q 3944 3084 3684 2787 
Q 3425 2491 3425 1978 
L 3425 0 
L 2847 0 
L 2847 2094 
Q 2847 2600 2669 2842 
Q 2491 3084 2119 3084 
Q 1678 3084 1418 2786 
Q 1159 2488 1159 1978 
L 1159 0 
L 581 0 
L 581 3500 
L 1159 3500 
L 1159 2956 
Q 1356 3278 1631 3431 
Q 1906 3584 2284 3584 
Q 2666 3584 2933 3390 
Q 3200 3197 3328 2828 
z
" transform="scale(0.015625)"/>
       <path id="DejaVuSans-2f" d="M 1625 4666 
L 2156 4666 
L 531 -594 
L 0 -594 
L 1625 4666 
z
" transform="scale(0.015625)"/>
       <path id="DejaVuSans-7a" d="M 353 3500 
L 3084 3500 
L 3084 2975 
L 922 459 
L 3084 459 
L 3084 0 
L 275 0 
L 275 525 
L 2438 3041 
L 353 3041 
L 353 3500 
z
" transform="scale(0.015625)"/>
      </defs>
      <use xlink:href="#DejaVuSans-6d"/>
      <use xlink:href="#DejaVuSans-2f" x="97.412109"/>
      <use xlink:href="#DejaVuSans-7a" x="131.103516"/>
     </g>
    </g>
   </g>
   <g id="matplotlib.axis_2">
    <g id="ytick_1">
     <g id="line2d_7">
      <defs>
       <path id="m50c0ed4418" d="M 0 0 
L -3.5 0 
" style="stroke: #000000; stroke-width: 0.8"/>
      </defs>
      <g>
       <use xlink:href="#m50c0ed4418" x="70.22" y="102.04" style="stroke: #000000; stroke-width: 0.8"/>
      </g>
     </g>
     <g id="text_8">
      <!-- 0 -->
      <g transform="translate(56.8575 105.839219) scale(0.1 -0.1)">
       <use xlink:href="#DejaVuSans-30"/>
      </g>
     </g>
    </g>
    <g id="ytick_2">
     <g id="line2d_8">
      <g>
       <use xlink:href="#m50c0ed4418" x="70.22" y="72.777058" style="stroke: #000000; stroke-width: 0.8"/>
      </g>
     </g>
     <g id="text_9">
      <!-- 200000 -->
      <g transform="translate(25.045 76.576277) scale(0.1 -0.1)">
       <use xlink:href="#DejaVuSans-32"/>
       <use xlink:href="#DejaVuSans-30" x="63.623047"/>
       <use xlink:href="#DejaVuSans-30" x="127.246094"/>
       <use xlink:href="#DejaVuSans-30" x="190.869141"/>
       <use xlink:href="#DejaVuSans-30" x="254.492188"/>
       <use xlink:href="#DejaVuSans-30" x="318.115234"/>
      </g>
     </g>
    </g>
    <g id="ytick_3">
     <g id="line2d_9">
      <g>
       <use xlink:href="#m50c0ed4418" x="70.22" y="43.514116" style="stroke: #000000; stroke-width: 0.8"/>
      </g>
     </g>
     <g id="text_10">
      <!-- 400000 -->
      <g transform="translate(25.045 47.313335) scale(0.1 -0.1)">
       <defs>
        <path id="DejaVuSans-34" d="M 2419 4116 
L 825 1625 
L 2419 1625 
L 2419 4116 
z
M 2253 4666 
L 3047 4666 
L 3047 1625 
L 3713 1625 
L 3713 1100 
L 3047 1100 
L 3047 0 
L 2419 0 
L 2419 1100 
L 313 1100 
L 313 1709 
L 2253 4666 
z
" transform="scale(0.015625)"/>
       </defs>
       <use xlink:href="#DejaVuSans-34"/>
       <use xlink:href="#DejaVuSans-30" x="63.623047"/>
       <use xlink:href="#DejaVuSans-30" x="127.246094"/>
       <use xlink:href="#DejaVuSans-30" x="190.869141"/>
       <use xlink:href="#DejaVuSans-30" x="254.492188"/>
       <use xlink:href="#DejaVuSans-30" x="318.115234"/>
      </g>
     </g>
    </g>
    <g id="ytick_4">
     <g id="line2d_10">
      <g>
       <use xlink:href="#m50c0ed4418" x="70.22" y="14.251174" style="stroke: #000000; stroke-width: 0.8"/>
      </g>
     </g>
     <g id="text_11">
      <!-- 600000 -->
      <g transform="translate(25.045 18.050392) scale(0.1 -0.1)">
       <defs>
        <path id="DejaVuSans-36" d="M 2113 2584 
Q 1688 2584 1439 2293 
Q 1191 2003 1191 1497 
Q 1191 994 1439 701 
Q 1688 409 2113 409 
Q 2538 409 2786 701 
Q 3034 994 3034 1497 
Q 3034 2003 2786 2293 
Q 2538 2584 2113 2584 
z
M 3366 4563 
L 3366 3988 
Q 3128 4100 2886 4159 
Q 2644 4219 2406 4219 
Q 1781 4219 1451 3797 
Q 1122 3375 1075 2522 
Q 1259 2794 1537 2939 
Q 1816 3084 2150 3084 
Q 2853 3084 3261 2657 
Q 3669 2231 3669 1497 
Q 3669 778 3244 343 
Q 2819 -91 2113 -91 
Q 1303 -91 875 529 
Q 447 1150 447 2328 
Q 447 3434 972 4092 
Q 1497 4750 2381 4750 
Q 2619 4750 2861 4703 
Q 3103 4656 3366 4563 
z
" transform="scale(0.015625)"/>
       </defs>
       <use xlink:href="#DejaVuSans-36"/>
       <use xlink:href="#DejaVuSans-30" x="63.623047"/>
       <use xlink:href="#DejaVuSans-30" x="127.246094"/>
       <use xlink:href="#DejaVuSans-30" x="190.869141"/>
       <use xlink:href="#DejaVuSans-30" x="254.492188"/>
       <use xlink:href="#DejaVuSans-30" x="318.115234"/>
      </g>
     </g>
    </g>
    <g id="text_12">
     <!-- Intensity -->
     <g transform="translate(18.965312 78.812812) rotate(-90) scale(0.1 -0.1)">
      <defs>
       <path id="DejaVuSans-49" d="M 628 4666 
L 1259 4666 
L 1259 0 
L 628 0 
L 628 4666 
z
" transform="scale(0.015625)"/>
       <path id="DejaVuSans-6e" d="M 3513 2113 
L 3513 0 
L 2938 0 
L 2938 2094 
Q 2938 2591 2744 2837 
Q 2550 3084 2163 3084 
Q 1697 3084 1428 2787 
Q 1159 2491 1159 1978 
L 1159 0 
L 581 0 
L 581 3500 
L 1159 3500 
L 1159 2956 
Q 1366 3272 1645 3428 
Q 1925 3584 2291 3584 
Q 2894 3584 3203 3211 
Q 3513 2838 3513 2113 
z
" transform="scale(0.015625)"/>
       <path id="DejaVuSans-74" d="M 1172 4494 
L 1172 3500 
L 2356 3500 
L 2356 3053 
L 1172 3053 
L 1172 1153 
Q 1172 725 1289 603 
Q 1406 481 1766 481 
L 2356 481 
L 2356 0 
L 1766 0 
Q 1100 0 847 248 
Q 594 497 594 1153 
L 594 3053 
L 172 3053 
L 172 3500 
L 594 3500 
L 594 4494 
L 1172 4494 
z
" transform="scale(0.015625)"/>
       <path id="DejaVuSans-65" d="M 3597 1894 
L 3597 1613 
L 953 1613 
Q 991 1019 1311 708 
Q 1631 397 2203 397 
Q 2534 397 2845 478 
Q 3156 559 3463 722 
L 3463 178 
Q 3153 47 2828 -22 
Q 2503 -91 2169 -91 
Q 1331 -91 842 396 
Q 353 884 353 1716 
Q 353 2575 817 3079 
Q 1281 3584 2069 3584 
Q 2775 3584 3186 3129 
Q 3597 2675 3597 1894 
z
M 3022 2063 
Q 3016 2534 2758 2815 
Q 2500 3097 2075 3097 
Q 1594 3097 1305 2825 
Q 1016 2553 972 2059 
L 3022 2063 
z
" transform="scale(0.015625)"/>
       <path id="DejaVuSans-73" d="M 2834 3397 
L 2834 2853 
Q 2591 2978 2328 3040 
Q 2066 3103 1784 3103 
Q 1356 3103 1142 2972 
Q 928 2841 928 2578 
Q 928 2378 1081 2264 
Q 1234 2150 1697 2047 
L 1894 2003 
Q 2506 1872 2764 1633 
Q 3022 1394 3022 966 
Q 3022 478 2636 193 
Q 2250 -91 1575 -91 
Q 1294 -91 989 -36 
Q 684 19 347 128 
L 347 722 
Q 666 556 975 473 
Q 1284 391 1588 391 
Q 1994 391 2212 530 
Q 2431 669 2431 922 
Q 2431 1156 2273 1281 
Q 2116 1406 1581 1522 
L 1381 1569 
Q 847 1681 609 1914 
Q 372 2147 372 2553 
Q 372 3047 722 3315 
Q 1072 3584 1716 3584 
Q 2034 3584 2315 3537 
Q 2597 3491 2834 3397 
z
" transform="scale(0.015625)"/>
       <path id="DejaVuSans-69" d="M 603 3500 
L 1178 3500 
L 1178 0 
L 603 0 
L 603 3500 
z
M 603 4863 
L 1178 4863 
L 1178 4134 
L 603 4134 
L 603 4863 
z
" transform="scale(0.015625)"/>
       <path id="DejaVuSans-79" d="M 2059 -325 
Q 1816 -950 1584 -1140 
Q 1353 -1331 966 -1331 
L 506 -1331 
L 506 -850 
L 844 -850 
Q 1081 -850 1212 -737 
Q 1344 -625 1503 -206 
L 1606 56 
L 191 3500 
L 800 3500 
L 1894 763 
L 2988 3500 
L 3597 3500 
L 2059 -325 
z
" transform="scale(0.015625)"/>
      </defs>
      <use xlink:href="#DejaVuSans-49"/>
      <use xlink:href="#DejaVuSans-6e" x="29.492188"/>
      <use xlink:href="#DejaVuSans-74" x="92.871094"/>
      <use xlink:href="#DejaVuSans-65" x="132.080078"/>
      <use xlink:href="#DejaVuSans-6e" x="193.603516"/>
      <use xlink:href="#DejaVuSans-73" x="256.982422"/>
      <use xlink:href="#DejaVuSans-69" x="309.082031"/>
      <use xlink:href="#DejaVuSans-74" x="336.865234"/>
      <use xlink:href="#DejaVuSans-79" x="376.074219"/>
     </g>
    </g>
   </g>
   <g id="LineCollection_1">
    <path d="M 90.005934 99.875786 
L 90.005934 102.04 
" clip-path="url(#p8446db4955)" style="fill: none; stroke: #0000ff; stroke-width: 1.5"/>
    <path d="M 91.412997 101.307168 
L 91.412997 102.04 
" clip-path="url(#p8446db4955)" style="fill: none; stroke: #0000ff; stroke-width: 1.5"/>
    <path d="M 92.219771 100.352728 
L 92.219771 102.04 
" clip-path="url(#p8446db4955)" style="fill: none; stroke: #0000ff; stroke-width: 1.5"/>
    <path d="M 92.704594 101.190702 
L 92.704594 102.04 
" clip-path="url(#p8446db4955)" style="fill: none; stroke: #0000ff; stroke-width: 1.5"/>
    <path d="M 93.603368 100.148004 
L 93.603368 102.04 
" clip-path="url(#p8446db4955)" style="fill: none; stroke: #0000ff; stroke-width: 1.5"/>
    <path d="M 94.436125 99.375448 
L 94.436125 102.04 
" clip-path="url(#p8446db4955)" style="fill: none; stroke: #0000ff; stroke-width: 1.5"/>
    <path d="M 97.056682 101.160502 
L 97.056682 102.04 
" clip-path="url(#p8446db4955)" style="fill: none; stroke: #0000ff; stroke-width: 1.5"/>
    <path d="M 97.753286 101.054219 
L 97.753286 102.04 
" clip-path="url(#p8446db4955)" style="fill: none; stroke: #0000ff; stroke-width: 1.5"/>
    <path d="M 98.119087 101.224105 
L 98.119087 102.04 
" clip-path="url(#p8446db4955)" style="fill: none; stroke: #0000ff; stroke-width: 1.5"/>
    <path d="M 99.550655 100.022891 
L 99.550655 102.04 
" clip-path="url(#p8446db4955)" style="fill: none; stroke: #0000ff; stroke-width: 1.5"/>
    <path d="M 99.829213 90.002718 
L 99.829213 102.04 
" clip-path="url(#p8446db4955)" style="fill: none; stroke: #0000ff; stroke-width: 1.5"/>
    <path d="M 101.908404 100.891137 
L 101.908404 102.04 
" clip-path="url(#p8446db4955)" style="fill: none; stroke: #0000ff; stroke-width: 1.5"/>
    <path d="M 102.312358 97.861852 
L 102.312358 102.04 
" clip-path="url(#p8446db4955)" style="fill: none; stroke: #0000ff; stroke-width: 1.5"/>
    <path d="M 104.667424 101.356608 
L 104.667424 102.04 
" clip-path="url(#p8446db4955)" style="fill: none; stroke: #0000ff; stroke-width: 1.5"/>
    <path d="M 105.781464 99.845001 
L 105.781464 102.04 
" clip-path="url(#p8446db4955)" style="fill: none; stroke: #0000ff; stroke-width: 1.5"/>
    <path d="M 108.448457 101.266288 
L 108.448457 102.04 
" clip-path="url(#p8446db4955)" style="fill: none; stroke: #0000ff; stroke-width: 1.5"/>
    <path d="M 109.373768 98.387122 
L 109.373768 102.04 
" clip-path="url(#p8446db4955)" style="fill: none; stroke: #0000ff; stroke-width: 1.5"/>
    <path d="M 109.408781 101.295185 
L 109.408781 102.04 
" clip-path="url(#p8446db4955)" style="fill: none; stroke: #0000ff; stroke-width: 1.5"/>
    <path d="M 109.652492 94.975121 
L 109.652492 102.04 
" clip-path="url(#p8446db4955)" style="fill: none; stroke: #0000ff; stroke-width: 1.5"/>
    <path d="M 112.007005 100.495078 
L 112.007005 102.04 
" clip-path="url(#p8446db4955)" style="fill: none; stroke: #0000ff; stroke-width: 1.5"/>
    <path d="M 112.135692 94.32386 
L 112.135692 102.04 
" clip-path="url(#p8446db4955)" style="fill: none; stroke: #0000ff; stroke-width: 1.5"/>
    <path d="M 114.082047 101.076474 
L 114.082047 102.04 
" clip-path="url(#p8446db4955)" style="fill: none; stroke: #0000ff; stroke-width: 1.5"/>
    <path d="M 117.949867 99.398932 
L 117.949867 102.04 
" clip-path="url(#p8446db4955)" style="fill: none; stroke: #0000ff; stroke-width: 1.5"/>
    <path d="M 119.197185 97.445703 
L 119.197185 102.04 
" clip-path="url(#p8446db4955)" style="fill: none; stroke: #0000ff; stroke-width: 1.5"/>
    <path d="M 119.475453 100.997639 
L 119.475453 102.04 
" clip-path="url(#p8446db4955)" style="fill: none; stroke: #0000ff; stroke-width: 1.5"/>
    <path d="M 121.437144 101.141672 
L 121.437144 102.04 
" clip-path="url(#p8446db4955)" style="fill: none; stroke: #0000ff; stroke-width: 1.5"/>
    <path d="M 121.615336 100.286667 
L 121.615336 102.04 
" clip-path="url(#p8446db4955)" style="fill: none; stroke: #0000ff; stroke-width: 1.5"/>
    <path d="M 121.958874 96.929125 
L 121.958874 102.04 
" clip-path="url(#p8446db4955)" style="fill: none; stroke: #0000ff; stroke-width: 1.5"/>
    <path d="M 127.774031 100.729957 
L 127.774031 102.04 
" clip-path="url(#p8446db4955)" style="fill: none; stroke: #0000ff; stroke-width: 1.5"/>
    <path d="M 127.910959 99.561356 
L 127.910959 102.04 
" clip-path="url(#p8446db4955)" style="fill: none; stroke: #0000ff; stroke-width: 1.5"/>
    <path d="M 129.020547 99.779467 
L 129.020547 102.04 
" clip-path="url(#p8446db4955)" style="fill: none; stroke: #0000ff; stroke-width: 1.5"/>
    <path d="M 129.433365 100.74153 
L 129.433365 102.04 
" clip-path="url(#p8446db4955)" style="fill: none; stroke: #0000ff; stroke-width: 1.5"/>
    <path d="M 129.439809 101.04051 
L 129.439809 102.04 
" clip-path="url(#p8446db4955)" style="fill: none; stroke: #0000ff; stroke-width: 1.5"/>
    <path d="M 129.720386 97.633206 
L 129.720386 102.04 
" clip-path="url(#p8446db4955)" style="fill: none; stroke: #0000ff; stroke-width: 1.5"/>
    <path d="M 131.782277 93.570836 
L 131.782277 102.04 
" clip-path="url(#p8446db4955)" style="fill: none; stroke: #0000ff; stroke-width: 1.5"/>
    <path d="M 131.922815 100.742452 
L 131.922815 102.04 
" clip-path="url(#p8446db4955)" style="fill: none; stroke: #0000ff; stroke-width: 1.5"/>
    <path d="M 133.439841 101.249388 
L 133.439841 102.04 
" clip-path="url(#p8446db4955)" style="fill: none; stroke: #0000ff; stroke-width: 1.5"/>
    <path d="M 134.835524 101.144934 
L 134.835524 102.04 
" clip-path="url(#p8446db4955)" style="fill: none; stroke: #0000ff; stroke-width: 1.5"/>
    <path d="M 135.112824 101.029492 
L 135.112824 102.04 
" clip-path="url(#p8446db4955)" style="fill: none; stroke: #0000ff; stroke-width: 1.5"/>
    <path d="M 135.379476 100.659477 
L 135.379476 102.04 
" clip-path="url(#p8446db4955)" style="fill: none; stroke: #0000ff; stroke-width: 1.5"/>
    <path d="M 137.595899 99.775004 
L 137.595899 102.04 
" clip-path="url(#p8446db4955)" style="fill: none; stroke: #0000ff; stroke-width: 1.5"/>
    <path d="M 137.735123 100.018852 
L 137.735123 102.04 
" clip-path="url(#p8446db4955)" style="fill: none; stroke: #0000ff; stroke-width: 1.5"/>
    <path d="M 138.086751 100.175965 
L 138.086751 102.04 
" clip-path="url(#p8446db4955)" style="fill: none; stroke: #0000ff; stroke-width: 1.5"/>
    <path d="M 138.156501 101.066861 
L 138.156501 102.04 
" clip-path="url(#p8446db4955)" style="fill: none; stroke: #0000ff; stroke-width: 1.5"/>
    <path d="M 138.796948 101.107902 
L 138.796948 102.04 
" clip-path="url(#p8446db4955)" style="fill: none; stroke: #0000ff; stroke-width: 1.5"/>
    <path d="M 139.256201 101.268351 
L 139.256201 102.04 
" clip-path="url(#p8446db4955)" style="fill: none; stroke: #0000ff; stroke-width: 1.5"/>
    <path d="M 141.605252 94.744397 
L 141.605252 102.04 
" clip-path="url(#p8446db4955)" style="fill: none; stroke: #0000ff; stroke-width: 1.5"/>
    <path d="M 143.265858 100.59422 
L 143.265858 102.04 
" clip-path="url(#p8446db4955)" style="fill: none; stroke: #0000ff; stroke-width: 1.5"/>
    <path d="M 143.548358 100.528115 
L 143.548358 102.04 
" clip-path="url(#p8446db4955)" style="fill: none; stroke: #0000ff; stroke-width: 1.5"/>
    <path d="M 145.075175 101.009754 
L 145.075175 102.04 
" clip-path="url(#p8446db4955)" style="fill: none; stroke: #0000ff; stroke-width: 1.5"/>
    <path d="M 145.627147 101.040115 
L 145.627147 102.04 
" clip-path="url(#p8446db4955)" style="fill: none; stroke: #0000ff; stroke-width: 1.5"/>
    <path d="M 147.419939 98.53449 
L 147.419939 102.04 
" clip-path="url(#p8446db4955)" style="fill: none; stroke: #0000ff; stroke-width: 1.5"/>
    <path d="M 149.086339 101.16119 
L 149.086339 102.04 
" clip-path="url(#p8446db4955)" style="fill: none; stroke: #0000ff; stroke-width: 1.5"/>
    <path d="M 153.371969 100.295987 
L 153.371969 102.04 
" clip-path="url(#p8446db4955)" style="fill: none; stroke: #0000ff; stroke-width: 1.5"/>
    <path d="M 155.580164 101.185347 
L 155.580164 102.04 
" clip-path="url(#p8446db4955)" style="fill: none; stroke: #0000ff; stroke-width: 1.5"/>
    <path d="M 155.587604 101.404687 
L 155.587604 102.04 
" clip-path="url(#p8446db4955)" style="fill: none; stroke: #0000ff; stroke-width: 1.5"/>
    <path d="M 157.242582 98.759727 
L 157.242582 102.04 
" clip-path="url(#p8446db4955)" style="fill: none; stroke: #0000ff; stroke-width: 1.5"/>
    <path d="M 158.902068 100.409001 
L 158.902068 102.04 
" clip-path="url(#p8446db4955)" style="fill: none; stroke: #0000ff; stroke-width: 1.5"/>
    <path d="M 161.393952 100.699143 
L 161.393952 102.04 
" clip-path="url(#p8446db4955)" style="fill: none; stroke: #0000ff; stroke-width: 1.5"/>
    <path d="M 164.99104 101.036135 
L 164.99104 102.04 
" clip-path="url(#p8446db4955)" style="fill: none; stroke: #0000ff; stroke-width: 1.5"/>
    <path d="M 168.725928 100.02112 
L 168.725928 102.04 
" clip-path="url(#p8446db4955)" style="fill: none; stroke: #0000ff; stroke-width: 1.5"/>
    <path d="M 171.216498 99.636591 
L 171.216498 102.04 
" clip-path="url(#p8446db4955)" style="fill: none; stroke: #0000ff; stroke-width: 1.5"/>
    <path d="M 184.508137 99.275749 
L 184.508137 102.04 
" clip-path="url(#p8446db4955)" style="fill: none; stroke: #0000ff; stroke-width: 1.5"/>
    <path d="M 188.45482 101.006623 
L 188.45482 102.04 
" clip-path="url(#p8446db4955)" style="fill: none; stroke: #0000ff; stroke-width: 1.5"/>
    <path d="M 188.52392 65.483416 
L 188.52392 102.04 
" clip-path="url(#p8446db4955)" style="fill: none; stroke: #0000ff; stroke-width: 1.5"/>
    <path d="M 188.663075 93.561604 
L 188.663075 102.04 
" clip-path="url(#p8446db4955)" style="fill: none; stroke: #0000ff; stroke-width: 1.5"/>
    <path d="M 192.393454 97.740732 
L 192.393454 102.04 
" clip-path="url(#p8446db4955)" style="fill: none; stroke: #0000ff; stroke-width: 1.5"/>
    <path d="M 197.778964 101.101654 
L 197.778964 102.04 
" clip-path="url(#p8446db4955)" style="fill: none; stroke: #0000ff; stroke-width: 1.5"/>
    <path d="M 199.444714 101.073533 
L 199.444714 102.04 
" clip-path="url(#p8446db4955)" style="fill: none; stroke: #0000ff; stroke-width: 1.5"/>
    <path d="M 203.462198 100.058153 
L 203.462198 102.04 
" clip-path="url(#p8446db4955)" style="fill: none; stroke: #0000ff; stroke-width: 1.5"/>
    <path d="M 205.814803 20.240566 
L 205.814803 102.04 
" clip-path="url(#p8446db4955)" style="fill: none; stroke: #0000ff; stroke-width: 1.5"/>
    <path d="M 205.95346 70.324531 
L 205.95346 102.04 
" clip-path="url(#p8446db4955)" style="fill: none; stroke: #0000ff; stroke-width: 1.5"/>
    <path d="M 213.701102 99.959668 
L 213.701102 102.04 
" clip-path="url(#p8446db4955)" style="fill: none; stroke: #0000ff; stroke-width: 1.5"/>
    <path d="M 213.838736 100.639154 
L 213.838736 102.04 
" clip-path="url(#p8446db4955)" style="fill: none; stroke: #0000ff; stroke-width: 1.5"/>
    <path d="M 217.89281 101.072626 
L 217.89281 102.04 
" clip-path="url(#p8446db4955)" style="fill: none; stroke: #0000ff; stroke-width: 1.5"/>
    <path d="M 219.788097 75.724129 
L 219.788097 102.04 
" clip-path="url(#p8446db4955)" style="fill: none; stroke: #0000ff; stroke-width: 1.5"/>
    <path d="M 219.926878 90.401996 
L 219.926878 102.04 
" clip-path="url(#p8446db4955)" style="fill: none; stroke: #0000ff; stroke-width: 1.5"/>
    <path d="M 228.282056 101.14751 
L 228.282056 102.04 
" clip-path="url(#p8446db4955)" style="fill: none; stroke: #0000ff; stroke-width: 1.5"/>
    <path d="M 235.426007 86.397933 
L 235.426007 102.04 
" clip-path="url(#p8446db4955)" style="fill: none; stroke: #0000ff; stroke-width: 1.5"/>
    <path d="M 235.563876 94.674649 
L 235.563876 102.04 
" clip-path="url(#p8446db4955)" style="fill: none; stroke: #0000ff; stroke-width: 1.5"/>
    <path d="M 245.249314 89.891533 
L 245.249314 102.04 
" clip-path="url(#p8446db4955)" style="fill: none; stroke: #0000ff; stroke-width: 1.5"/>
    <path d="M 245.387708 95.870684 
L 245.387708 102.04 
" clip-path="url(#p8446db4955)" style="fill: none; stroke: #0000ff; stroke-width: 1.5"/>
    <path d="M 262.452553 101.23066 
L 262.452553 102.04 
" clip-path="url(#p8446db4955)" style="fill: none; stroke: #0000ff; stroke-width: 1.5"/>
    <path d="M 263.221078 100.789126 
L 263.221078 102.04 
" clip-path="url(#p8446db4955)" style="fill: none; stroke: #0000ff; stroke-width: 1.5"/>
    <path d="M 267.378353 94.519409 
L 267.378353 102.04 
" clip-path="url(#p8446db4955)" style="fill: none; stroke: #0000ff; stroke-width: 1.5"/>
    <path d="M 267.517508 96.093214 
L 267.517508 102.04 
" clip-path="url(#p8446db4955)" style="fill: none; stroke: #0000ff; stroke-width: 1.5"/>
    <path d="M 277.2 100.296177 
L 277.2 102.04 
" clip-path="url(#p8446db4955)" style="fill: none; stroke: #0000ff; stroke-width: 1.5"/>
   </g>
   <g id="patch_3">
    <path d="M 70.22 102.04 
L 70.22 12.060623 
" style="fill: none; stroke: #000000; stroke-width: 0.8; stroke-linejoin: miter; stroke-linecap: square"/>
   </g>
   <g id="patch_4">
    <path d="M 277.2 102.04 
L 277.2 12.060623 
" style="fill: none; stroke: #000000; stroke-width: 0.8; stroke-linejoin: miter; stroke-linecap: square"/>
   </g>
   <g id="patch_5">
    <path d="M 70.22 102.04 
L 277.2 102.04 
" style="fill: none; stroke: #000000; stroke-width: 0.8; stroke-linejoin: miter; stroke-linecap: square"/>
   </g>
   <g id="patch_6">
    <path d="M 70.22 12.060623 
L 277.2 12.060623 
" style="fill: none; stroke: #000000; stroke-width: 0.8; stroke-linejoin: miter; stroke-linecap: square"/>
   </g>
  </g>
 </g>
 <defs>
  <clipPath id="p8446db4955">
   <rect x="70.22" y="12.060623" width="206.98" height="89.979377"/>
  </clipPath>
 </defs>
</svg>
