<?xml version="1.0" encoding="utf-8" standalone="no"?>
<!DOCTYPE svg PUBLIC "-//W3C//DTD SVG 1.1//EN"
  "http://www.w3.org/Graphics/SVG/1.1/DTD/svg11.dtd">
<!-- Created with matplotlib (https://matplotlib.org/) -->
<svg height="144pt" version="1.1" viewBox="0 0 288 144" width="288pt" xmlns="http://www.w3.org/2000/svg" xmlns:xlink="http://www.w3.org/1999/xlink">
 <metadata>
  <rdf:RDF xmlns:cc="http://creativecommons.org/ns#" xmlns:dc="http://purl.org/dc/elements/1.1/" xmlns:rdf="http://www.w3.org/1999/02/22-rdf-syntax-ns#">
   <cc:Work>
    <dc:type rdf:resource="http://purl.org/dc/dcmitype/StillImage"/>
    <dc:date>2021-08-26T15:00:46.739775</dc:date>
    <dc:format>image/svg+xml</dc:format>
    <dc:creator>
     <cc:Agent>
      <dc:title>Matplotlib v3.3.2, https://matplotlib.org/</dc:title>
     </cc:Agent>
    </dc:creator>
   </cc:Work>
  </rdf:RDF>
 </metadata>
 <defs>
  <style type="text/css">*{stroke-linecap:butt;stroke-linejoin:round;}</style>
 </defs>
 <g id="figure_1">
  <g id="patch_1">
   <path d="M 0 144 
L 288 144 
L 288 0 
L 0 0 
z
" style="fill:none;"/>
  </g>
  <g id="axes_1">
   <g id="patch_2">
    <path d="M 50.925 102.2 
L 264.45 102.2 
L 264.45 10.8 
L 50.925 10.8 
z
" style="fill:#ffffff;"/>
   </g>
   <g id="matplotlib.axis_1">
    <g id="xtick_1">
     <g id="line2d_1">
      <defs>
       <path d="M 0 0 
L 0 3.5 
" id="mf773bdd74e" style="stroke:#000000;stroke-width:0.8;"/>
      </defs>
      <g>
       <use style="stroke:#000000;stroke-width:0.8;" x="50.925" xlink:href="#mf773bdd74e" y="102.2"/>
      </g>
     </g>
     <g id="text_1">
      <!-- 0 -->
      <g transform="translate(47.74375 116.798437)scale(0.1 -0.1)">
       <defs>
        <path d="M 31.78125 66.40625 
Q 24.171875 66.40625 20.328125 58.90625 
Q 16.5 51.421875 16.5 36.375 
Q 16.5 21.390625 20.328125 13.890625 
Q 24.171875 6.390625 31.78125 6.390625 
Q 39.453125 6.390625 43.28125 13.890625 
Q 47.125 21.390625 47.125 36.375 
Q 47.125 51.421875 43.28125 58.90625 
Q 39.453125 66.40625 31.78125 66.40625 
z
M 31.78125 74.21875 
Q 44.046875 74.21875 50.515625 64.515625 
Q 56.984375 54.828125 56.984375 36.375 
Q 56.984375 17.96875 50.515625 8.265625 
Q 44.046875 -1.421875 31.78125 -1.421875 
Q 19.53125 -1.421875 13.0625 8.265625 
Q 6.59375 17.96875 6.59375 36.375 
Q 6.59375 54.828125 13.0625 64.515625 
Q 19.53125 74.21875 31.78125 74.21875 
z
" id="DejaVuSans-48"/>
       </defs>
       <use xlink:href="#DejaVuSans-48"/>
      </g>
     </g>
    </g>
    <g id="xtick_2">
     <g id="line2d_2">
      <g>
       <use style="stroke:#000000;stroke-width:0.8;" x="104.30625" xlink:href="#mf773bdd74e" y="102.2"/>
      </g>
     </g>
     <g id="text_2">
      <!-- 500 -->
      <g transform="translate(94.7625 116.798437)scale(0.1 -0.1)">
       <defs>
        <path d="M 10.796875 72.90625 
L 49.515625 72.90625 
L 49.515625 64.59375 
L 19.828125 64.59375 
L 19.828125 46.734375 
Q 21.96875 47.46875 24.109375 47.828125 
Q 26.265625 48.1875 28.421875 48.1875 
Q 40.625 48.1875 47.75 41.5 
Q 54.890625 34.8125 54.890625 23.390625 
Q 54.890625 11.625 47.5625 5.09375 
Q 40.234375 -1.421875 26.90625 -1.421875 
Q 22.3125 -1.421875 17.546875 -0.640625 
Q 12.796875 0.140625 7.71875 1.703125 
L 7.71875 11.625 
Q 12.109375 9.234375 16.796875 8.0625 
Q 21.484375 6.890625 26.703125 6.890625 
Q 35.15625 6.890625 40.078125 11.328125 
Q 45.015625 15.765625 45.015625 23.390625 
Q 45.015625 31 40.078125 35.4375 
Q 35.15625 39.890625 26.703125 39.890625 
Q 22.75 39.890625 18.8125 39.015625 
Q 14.890625 38.140625 10.796875 36.28125 
z
" id="DejaVuSans-53"/>
       </defs>
       <use xlink:href="#DejaVuSans-53"/>
       <use x="63.623047" xlink:href="#DejaVuSans-48"/>
       <use x="127.246094" xlink:href="#DejaVuSans-48"/>
      </g>
     </g>
    </g>
    <g id="xtick_3">
     <g id="line2d_3">
      <g>
       <use style="stroke:#000000;stroke-width:0.8;" x="157.6875" xlink:href="#mf773bdd74e" y="102.2"/>
      </g>
     </g>
     <g id="text_3">
      <!-- 1000 -->
      <g transform="translate(144.9625 116.798437)scale(0.1 -0.1)">
       <defs>
        <path d="M 12.40625 8.296875 
L 28.515625 8.296875 
L 28.515625 63.921875 
L 10.984375 60.40625 
L 10.984375 69.390625 
L 28.421875 72.90625 
L 38.28125 72.90625 
L 38.28125 8.296875 
L 54.390625 8.296875 
L 54.390625 0 
L 12.40625 0 
z
" id="DejaVuSans-49"/>
       </defs>
       <use xlink:href="#DejaVuSans-49"/>
       <use x="63.623047" xlink:href="#DejaVuSans-48"/>
       <use x="127.246094" xlink:href="#DejaVuSans-48"/>
       <use x="190.869141" xlink:href="#DejaVuSans-48"/>
      </g>
     </g>
    </g>
    <g id="xtick_4">
     <g id="line2d_4">
      <g>
       <use style="stroke:#000000;stroke-width:0.8;" x="211.06875" xlink:href="#mf773bdd74e" y="102.2"/>
      </g>
     </g>
     <g id="text_4">
      <!-- 1500 -->
      <g transform="translate(198.34375 116.798437)scale(0.1 -0.1)">
       <use xlink:href="#DejaVuSans-49"/>
       <use x="63.623047" xlink:href="#DejaVuSans-53"/>
       <use x="127.246094" xlink:href="#DejaVuSans-48"/>
       <use x="190.869141" xlink:href="#DejaVuSans-48"/>
      </g>
     </g>
    </g>
    <g id="xtick_5">
     <g id="line2d_5">
      <g>
       <use style="stroke:#000000;stroke-width:0.8;" x="264.45" xlink:href="#mf773bdd74e" y="102.2"/>
      </g>
     </g>
     <g id="text_5">
      <!-- 2000 -->
      <g transform="translate(251.725 116.798437)scale(0.1 -0.1)">
       <defs>
        <path d="M 19.1875 8.296875 
L 53.609375 8.296875 
L 53.609375 0 
L 7.328125 0 
L 7.328125 8.296875 
Q 12.9375 14.109375 22.625 23.890625 
Q 32.328125 33.6875 34.8125 36.53125 
Q 39.546875 41.84375 41.421875 45.53125 
Q 43.3125 49.21875 43.3125 52.78125 
Q 43.3125 58.59375 39.234375 62.25 
Q 35.15625 65.921875 28.609375 65.921875 
Q 23.96875 65.921875 18.8125 64.3125 
Q 13.671875 62.703125 7.8125 59.421875 
L 7.8125 69.390625 
Q 13.765625 71.78125 18.9375 73 
Q 24.125 74.21875 28.421875 74.21875 
Q 39.75 74.21875 46.484375 68.546875 
Q 53.21875 62.890625 53.21875 53.421875 
Q 53.21875 48.921875 51.53125 44.890625 
Q 49.859375 40.875 45.40625 35.40625 
Q 44.1875 33.984375 37.640625 27.21875 
Q 31.109375 20.453125 19.1875 8.296875 
z
" id="DejaVuSans-50"/>
       </defs>
       <use xlink:href="#DejaVuSans-50"/>
       <use x="63.623047" xlink:href="#DejaVuSans-48"/>
       <use x="127.246094" xlink:href="#DejaVuSans-48"/>
       <use x="190.869141" xlink:href="#DejaVuSans-48"/>
      </g>
     </g>
    </g>
    <g id="text_6">
     <!-- m/z -->
     <g transform="translate(148.508594 130.476562)scale(0.1 -0.1)">
      <defs>
       <path d="M 52 44.1875 
Q 55.375 50.25 60.0625 53.125 
Q 64.75 56 71.09375 56 
Q 79.640625 56 84.28125 50.015625 
Q 88.921875 44.046875 88.921875 33.015625 
L 88.921875 0 
L 79.890625 0 
L 79.890625 32.71875 
Q 79.890625 40.578125 77.09375 44.375 
Q 74.3125 48.1875 68.609375 48.1875 
Q 61.625 48.1875 57.5625 43.546875 
Q 53.515625 38.921875 53.515625 30.90625 
L 53.515625 0 
L 44.484375 0 
L 44.484375 32.71875 
Q 44.484375 40.625 41.703125 44.40625 
Q 38.921875 48.1875 33.109375 48.1875 
Q 26.21875 48.1875 22.15625 43.53125 
Q 18.109375 38.875 18.109375 30.90625 
L 18.109375 0 
L 9.078125 0 
L 9.078125 54.6875 
L 18.109375 54.6875 
L 18.109375 46.1875 
Q 21.1875 51.21875 25.484375 53.609375 
Q 29.78125 56 35.6875 56 
Q 41.65625 56 45.828125 52.96875 
Q 50 49.953125 52 44.1875 
z
" id="DejaVuSans-109"/>
       <path d="M 25.390625 72.90625 
L 33.6875 72.90625 
L 8.296875 -9.28125 
L 0 -9.28125 
z
" id="DejaVuSans-47"/>
       <path d="M 5.515625 54.6875 
L 48.1875 54.6875 
L 48.1875 46.484375 
L 14.40625 7.171875 
L 48.1875 7.171875 
L 48.1875 0 
L 4.296875 0 
L 4.296875 8.203125 
L 38.09375 47.515625 
L 5.515625 47.515625 
z
" id="DejaVuSans-122"/>
      </defs>
      <use xlink:href="#DejaVuSans-109"/>
      <use x="97.412109" xlink:href="#DejaVuSans-47"/>
      <use x="131.103516" xlink:href="#DejaVuSans-122"/>
     </g>
    </g>
   </g>
   <g id="matplotlib.axis_2">
    <g id="ytick_1">
     <g id="line2d_6">
      <defs>
       <path d="M 0 0 
L -3.5 0 
" id="m9841e7d124" style="stroke:#000000;stroke-width:0.8;"/>
      </defs>
      <g>
       <use style="stroke:#000000;stroke-width:0.8;" x="50.925" xlink:href="#m9841e7d124" y="102.2"/>
      </g>
     </g>
     <g id="text_7">
      <!-- 0 -->
      <g transform="translate(37.5625 105.999219)scale(0.1 -0.1)">
       <use xlink:href="#DejaVuSans-48"/>
      </g>
     </g>
    </g>
    <g id="ytick_2">
     <g id="line2d_7">
      <g>
       <use style="stroke:#000000;stroke-width:0.8;" x="50.925" xlink:href="#m9841e7d124" y="79.327127"/>
      </g>
     </g>
     <g id="text_8">
      <!-- 250 -->
      <g transform="translate(24.8375 83.126345)scale(0.1 -0.1)">
       <use xlink:href="#DejaVuSans-50"/>
       <use x="63.623047" xlink:href="#DejaVuSans-53"/>
       <use x="127.246094" xlink:href="#DejaVuSans-48"/>
      </g>
     </g>
    </g>
    <g id="ytick_3">
     <g id="line2d_8">
      <g>
       <use style="stroke:#000000;stroke-width:0.8;" x="50.925" xlink:href="#m9841e7d124" y="56.454253"/>
      </g>
     </g>
     <g id="text_9">
      <!-- 500 -->
      <g transform="translate(24.8375 60.253472)scale(0.1 -0.1)">
       <use xlink:href="#DejaVuSans-53"/>
       <use x="63.623047" xlink:href="#DejaVuSans-48"/>
       <use x="127.246094" xlink:href="#DejaVuSans-48"/>
      </g>
     </g>
    </g>
    <g id="ytick_4">
     <g id="line2d_9">
      <g>
       <use style="stroke:#000000;stroke-width:0.8;" x="50.925" xlink:href="#m9841e7d124" y="33.58138"/>
      </g>
     </g>
     <g id="text_10">
      <!-- 750 -->
      <g transform="translate(24.8375 37.380599)scale(0.1 -0.1)">
       <defs>
        <path d="M 8.203125 72.90625 
L 55.078125 72.90625 
L 55.078125 68.703125 
L 28.609375 0 
L 18.3125 0 
L 43.21875 64.59375 
L 8.203125 64.59375 
z
" id="DejaVuSans-55"/>
       </defs>
       <use xlink:href="#DejaVuSans-55"/>
       <use x="63.623047" xlink:href="#DejaVuSans-53"/>
       <use x="127.246094" xlink:href="#DejaVuSans-48"/>
      </g>
     </g>
    </g>
    <g id="text_11">
     <!-- Intensity -->
     <g transform="translate(18.757812 78.2625)rotate(-90)scale(0.1 -0.1)">
      <defs>
       <path d="M 9.8125 72.90625 
L 19.671875 72.90625 
L 19.671875 0 
L 9.8125 0 
z
" id="DejaVuSans-73"/>
       <path d="M 54.890625 33.015625 
L 54.890625 0 
L 45.90625 0 
L 45.90625 32.71875 
Q 45.90625 40.484375 42.875 44.328125 
Q 39.84375 48.1875 33.796875 48.1875 
Q 26.515625 48.1875 22.3125 43.546875 
Q 18.109375 38.921875 18.109375 30.90625 
L 18.109375 0 
L 9.078125 0 
L 9.078125 54.6875 
L 18.109375 54.6875 
L 18.109375 46.1875 
Q 21.34375 51.125 25.703125 53.5625 
Q 30.078125 56 35.796875 56 
Q 45.21875 56 50.046875 50.171875 
Q 54.890625 44.34375 54.890625 33.015625 
z
" id="DejaVuSans-110"/>
       <path d="M 18.3125 70.21875 
L 18.3125 54.6875 
L 36.8125 54.6875 
L 36.8125 47.703125 
L 18.3125 47.703125 
L 18.3125 18.015625 
Q 18.3125 11.328125 20.140625 9.421875 
Q 21.96875 7.515625 27.59375 7.515625 
L 36.8125 7.515625 
L 36.8125 0 
L 27.59375 0 
Q 17.1875 0 13.234375 3.875 
Q 9.28125 7.765625 9.28125 18.015625 
L 9.28125 47.703125 
L 2.6875 47.703125 
L 2.6875 54.6875 
L 9.28125 54.6875 
L 9.28125 70.21875 
z
" id="DejaVuSans-116"/>
       <path d="M 56.203125 29.59375 
L 56.203125 25.203125 
L 14.890625 25.203125 
Q 15.484375 15.921875 20.484375 11.0625 
Q 25.484375 6.203125 34.421875 6.203125 
Q 39.59375 6.203125 44.453125 7.46875 
Q 49.3125 8.734375 54.109375 11.28125 
L 54.109375 2.78125 
Q 49.265625 0.734375 44.1875 -0.34375 
Q 39.109375 -1.421875 33.890625 -1.421875 
Q 20.796875 -1.421875 13.15625 6.1875 
Q 5.515625 13.8125 5.515625 26.8125 
Q 5.515625 40.234375 12.765625 48.109375 
Q 20.015625 56 32.328125 56 
Q 43.359375 56 49.78125 48.890625 
Q 56.203125 41.796875 56.203125 29.59375 
z
M 47.21875 32.234375 
Q 47.125 39.59375 43.09375 43.984375 
Q 39.0625 48.390625 32.421875 48.390625 
Q 24.90625 48.390625 20.390625 44.140625 
Q 15.875 39.890625 15.1875 32.171875 
z
" id="DejaVuSans-101"/>
       <path d="M 44.28125 53.078125 
L 44.28125 44.578125 
Q 40.484375 46.53125 36.375 47.5 
Q 32.28125 48.484375 27.875 48.484375 
Q 21.1875 48.484375 17.84375 46.4375 
Q 14.5 44.390625 14.5 40.28125 
Q 14.5 37.15625 16.890625 35.375 
Q 19.28125 33.59375 26.515625 31.984375 
L 29.59375 31.296875 
Q 39.15625 29.25 43.1875 25.515625 
Q 47.21875 21.78125 47.21875 15.09375 
Q 47.21875 7.46875 41.1875 3.015625 
Q 35.15625 -1.421875 24.609375 -1.421875 
Q 20.21875 -1.421875 15.453125 -0.5625 
Q 10.6875 0.296875 5.421875 2 
L 5.421875 11.28125 
Q 10.40625 8.6875 15.234375 7.390625 
Q 20.0625 6.109375 24.8125 6.109375 
Q 31.15625 6.109375 34.5625 8.28125 
Q 37.984375 10.453125 37.984375 14.40625 
Q 37.984375 18.0625 35.515625 20.015625 
Q 33.0625 21.96875 24.703125 23.78125 
L 21.578125 24.515625 
Q 13.234375 26.265625 9.515625 29.90625 
Q 5.8125 33.546875 5.8125 39.890625 
Q 5.8125 47.609375 11.28125 51.796875 
Q 16.75 56 26.8125 56 
Q 31.78125 56 36.171875 55.265625 
Q 40.578125 54.546875 44.28125 53.078125 
z
" id="DejaVuSans-115"/>
       <path d="M 9.421875 54.6875 
L 18.40625 54.6875 
L 18.40625 0 
L 9.421875 0 
z
M 9.421875 75.984375 
L 18.40625 75.984375 
L 18.40625 64.59375 
L 9.421875 64.59375 
z
" id="DejaVuSans-105"/>
       <path d="M 32.171875 -5.078125 
Q 28.375 -14.84375 24.75 -17.8125 
Q 21.140625 -20.796875 15.09375 -20.796875 
L 7.90625 -20.796875 
L 7.90625 -13.28125 
L 13.1875 -13.28125 
Q 16.890625 -13.28125 18.9375 -11.515625 
Q 21 -9.765625 23.484375 -3.21875 
L 25.09375 0.875 
L 2.984375 54.6875 
L 12.5 54.6875 
L 29.59375 11.921875 
L 46.6875 54.6875 
L 56.203125 54.6875 
z
" id="DejaVuSans-121"/>
      </defs>
      <use xlink:href="#DejaVuSans-73"/>
      <use x="29.492188" xlink:href="#DejaVuSans-110"/>
      <use x="92.871094" xlink:href="#DejaVuSans-116"/>
      <use x="132.080078" xlink:href="#DejaVuSans-101"/>
      <use x="193.603516" xlink:href="#DejaVuSans-110"/>
      <use x="256.982422" xlink:href="#DejaVuSans-115"/>
      <use x="309.082031" xlink:href="#DejaVuSans-105"/>
      <use x="336.865234" xlink:href="#DejaVuSans-116"/>
      <use x="376.074219" xlink:href="#DejaVuSans-121"/>
     </g>
    </g>
   </g>
   <g id="LineCollection_1">
    <path clip-path="url(#p705d30d2b7)" d="M 61.718689 101.727827 
L 61.718689 102.2 
" style="fill:none;stroke:#0000ff;"/>
    <path clip-path="url(#p705d30d2b7)" d="M 62.679551 99.838423 
L 62.679551 102.2 
" style="fill:none;stroke:#0000ff;"/>
    <path clip-path="url(#p705d30d2b7)" d="M 63.213364 98.055612 
L 63.213364 102.2 
" style="fill:none;stroke:#0000ff;"/>
    <path clip-path="url(#p705d30d2b7)" d="M 63.747176 98.268064 
L 63.747176 102.2 
" style="fill:none;stroke:#0000ff;"/>
    <path clip-path="url(#p705d30d2b7)" d="M 64.708039 97.258513 
L 64.708039 102.2 
" style="fill:none;stroke:#0000ff;"/>
    <path clip-path="url(#p705d30d2b7)" d="M 65.124413 94.754553 
L 65.124413 102.2 
" style="fill:none;stroke:#0000ff;"/>
    <path clip-path="url(#p705d30d2b7)" d="M 65.455376 97.36041 
L 65.455376 102.2 
" style="fill:none;stroke:#0000ff;"/>
    <path clip-path="url(#p705d30d2b7)" d="M 66.202714 89.445682 
L 66.202714 102.2 
" style="fill:none;stroke:#0000ff;"/>
    <path clip-path="url(#p705d30d2b7)" d="M 66.629764 100.422267 
L 66.629764 102.2 
" style="fill:none;stroke:#0000ff;"/>
    <path clip-path="url(#p705d30d2b7)" d="M 67.483864 99.314607 
L 67.483864 102.2 
" style="fill:none;stroke:#0000ff;"/>
    <path clip-path="url(#p705d30d2b7)" d="M 67.697389 101.303584 
L 67.697389 102.2 
" style="fill:none;stroke:#0000ff;"/>
    <path clip-path="url(#p705d30d2b7)" d="M 68.978539 94.064274 
L 68.978539 102.2 
" style="fill:none;stroke:#0000ff;"/>
    <path clip-path="url(#p705d30d2b7)" d="M 69.619114 89.98708 
L 69.619114 102.2 
" style="fill:none;stroke:#0000ff;"/>
    <path clip-path="url(#p705d30d2b7)" d="M 70.473214 99.561527 
L 70.473214 102.2 
" style="fill:none;stroke:#0000ff;"/>
    <path clip-path="url(#p705d30d2b7)" d="M 70.686739 100.883908 
L 70.686739 102.2 
" style="fill:none;stroke:#0000ff;"/>
    <path clip-path="url(#p705d30d2b7)" d="M 70.900264 101.261129 
L 70.900264 102.2 
" style="fill:none;stroke:#0000ff;"/>
    <path clip-path="url(#p705d30d2b7)" d="M 71.967889 100.652745 
L 71.967889 102.2 
" style="fill:none;stroke:#0000ff;"/>
    <path clip-path="url(#p705d30d2b7)" d="M 72.394939 100.816146 
L 72.394939 102.2 
" style="fill:none;stroke:#0000ff;"/>
    <path clip-path="url(#p705d30d2b7)" d="M 72.715226 98.498997 
L 72.715226 102.2 
" style="fill:none;stroke:#0000ff;"/>
    <path clip-path="url(#p705d30d2b7)" d="M 73.782851 73.333117 
L 73.782851 102.2 
" style="fill:none;stroke:#0000ff;"/>
    <path clip-path="url(#p705d30d2b7)" d="M 73.889614 99.003463 
L 73.889614 102.2 
" style="fill:none;stroke:#0000ff;"/>
    <path clip-path="url(#p705d30d2b7)" d="M 75.064001 100.62877 
L 75.064001 102.2 
" style="fill:none;stroke:#0000ff;"/>
    <path clip-path="url(#p705d30d2b7)" d="M 75.704576 88.240881 
L 75.704576 102.2 
" style="fill:none;stroke:#0000ff;"/>
    <path clip-path="url(#p705d30d2b7)" d="M 76.558676 99.609137 
L 76.558676 102.2 
" style="fill:none;stroke:#0000ff;"/>
    <path clip-path="url(#p705d30d2b7)" d="M 77.209928 100.401498 
L 77.209928 102.2 
" style="fill:none;stroke:#0000ff;"/>
    <path clip-path="url(#p705d30d2b7)" d="M 77.839826 101.858978 
L 77.839826 102.2 
" style="fill:none;stroke:#0000ff;"/>
    <path clip-path="url(#p705d30d2b7)" d="M 78.384315 97.432325 
L 78.384315 102.2 
" style="fill:none;stroke:#0000ff;"/>
    <path clip-path="url(#p705d30d2b7)" d="M 79.558703 101.092692 
L 79.558703 102.2 
" style="fill:none;stroke:#0000ff;"/>
    <path clip-path="url(#p705d30d2b7)" d="M 81.053378 102.039834 
L 81.053378 102.2 
" style="fill:none;stroke:#0000ff;"/>
    <path clip-path="url(#p705d30d2b7)" d="M 81.149464 101.682754 
L 81.149464 102.2 
" style="fill:none;stroke:#0000ff;"/>
    <path clip-path="url(#p705d30d2b7)" d="M 81.373665 88.174617 
L 81.373665 102.2 
" style="fill:none;stroke:#0000ff;"/>
    <path clip-path="url(#p705d30d2b7)" d="M 81.480428 101.198519 
L 81.480428 102.2 
" style="fill:none;stroke:#0000ff;"/>
    <path clip-path="url(#p705d30d2b7)" d="M 82.654815 102.067311 
L 82.654815 102.2 
" style="fill:none;stroke:#0000ff;"/>
    <path clip-path="url(#p705d30d2b7)" d="M 82.975103 102.037207 
L 82.975103 102.2 
" style="fill:none;stroke:#0000ff;"/>
    <path clip-path="url(#p705d30d2b7)" d="M 83.284714 94.163805 
L 83.284714 102.2 
" style="fill:none;stroke:#0000ff;"/>
    <path clip-path="url(#p705d30d2b7)" d="M 84.14949 102.056555 
L 84.14949 102.2 
" style="fill:none;stroke:#0000ff;"/>
    <path clip-path="url(#p705d30d2b7)" d="M 84.790065 99.852845 
L 84.790065 102.2 
" style="fill:none;stroke:#0000ff;"/>
    <path clip-path="url(#p705d30d2b7)" d="M 85.644165 101.69445 
L 85.644165 102.2 
" style="fill:none;stroke:#0000ff;"/>
    <path clip-path="url(#p705d30d2b7)" d="M 86.274064 101.885673 
L 86.274064 102.2 
" style="fill:none;stroke:#0000ff;"/>
    <path clip-path="url(#p705d30d2b7)" d="M 86.925315 99.938697 
L 86.925315 102.2 
" style="fill:none;stroke:#0000ff;"/>
    <path clip-path="url(#p705d30d2b7)" d="M 87.779415 97.120483 
L 87.779415 102.2 
" style="fill:none;stroke:#0000ff;"/>
    <path clip-path="url(#p705d30d2b7)" d="M 87.886178 101.882714 
L 87.886178 102.2 
" style="fill:none;stroke:#0000ff;"/>
    <path clip-path="url(#p705d30d2b7)" d="M 88.740278 101.933256 
L 88.740278 102.2 
" style="fill:none;stroke:#0000ff;"/>
    <path clip-path="url(#p705d30d2b7)" d="M 89.914665 100.913381 
L 89.914665 102.2 
" style="fill:none;stroke:#0000ff;"/>
    <path clip-path="url(#p705d30d2b7)" d="M 90.864851 100.270613 
L 90.864851 102.2 
" style="fill:none;stroke:#0000ff;"/>
    <path clip-path="url(#p705d30d2b7)" d="M 90.875528 101.999043 
L 90.875528 102.2 
" style="fill:none;stroke:#0000ff;"/>
    <path clip-path="url(#p705d30d2b7)" d="M 91.729628 102.086988 
L 91.729628 102.2 
" style="fill:none;stroke:#0000ff;"/>
    <path clip-path="url(#p705d30d2b7)" d="M 92.370203 101.637001 
L 92.370203 102.2 
" style="fill:none;stroke:#0000ff;"/>
    <path clip-path="url(#p705d30d2b7)" d="M 93.224303 102.120653 
L 93.224303 102.2 
" style="fill:none;stroke:#0000ff;"/>
    <path clip-path="url(#p705d30d2b7)" d="M 93.651353 101.408301 
L 93.651353 102.2 
" style="fill:none;stroke:#0000ff;"/>
    <path clip-path="url(#p705d30d2b7)" d="M 95.092646 101.634509 
L 95.092646 102.2 
" style="fill:none;stroke:#0000ff;"/>
    <path clip-path="url(#p705d30d2b7)" d="M 95.359553 101.399335 
L 95.359553 102.2 
" style="fill:none;stroke:#0000ff;"/>
    <path clip-path="url(#p705d30d2b7)" d="M 95.466315 100.545743 
L 95.466315 102.2 
" style="fill:none;stroke:#0000ff;"/>
    <path clip-path="url(#p705d30d2b7)" d="M 96.640703 97.950354 
L 96.640703 102.2 
" style="fill:none;stroke:#0000ff;"/>
    <path clip-path="url(#p705d30d2b7)" d="M 96.864904 73.337746 
L 96.864904 102.2 
" style="fill:none;stroke:#0000ff;"/>
    <path clip-path="url(#p705d30d2b7)" d="M 96.971666 99.96216 
L 96.971666 102.2 
" style="fill:none;stroke:#0000ff;"/>
    <path clip-path="url(#p705d30d2b7)" d="M 98.455665 98.050745 
L 98.455665 102.2 
" style="fill:none;stroke:#0000ff;"/>
    <path clip-path="url(#p705d30d2b7)" d="M 98.562428 101.07328 
L 98.562428 102.2 
" style="fill:none;stroke:#0000ff;"/>
    <path clip-path="url(#p705d30d2b7)" d="M 99.95034 101.846298 
L 99.95034 102.2 
" style="fill:none;stroke:#0000ff;"/>
    <path clip-path="url(#p705d30d2b7)" d="M 101.23149 101.733414 
L 101.23149 102.2 
" style="fill:none;stroke:#0000ff;"/>
    <path clip-path="url(#p705d30d2b7)" d="M 101.445015 102.032056 
L 101.445015 102.2 
" style="fill:none;stroke:#0000ff;"/>
    <path clip-path="url(#p705d30d2b7)" d="M 102.93969 100.831795 
L 102.93969 102.2 
" style="fill:none;stroke:#0000ff;"/>
    <path clip-path="url(#p705d30d2b7)" d="M 103.046453 101.702401 
L 103.046453 102.2 
" style="fill:none;stroke:#0000ff;"/>
    <path clip-path="url(#p705d30d2b7)" d="M 103.324035 99.275711 
L 103.324035 102.2 
" style="fill:none;stroke:#0000ff;"/>
    <path clip-path="url(#p705d30d2b7)" d="M 103.377416 101.750947 
L 103.377416 102.2 
" style="fill:none;stroke:#0000ff;"/>
    <path clip-path="url(#p705d30d2b7)" d="M 104.22084 101.621828 
L 104.22084 102.2 
" style="fill:none;stroke:#0000ff;"/>
    <path clip-path="url(#p705d30d2b7)" d="M 106.035803 96.006718 
L 106.035803 102.2 
" style="fill:none;stroke:#0000ff;"/>
    <path clip-path="url(#p705d30d2b7)" d="M 106.142565 101.036446 
L 106.142565 102.2 
" style="fill:none;stroke:#0000ff;"/>
    <path clip-path="url(#p705d30d2b7)" d="M 106.249328 102.058171 
L 106.249328 102.2 
" style="fill:none;stroke:#0000ff;"/>
    <path clip-path="url(#p705d30d2b7)" d="M 106.793816 102.13317 
L 106.793816 102.2 
" style="fill:none;stroke:#0000ff;"/>
    <path clip-path="url(#p705d30d2b7)" d="M 108.768923 102.031824 
L 108.768923 102.2 
" style="fill:none;stroke:#0000ff;"/>
    <path clip-path="url(#p705d30d2b7)" d="M 109.142591 99.692213 
L 109.142591 102.2 
" style="fill:none;stroke:#0000ff;"/>
    <path clip-path="url(#p705d30d2b7)" d="M 109.783166 99.880997 
L 109.783166 102.2 
" style="fill:none;stroke:#0000ff;"/>
    <path clip-path="url(#p705d30d2b7)" d="M 110.530504 101.809115 
L 110.530504 102.2 
" style="fill:none;stroke:#0000ff;"/>
    <path clip-path="url(#p705d30d2b7)" d="M 110.637266 102.078915 
L 110.637266 102.2 
" style="fill:none;stroke:#0000ff;"/>
    <path clip-path="url(#p705d30d2b7)" d="M 112.228028 102.07903 
L 112.228028 102.2 
" style="fill:none;stroke:#0000ff;"/>
    <path clip-path="url(#p705d30d2b7)" d="M 113.306329 102.095388 
L 113.306329 102.2 
" style="fill:none;stroke:#0000ff;"/>
    <path clip-path="url(#p705d30d2b7)" d="M 113.413091 102.182363 
L 113.413091 102.2 
" style="fill:none;stroke:#0000ff;"/>
    <path clip-path="url(#p705d30d2b7)" d="M 114.907766 102.109716 
L 114.907766 102.2 
" style="fill:none;stroke:#0000ff;"/>
    <path clip-path="url(#p705d30d2b7)" d="M 115.121291 101.935365 
L 115.121291 102.2 
" style="fill:none;stroke:#0000ff;"/>
    <path clip-path="url(#p705d30d2b7)" d="M 115.228054 102.116931 
L 115.228054 102.2 
" style="fill:none;stroke:#0000ff;"/>
    <path clip-path="url(#p705d30d2b7)" d="M 116.615966 101.919801 
L 116.615966 102.2 
" style="fill:none;stroke:#0000ff;"/>
    <path clip-path="url(#p705d30d2b7)" d="M 116.722729 98.717018 
L 116.722729 102.2 
" style="fill:none;stroke:#0000ff;"/>
    <path clip-path="url(#p705d30d2b7)" d="M 116.829491 101.83047 
L 116.829491 102.2 
" style="fill:none;stroke:#0000ff;"/>
    <path clip-path="url(#p705d30d2b7)" d="M 118.110641 100.660202 
L 118.110641 102.2 
" style="fill:none;stroke:#0000ff;"/>
    <path clip-path="url(#p705d30d2b7)" d="M 118.217404 102.086371 
L 118.217404 102.2 
" style="fill:none;stroke:#0000ff;"/>
    <path clip-path="url(#p705d30d2b7)" d="M 119.818841 102.115156 
L 119.818841 102.2 
" style="fill:none;stroke:#0000ff;"/>
    <path clip-path="url(#p705d30d2b7)" d="M 121.847329 102.188929 
L 121.847329 102.2 
" style="fill:none;stroke:#0000ff;"/>
    <path clip-path="url(#p705d30d2b7)" d="M 121.858005 102.007072 
L 121.858005 102.2 
" style="fill:none;stroke:#0000ff;"/>
    <path clip-path="url(#p705d30d2b7)" d="M 125.156966 102.17865 
L 125.156966 102.2 
" style="fill:none;stroke:#0000ff;"/>
    <path clip-path="url(#p705d30d2b7)" d="M 125.477254 102.186425 
L 125.477254 102.2 
" style="fill:none;stroke:#0000ff;"/>
    <path clip-path="url(#p705d30d2b7)" d="M 126.971929 102.04017 
L 126.971929 102.2 
" style="fill:none;stroke:#0000ff;"/>
    <path clip-path="url(#p705d30d2b7)" d="M 126.982605 102.169861 
L 126.982605 102.2 
" style="fill:none;stroke:#0000ff;"/>
    <path clip-path="url(#p705d30d2b7)" d="M 127.078691 101.992766 
L 127.078691 102.2 
" style="fill:none;stroke:#0000ff;"/>
    <path clip-path="url(#p705d30d2b7)" d="M 127.089368 102.177014 
L 127.089368 102.2 
" style="fill:none;stroke:#0000ff;"/>
    <path clip-path="url(#p705d30d2b7)" d="M 128.797568 102.165599 
L 128.797568 102.2 
" style="fill:none;stroke:#0000ff;"/>
    <path clip-path="url(#p705d30d2b7)" d="M 128.893654 102.116828 
L 128.893654 102.2 
" style="fill:none;stroke:#0000ff;"/>
    <path clip-path="url(#p705d30d2b7)" d="M 128.90433 101.880618 
L 128.90433 102.2 
" style="fill:none;stroke:#0000ff;"/>
    <path clip-path="url(#p705d30d2b7)" d="M 129.438143 101.742509 
L 129.438143 102.2 
" style="fill:none;stroke:#0000ff;"/>
    <path clip-path="url(#p705d30d2b7)" d="M 135.203318 102.188396 
L 135.203318 102.2 
" style="fill:none;stroke:#0000ff;"/>
    <path clip-path="url(#p705d30d2b7)" d="M 135.523605 102.187999 
L 135.523605 102.2 
" style="fill:none;stroke:#0000ff;"/>
    <path clip-path="url(#p705d30d2b7)" d="M 137.01828 101.920413 
L 137.01828 102.2 
" style="fill:none;stroke:#0000ff;"/>
    <path clip-path="url(#p705d30d2b7)" d="M 137.028956 102.159184 
L 137.028956 102.2 
" style="fill:none;stroke:#0000ff;"/>
    <path clip-path="url(#p705d30d2b7)" d="M 137.125043 102.121445 
L 137.125043 102.2 
" style="fill:none;stroke:#0000ff;"/>
    <path clip-path="url(#p705d30d2b7)" d="M 137.349244 102.180931 
L 137.349244 102.2 
" style="fill:none;stroke:#0000ff;"/>
    <path clip-path="url(#p705d30d2b7)" d="M 139.164206 96.284049 
L 139.164206 102.2 
" style="fill:none;stroke:#0000ff;"/>
    <path clip-path="url(#p705d30d2b7)" d="M 139.270969 101.06479 
L 139.270969 102.2 
" style="fill:none;stroke:#0000ff;"/>
    <path clip-path="url(#p705d30d2b7)" d="M 139.377731 102.186571 
L 139.377731 102.2 
" style="fill:none;stroke:#0000ff;"/>
    <path clip-path="url(#p705d30d2b7)" d="M 142.249643 101.19042 
L 142.249643 102.2 
" style="fill:none;stroke:#0000ff;"/>
    <path clip-path="url(#p705d30d2b7)" d="M 142.260319 101.681747 
L 142.260319 102.2 
" style="fill:none;stroke:#0000ff;"/>
    <path clip-path="url(#p705d30d2b7)" d="M 142.356405 102.141187 
L 142.356405 102.2 
" style="fill:none;stroke:#0000ff;"/>
    <path clip-path="url(#p705d30d2b7)" d="M 142.367081 102.091276 
L 142.367081 102.2 
" style="fill:none;stroke:#0000ff;"/>
    <path clip-path="url(#p705d30d2b7)" d="M 143.103743 102.108953 
L 143.103743 102.2 
" style="fill:none;stroke:#0000ff;"/>
    <path clip-path="url(#p705d30d2b7)" d="M 145.249669 91.921142 
L 145.249669 102.2 
" style="fill:none;stroke:#0000ff;"/>
    <path clip-path="url(#p705d30d2b7)" d="M 145.345755 102.186195 
L 145.345755 102.2 
" style="fill:none;stroke:#0000ff;"/>
    <path clip-path="url(#p705d30d2b7)" d="M 145.356431 99.293438 
L 145.356431 102.2 
" style="fill:none;stroke:#0000ff;"/>
    <path clip-path="url(#p705d30d2b7)" d="M 145.463194 102.145628 
L 145.463194 102.2 
" style="fill:none;stroke:#0000ff;"/>
    <path clip-path="url(#p705d30d2b7)" d="M 146.210531 102.141382 
L 146.210531 102.2 
" style="fill:none;stroke:#0000ff;"/>
    <path clip-path="url(#p705d30d2b7)" d="M 148.239019 102.176415 
L 148.239019 102.2 
" style="fill:none;stroke:#0000ff;"/>
    <path clip-path="url(#p705d30d2b7)" d="M 148.345781 102.065148 
L 148.345781 102.2 
" style="fill:none;stroke:#0000ff;"/>
    <path clip-path="url(#p705d30d2b7)" d="M 148.452544 102.184049 
L 148.452544 102.2 
" style="fill:none;stroke:#0000ff;"/>
    <path clip-path="url(#p705d30d2b7)" d="M 153.683906 101.884304 
L 153.683906 102.2 
" style="fill:none;stroke:#0000ff;"/>
    <path clip-path="url(#p705d30d2b7)" d="M 153.790669 97.98213 
L 153.790669 102.2 
" style="fill:none;stroke:#0000ff;"/>
    <path clip-path="url(#p705d30d2b7)" d="M 153.897431 101.969156 
L 153.897431 102.2 
" style="fill:none;stroke:#0000ff;"/>
    <path clip-path="url(#p705d30d2b7)" d="M 155.605631 94.86748 
L 155.605631 102.2 
" style="fill:none;stroke:#0000ff;"/>
    <path clip-path="url(#p705d30d2b7)" d="M 155.616308 10.8 
L 155.616308 102.2 
" style="fill:none;stroke:#0000ff;"/>
    <path clip-path="url(#p705d30d2b7)" d="M 155.712394 101.45814 
L 155.712394 102.2 
" style="fill:none;stroke:#0000ff;"/>
    <path clip-path="url(#p705d30d2b7)" d="M 155.72307 65.933377 
L 155.72307 102.2 
" style="fill:none;stroke:#0000ff;"/>
    <path clip-path="url(#p705d30d2b7)" d="M 155.829833 97.839884 
L 155.829833 102.2 
" style="fill:none;stroke:#0000ff;"/>
    <path clip-path="url(#p705d30d2b7)" d="M 157.324508 102.125067 
L 157.324508 102.2 
" style="fill:none;stroke:#0000ff;"/>
    <path clip-path="url(#p705d30d2b7)" d="M 157.43127 102.188469 
L 157.43127 102.2 
" style="fill:none;stroke:#0000ff;"/>
    <path clip-path="url(#p705d30d2b7)" d="M 164.477595 101.670704 
L 164.477595 102.2 
" style="fill:none;stroke:#0000ff;"/>
    <path clip-path="url(#p705d30d2b7)" d="M 164.584358 101.856964 
L 164.584358 102.2 
" style="fill:none;stroke:#0000ff;"/>
    <path clip-path="url(#p705d30d2b7)" d="M 164.69112 102.187008 
L 164.69112 102.2 
" style="fill:none;stroke:#0000ff;"/>
    <path clip-path="url(#p705d30d2b7)" d="M 166.39932 60.462325 
L 166.39932 102.2 
" style="fill:none;stroke:#0000ff;"/>
    <path clip-path="url(#p705d30d2b7)" d="M 166.506083 81.469543 
L 166.506083 102.2 
" style="fill:none;stroke:#0000ff;"/>
    <path clip-path="url(#p705d30d2b7)" d="M 166.612845 100.331416 
L 166.612845 102.2 
" style="fill:none;stroke:#0000ff;"/>
    <path clip-path="url(#p705d30d2b7)" d="M 166.719608 102.181798 
L 166.719608 102.2 
" style="fill:none;stroke:#0000ff;"/>
    <path clip-path="url(#p705d30d2b7)" d="M 176.552434 102.012595 
L 176.552434 102.2 
" style="fill:none;stroke:#0000ff;"/>
    <path clip-path="url(#p705d30d2b7)" d="M 176.659196 102.160594 
L 176.659196 102.2 
" style="fill:none;stroke:#0000ff;"/>
    <path clip-path="url(#p705d30d2b7)" d="M 178.474159 81.835382 
L 178.474159 102.2 
" style="fill:none;stroke:#0000ff;"/>
    <path clip-path="url(#p705d30d2b7)" d="M 178.580921 92.644734 
L 178.580921 102.2 
" style="fill:none;stroke:#0000ff;"/>
    <path clip-path="url(#p705d30d2b7)" d="M 178.687684 101.757999 
L 178.687684 102.2 
" style="fill:none;stroke:#0000ff;"/>
    <path clip-path="url(#p705d30d2b7)" d="M 184.132571 102.145213 
L 184.132571 102.2 
" style="fill:none;stroke:#0000ff;"/>
    <path clip-path="url(#p705d30d2b7)" d="M 184.239334 102.169587 
L 184.239334 102.2 
" style="fill:none;stroke:#0000ff;"/>
    <path clip-path="url(#p705d30d2b7)" d="M 186.054296 87.37962 
L 186.054296 102.2 
" style="fill:none;stroke:#0000ff;"/>
    <path clip-path="url(#p705d30d2b7)" d="M 186.161059 94.827258 
L 186.161059 102.2 
" style="fill:none;stroke:#0000ff;"/>
    <path clip-path="url(#p705d30d2b7)" d="M 186.267821 101.780666 
L 186.267821 102.2 
" style="fill:none;stroke:#0000ff;"/>
    <path clip-path="url(#p705d30d2b7)" d="M 201.321334 102.189314 
L 201.321334 102.2 
" style="fill:none;stroke:#0000ff;"/>
    <path clip-path="url(#p705d30d2b7)" d="M 203.136296 101.771769 
L 203.136296 102.2 
" style="fill:none;stroke:#0000ff;"/>
    <path clip-path="url(#p705d30d2b7)" d="M 203.146973 100.837279 
L 203.146973 102.2 
" style="fill:none;stroke:#0000ff;"/>
    <path clip-path="url(#p705d30d2b7)" d="M 203.243059 102.053925 
L 203.243059 102.2 
" style="fill:none;stroke:#0000ff;"/>
    <path clip-path="url(#p705d30d2b7)" d="M 203.253735 101.285005 
L 203.253735 102.2 
" style="fill:none;stroke:#0000ff;"/>
    <path clip-path="url(#p705d30d2b7)" d="M 203.360498 102.126159 
L 203.360498 102.2 
" style="fill:none;stroke:#0000ff;"/>
    <path clip-path="url(#p705d30d2b7)" d="M 209.232435 102.062359 
L 209.232435 102.2 
" style="fill:none;stroke:#0000ff;"/>
    <path clip-path="url(#p705d30d2b7)" d="M 209.339198 101.734596 
L 209.339198 102.2 
" style="fill:none;stroke:#0000ff;"/>
    <path clip-path="url(#p705d30d2b7)" d="M 209.44596 102.166701 
L 209.44596 102.2 
" style="fill:none;stroke:#0000ff;"/>
    <path clip-path="url(#p705d30d2b7)" d="M 210.72711 102.101363 
L 210.72711 102.2 
" style="fill:none;stroke:#0000ff;"/>
    <path clip-path="url(#p705d30d2b7)" d="M 210.833873 102.157035 
L 210.833873 102.2 
" style="fill:none;stroke:#0000ff;"/>
   </g>
   <g id="patch_3">
    <path d="M 50.925 102.2 
L 50.925 10.8 
" style="fill:none;stroke:#000000;stroke-linecap:square;stroke-linejoin:miter;stroke-width:0.8;"/>
   </g>
   <g id="patch_4">
    <path d="M 264.45 102.2 
L 264.45 10.8 
" style="fill:none;stroke:#000000;stroke-linecap:square;stroke-linejoin:miter;stroke-width:0.8;"/>
   </g>
   <g id="patch_5">
    <path d="M 50.925 102.2 
L 264.45 102.2 
" style="fill:none;stroke:#000000;stroke-linecap:square;stroke-linejoin:miter;stroke-width:0.8;"/>
   </g>
   <g id="patch_6">
    <path d="M 50.925 10.8 
L 264.45 10.8 
" style="fill:none;stroke:#000000;stroke-linecap:square;stroke-linejoin:miter;stroke-width:0.8;"/>
   </g>
  </g>
 </g>
 <defs>
  <clipPath id="p705d30d2b7">
   <rect height="91.4" width="213.525" x="50.925" y="10.8"/>
  </clipPath>
 </defs>
</svg>
