<?xml version="1.0" encoding="utf-8" standalone="no"?>
<!DOCTYPE svg PUBLIC "-//W3C//DTD SVG 1.1//EN"
  "http://www.w3.org/Graphics/SVG/1.1/DTD/svg11.dtd">
<svg xmlns:xlink="http://www.w3.org/1999/xlink" width="288pt" height="144pt" viewBox="0 0 288 144" xmlns="http://www.w3.org/2000/svg" version="1.1">
 <metadata>
  <rdf:RDF xmlns:dc="http://purl.org/dc/elements/1.1/" xmlns:cc="http://creativecommons.org/ns#" xmlns:rdf="http://www.w3.org/1999/02/22-rdf-syntax-ns#">
   <cc:Work>
    <dc:type rdf:resource="http://purl.org/dc/dcmitype/StillImage"/>
    <dc:date>2023-03-31T09:58:20.372888</dc:date>
    <dc:format>image/svg+xml</dc:format>
    <dc:creator>
     <cc:Agent>
      <dc:title>Matplotlib v3.6.2, https://matplotlib.org/</dc:title>
     </cc:Agent>
    </dc:creator>
   </cc:Work>
  </rdf:RDF>
 </metadata>
 <defs>
  <style type="text/css">*{stroke-linejoin: round; stroke-linecap: butt}</style>
 </defs>
 <g id="figure_1">
  <g id="patch_1">
   <path d="M 0 144 
L 288 144 
L 288 0 
L 0 0 
z
" style="fill: #ffffff"/>
  </g>
  <g id="axes_1">
   <g id="patch_2">
    <path d="M 63.83 102.04 
L 277.2 102.04 
L 277.2 10.8 
L 63.83 10.8 
z
" style="fill: #ffffff"/>
   </g>
   <g id="matplotlib.axis_1">
    <g id="xtick_1">
     <g id="line2d_1">
      <defs>
       <path id="md77c99e872" d="M 0 0 
L 0 3.5 
" style="stroke: #000000; stroke-width: 0.8"/>
      </defs>
      <g>
       <use xlink:href="#md77c99e872" x="63.83" y="102.04" style="stroke: #000000; stroke-width: 0.8"/>
      </g>
     </g>
     <g id="text_1">
      <!-- 0 -->
      <g transform="translate(60.64875 116.638437) scale(0.1 -0.1)">
       <defs>
        <path id="DejaVuSans-30" d="M 2034 4250 
Q 1547 4250 1301 3770 
Q 1056 3291 1056 2328 
Q 1056 1369 1301 889 
Q 1547 409 2034 409 
Q 2525 409 2770 889 
Q 3016 1369 3016 2328 
Q 3016 3291 2770 3770 
Q 2525 4250 2034 4250 
z
M 2034 4750 
Q 2819 4750 3233 4129 
Q 3647 3509 3647 2328 
Q 3647 1150 3233 529 
Q 2819 -91 2034 -91 
Q 1250 -91 836 529 
Q 422 1150 422 2328 
Q 422 3509 836 4129 
Q 1250 4750 2034 4750 
z
" transform="scale(0.015625)"/>
       </defs>
       <use xlink:href="#DejaVuSans-30"/>
      </g>
     </g>
    </g>
    <g id="xtick_2">
     <g id="line2d_2">
      <g>
       <use xlink:href="#md77c99e872" x="106.569271" y="102.04" style="stroke: #000000; stroke-width: 0.8"/>
      </g>
     </g>
     <g id="text_2">
      <!-- 100 -->
      <g transform="translate(97.025521 116.638437) scale(0.1 -0.1)">
       <defs>
        <path id="DejaVuSans-31" d="M 794 531 
L 1825 531 
L 1825 4091 
L 703 3866 
L 703 4441 
L 1819 4666 
L 2450 4666 
L 2450 531 
L 3481 531 
L 3481 0 
L 794 0 
L 794 531 
z
" transform="scale(0.015625)"/>
       </defs>
       <use xlink:href="#DejaVuSans-31"/>
       <use xlink:href="#DejaVuSans-30" x="63.623047"/>
       <use xlink:href="#DejaVuSans-30" x="127.246094"/>
      </g>
     </g>
    </g>
    <g id="xtick_3">
     <g id="line2d_3">
      <g>
       <use xlink:href="#md77c99e872" x="149.308543" y="102.04" style="stroke: #000000; stroke-width: 0.8"/>
      </g>
     </g>
     <g id="text_3">
      <!-- 200 -->
      <g transform="translate(139.764793 116.638437) scale(0.1 -0.1)">
       <defs>
        <path id="DejaVuSans-32" d="M 1228 531 
L 3431 531 
L 3431 0 
L 469 0 
L 469 531 
Q 828 903 1448 1529 
Q 2069 2156 2228 2338 
Q 2531 2678 2651 2914 
Q 2772 3150 2772 3378 
Q 2772 3750 2511 3984 
Q 2250 4219 1831 4219 
Q 1534 4219 1204 4116 
Q 875 4013 500 3803 
L 500 4441 
Q 881 4594 1212 4672 
Q 1544 4750 1819 4750 
Q 2544 4750 2975 4387 
Q 3406 4025 3406 3419 
Q 3406 3131 3298 2873 
Q 3191 2616 2906 2266 
Q 2828 2175 2409 1742 
Q 1991 1309 1228 531 
z
" transform="scale(0.015625)"/>
       </defs>
       <use xlink:href="#DejaVuSans-32"/>
       <use xlink:href="#DejaVuSans-30" x="63.623047"/>
       <use xlink:href="#DejaVuSans-30" x="127.246094"/>
      </g>
     </g>
    </g>
    <g id="xtick_4">
     <g id="line2d_4">
      <g>
       <use xlink:href="#md77c99e872" x="192.047814" y="102.04" style="stroke: #000000; stroke-width: 0.8"/>
      </g>
     </g>
     <g id="text_4">
      <!-- 300 -->
      <g transform="translate(182.504064 116.638437) scale(0.1 -0.1)">
       <defs>
        <path id="DejaVuSans-33" d="M 2597 2516 
Q 3050 2419 3304 2112 
Q 3559 1806 3559 1356 
Q 3559 666 3084 287 
Q 2609 -91 1734 -91 
Q 1441 -91 1130 -33 
Q 819 25 488 141 
L 488 750 
Q 750 597 1062 519 
Q 1375 441 1716 441 
Q 2309 441 2620 675 
Q 2931 909 2931 1356 
Q 2931 1769 2642 2001 
Q 2353 2234 1838 2234 
L 1294 2234 
L 1294 2753 
L 1863 2753 
Q 2328 2753 2575 2939 
Q 2822 3125 2822 3475 
Q 2822 3834 2567 4026 
Q 2313 4219 1838 4219 
Q 1578 4219 1281 4162 
Q 984 4106 628 3988 
L 628 4550 
Q 988 4650 1302 4700 
Q 1616 4750 1894 4750 
Q 2613 4750 3031 4423 
Q 3450 4097 3450 3541 
Q 3450 3153 3228 2886 
Q 3006 2619 2597 2516 
z
" transform="scale(0.015625)"/>
       </defs>
       <use xlink:href="#DejaVuSans-33"/>
       <use xlink:href="#DejaVuSans-30" x="63.623047"/>
       <use xlink:href="#DejaVuSans-30" x="127.246094"/>
      </g>
     </g>
    </g>
    <g id="xtick_5">
     <g id="line2d_5">
      <g>
       <use xlink:href="#md77c99e872" x="234.787086" y="102.04" style="stroke: #000000; stroke-width: 0.8"/>
      </g>
     </g>
     <g id="text_5">
      <!-- 400 -->
      <g transform="translate(225.243336 116.638437) scale(0.1 -0.1)">
       <defs>
        <path id="DejaVuSans-34" d="M 2419 4116 
L 825 1625 
L 2419 1625 
L 2419 4116 
z
M 2253 4666 
L 3047 4666 
L 3047 1625 
L 3713 1625 
L 3713 1100 
L 3047 1100 
L 3047 0 
L 2419 0 
L 2419 1100 
L 313 1100 
L 313 1709 
L 2253 4666 
z
" transform="scale(0.015625)"/>
       </defs>
       <use xlink:href="#DejaVuSans-34"/>
       <use xlink:href="#DejaVuSans-30" x="63.623047"/>
       <use xlink:href="#DejaVuSans-30" x="127.246094"/>
      </g>
     </g>
    </g>
    <g id="text_6">
     <!-- m/z -->
     <g transform="translate(161.336094 130.316563) scale(0.1 -0.1)">
      <defs>
       <path id="DejaVuSans-6d" d="M 3328 2828 
Q 3544 3216 3844 3400 
Q 4144 3584 4550 3584 
Q 5097 3584 5394 3201 
Q 5691 2819 5691 2113 
L 5691 0 
L 5113 0 
L 5113 2094 
Q 5113 2597 4934 2840 
Q 4756 3084 4391 3084 
Q 3944 3084 3684 2787 
Q 3425 2491 3425 1978 
L 3425 0 
L 2847 0 
L 2847 2094 
Q 2847 2600 2669 2842 
Q 2491 3084 2119 3084 
Q 1678 3084 1418 2786 
Q 1159 2488 1159 1978 
L 1159 0 
L 581 0 
L 581 3500 
L 1159 3500 
L 1159 2956 
Q 1356 3278 1631 3431 
Q 1906 3584 2284 3584 
Q 2666 3584 2933 3390 
Q 3200 3197 3328 2828 
z
" transform="scale(0.015625)"/>
       <path id="DejaVuSans-2f" d="M 1625 4666 
L 2156 4666 
L 531 -594 
L 0 -594 
L 1625 4666 
z
" transform="scale(0.015625)"/>
       <path id="DejaVuSans-7a" d="M 353 3500 
L 3084 3500 
L 3084 2975 
L 922 459 
L 3084 459 
L 3084 0 
L 275 0 
L 275 525 
L 2438 3041 
L 353 3041 
L 353 3500 
z
" transform="scale(0.015625)"/>
      </defs>
      <use xlink:href="#DejaVuSans-6d"/>
      <use xlink:href="#DejaVuSans-2f" x="97.412109"/>
      <use xlink:href="#DejaVuSans-7a" x="131.103516"/>
     </g>
    </g>
   </g>
   <g id="matplotlib.axis_2">
    <g id="ytick_1">
     <g id="line2d_6">
      <defs>
       <path id="md61324ae23" d="M 0 0 
L -3.5 0 
" style="stroke: #000000; stroke-width: 0.8"/>
      </defs>
      <g>
       <use xlink:href="#md61324ae23" x="63.83" y="102.04" style="stroke: #000000; stroke-width: 0.8"/>
      </g>
     </g>
     <g id="text_7">
      <!-- 0 -->
      <g transform="translate(50.4675 105.839219) scale(0.1 -0.1)">
       <use xlink:href="#DejaVuSans-30"/>
      </g>
     </g>
    </g>
    <g id="ytick_2">
     <g id="line2d_7">
      <g>
       <use xlink:href="#md61324ae23" x="63.83" y="76.834683" style="stroke: #000000; stroke-width: 0.8"/>
      </g>
     </g>
     <g id="text_8">
      <!-- 25000 -->
      <g transform="translate(25.0175 80.633902) scale(0.1 -0.1)">
       <defs>
        <path id="DejaVuSans-35" d="M 691 4666 
L 3169 4666 
L 3169 4134 
L 1269 4134 
L 1269 2991 
Q 1406 3038 1543 3061 
Q 1681 3084 1819 3084 
Q 2600 3084 3056 2656 
Q 3513 2228 3513 1497 
Q 3513 744 3044 326 
Q 2575 -91 1722 -91 
Q 1428 -91 1123 -41 
Q 819 9 494 109 
L 494 744 
Q 775 591 1075 516 
Q 1375 441 1709 441 
Q 2250 441 2565 725 
Q 2881 1009 2881 1497 
Q 2881 1984 2565 2268 
Q 2250 2553 1709 2553 
Q 1456 2553 1204 2497 
Q 953 2441 691 2322 
L 691 4666 
z
" transform="scale(0.015625)"/>
       </defs>
       <use xlink:href="#DejaVuSans-32"/>
       <use xlink:href="#DejaVuSans-35" x="63.623047"/>
       <use xlink:href="#DejaVuSans-30" x="127.246094"/>
       <use xlink:href="#DejaVuSans-30" x="190.869141"/>
       <use xlink:href="#DejaVuSans-30" x="254.492188"/>
      </g>
     </g>
    </g>
    <g id="ytick_3">
     <g id="line2d_8">
      <g>
       <use xlink:href="#md61324ae23" x="63.83" y="51.629367" style="stroke: #000000; stroke-width: 0.8"/>
      </g>
     </g>
     <g id="text_9">
      <!-- 50000 -->
      <g transform="translate(25.0175 55.428585) scale(0.1 -0.1)">
       <use xlink:href="#DejaVuSans-35"/>
       <use xlink:href="#DejaVuSans-30" x="63.623047"/>
       <use xlink:href="#DejaVuSans-30" x="127.246094"/>
       <use xlink:href="#DejaVuSans-30" x="190.869141"/>
       <use xlink:href="#DejaVuSans-30" x="254.492188"/>
      </g>
     </g>
    </g>
    <g id="ytick_4">
     <g id="line2d_9">
      <g>
       <use xlink:href="#md61324ae23" x="63.83" y="26.42405" style="stroke: #000000; stroke-width: 0.8"/>
      </g>
     </g>
     <g id="text_10">
      <!-- 75000 -->
      <g transform="translate(25.0175 30.223269) scale(0.1 -0.1)">
       <defs>
        <path id="DejaVuSans-37" d="M 525 4666 
L 3525 4666 
L 3525 4397 
L 1831 0 
L 1172 0 
L 2766 4134 
L 525 4134 
L 525 4666 
z
" transform="scale(0.015625)"/>
       </defs>
       <use xlink:href="#DejaVuSans-37"/>
       <use xlink:href="#DejaVuSans-35" x="63.623047"/>
       <use xlink:href="#DejaVuSans-30" x="127.246094"/>
       <use xlink:href="#DejaVuSans-30" x="190.869141"/>
       <use xlink:href="#DejaVuSans-30" x="254.492188"/>
      </g>
     </g>
    </g>
    <g id="text_11">
     <!-- Intensity -->
     <g transform="translate(18.937812 78.1825) rotate(-90) scale(0.1 -0.1)">
      <defs>
       <path id="DejaVuSans-49" d="M 628 4666 
L 1259 4666 
L 1259 0 
L 628 0 
L 628 4666 
z
" transform="scale(0.015625)"/>
       <path id="DejaVuSans-6e" d="M 3513 2113 
L 3513 0 
L 2938 0 
L 2938 2094 
Q 2938 2591 2744 2837 
Q 2550 3084 2163 3084 
Q 1697 3084 1428 2787 
Q 1159 2491 1159 1978 
L 1159 0 
L 581 0 
L 581 3500 
L 1159 3500 
L 1159 2956 
Q 1366 3272 1645 3428 
Q 1925 3584 2291 3584 
Q 2894 3584 3203 3211 
Q 3513 2838 3513 2113 
z
" transform="scale(0.015625)"/>
       <path id="DejaVuSans-74" d="M 1172 4494 
L 1172 3500 
L 2356 3500 
L 2356 3053 
L 1172 3053 
L 1172 1153 
Q 1172 725 1289 603 
Q 1406 481 1766 481 
L 2356 481 
L 2356 0 
L 1766 0 
Q 1100 0 847 248 
Q 594 497 594 1153 
L 594 3053 
L 172 3053 
L 172 3500 
L 594 3500 
L 594 4494 
L 1172 4494 
z
" transform="scale(0.015625)"/>
       <path id="DejaVuSans-65" d="M 3597 1894 
L 3597 1613 
L 953 1613 
Q 991 1019 1311 708 
Q 1631 397 2203 397 
Q 2534 397 2845 478 
Q 3156 559 3463 722 
L 3463 178 
Q 3153 47 2828 -22 
Q 2503 -91 2169 -91 
Q 1331 -91 842 396 
Q 353 884 353 1716 
Q 353 2575 817 3079 
Q 1281 3584 2069 3584 
Q 2775 3584 3186 3129 
Q 3597 2675 3597 1894 
z
M 3022 2063 
Q 3016 2534 2758 2815 
Q 2500 3097 2075 3097 
Q 1594 3097 1305 2825 
Q 1016 2553 972 2059 
L 3022 2063 
z
" transform="scale(0.015625)"/>
       <path id="DejaVuSans-73" d="M 2834 3397 
L 2834 2853 
Q 2591 2978 2328 3040 
Q 2066 3103 1784 3103 
Q 1356 3103 1142 2972 
Q 928 2841 928 2578 
Q 928 2378 1081 2264 
Q 1234 2150 1697 2047 
L 1894 2003 
Q 2506 1872 2764 1633 
Q 3022 1394 3022 966 
Q 3022 478 2636 193 
Q 2250 -91 1575 -91 
Q 1294 -91 989 -36 
Q 684 19 347 128 
L 347 722 
Q 666 556 975 473 
Q 1284 391 1588 391 
Q 1994 391 2212 530 
Q 2431 669 2431 922 
Q 2431 1156 2273 1281 
Q 2116 1406 1581 1522 
L 1381 1569 
Q 847 1681 609 1914 
Q 372 2147 372 2553 
Q 372 3047 722 3315 
Q 1072 3584 1716 3584 
Q 2034 3584 2315 3537 
Q 2597 3491 2834 3397 
z
" transform="scale(0.015625)"/>
       <path id="DejaVuSans-69" d="M 603 3500 
L 1178 3500 
L 1178 0 
L 603 0 
L 603 3500 
z
M 603 4863 
L 1178 4863 
L 1178 4134 
L 603 4134 
L 603 4863 
z
" transform="scale(0.015625)"/>
       <path id="DejaVuSans-79" d="M 2059 -325 
Q 1816 -950 1584 -1140 
Q 1353 -1331 966 -1331 
L 506 -1331 
L 506 -850 
L 844 -850 
Q 1081 -850 1212 -737 
Q 1344 -625 1503 -206 
L 1606 56 
L 191 3500 
L 800 3500 
L 1894 763 
L 2988 3500 
L 3597 3500 
L 2059 -325 
z
" transform="scale(0.015625)"/>
      </defs>
      <use xlink:href="#DejaVuSans-49"/>
      <use xlink:href="#DejaVuSans-6e" x="29.492188"/>
      <use xlink:href="#DejaVuSans-74" x="92.871094"/>
      <use xlink:href="#DejaVuSans-65" x="132.080078"/>
      <use xlink:href="#DejaVuSans-6e" x="193.603516"/>
      <use xlink:href="#DejaVuSans-73" x="256.982422"/>
      <use xlink:href="#DejaVuSans-69" x="309.082031"/>
      <use xlink:href="#DejaVuSans-74" x="336.865234"/>
      <use xlink:href="#DejaVuSans-79" x="376.074219"/>
     </g>
    </g>
   </g>
   <g id="LineCollection_1">
    <path d="M 124.982333 87.127022 
L 124.982333 102.04 
" clip-path="url(#pae599c5cf4)" style="fill: none; stroke: #0000ff; stroke-width: 1.5"/>
    <path d="M 129.331139 96.990266 
L 129.331139 102.04 
" clip-path="url(#pae599c5cf4)" style="fill: none; stroke: #0000ff; stroke-width: 1.5"/>
    <path d="M 131.824633 90.413493 
L 131.824633 102.04 
" clip-path="url(#pae599c5cf4)" style="fill: none; stroke: #0000ff; stroke-width: 1.5"/>
    <path d="M 133.323072 96.187729 
L 133.323072 102.04 
" clip-path="url(#pae599c5cf4)" style="fill: none; stroke: #0000ff; stroke-width: 1.5"/>
    <path d="M 136.100911 89.002802 
L 136.100911 102.04 
" clip-path="url(#pae599c5cf4)" style="fill: none; stroke: #0000ff; stroke-width: 1.5"/>
    <path d="M 138.674713 83.679338 
L 138.674713 102.04 
" clip-path="url(#pae599c5cf4)" style="fill: none; stroke: #0000ff; stroke-width: 1.5"/>
    <path d="M 146.774061 95.979634 
L 146.774061 102.04 
" clip-path="url(#pae599c5cf4)" style="fill: none; stroke: #0000ff; stroke-width: 1.5"/>
    <path d="M 148.927052 95.247268 
L 148.927052 102.04 
" clip-path="url(#pae599c5cf4)" style="fill: none; stroke: #0000ff; stroke-width: 1.5"/>
    <path d="M 150.057634 96.417904 
L 150.057634 102.04 
" clip-path="url(#pae599c5cf4)" style="fill: none; stroke: #0000ff; stroke-width: 1.5"/>
    <path d="M 154.482174 88.140679 
L 154.482174 102.04 
" clip-path="url(#pae599c5cf4)" style="fill: none; stroke: #0000ff; stroke-width: 1.5"/>
    <path d="M 155.343114 19.094545 
L 155.343114 102.04 
" clip-path="url(#pae599c5cf4)" style="fill: none; stroke: #0000ff; stroke-width: 1.5"/>
    <path d="M 161.769263 94.123514 
L 161.769263 102.04 
" clip-path="url(#pae599c5cf4)" style="fill: none; stroke: #0000ff; stroke-width: 1.5"/>
    <path d="M 163.017762 73.24958 
L 163.017762 102.04 
" clip-path="url(#pae599c5cf4)" style="fill: none; stroke: #0000ff; stroke-width: 1.5"/>
    <path d="M 170.29656 97.330941 
L 170.29656 102.04 
" clip-path="url(#pae599c5cf4)" style="fill: none; stroke: #0000ff; stroke-width: 1.5"/>
    <path d="M 173.739721 86.914894 
L 173.739721 102.04 
" clip-path="url(#pae599c5cf4)" style="fill: none; stroke: #0000ff; stroke-width: 1.5"/>
    <path d="M 181.982588 96.708571 
L 181.982588 102.04 
" clip-path="url(#pae599c5cf4)" style="fill: none; stroke: #0000ff; stroke-width: 1.5"/>
    <path d="M 184.842443 76.869063 
L 184.842443 102.04 
" clip-path="url(#pae599c5cf4)" style="fill: none; stroke: #0000ff; stroke-width: 1.5"/>
    <path d="M 184.950659 96.907693 
L 184.950659 102.04 
" clip-path="url(#pae599c5cf4)" style="fill: none; stroke: #0000ff; stroke-width: 1.5"/>
    <path d="M 185.703896 53.357947 
L 185.703896 102.04 
" clip-path="url(#pae599c5cf4)" style="fill: none; stroke: #0000ff; stroke-width: 1.5"/>
    <path d="M 192.980983 91.394383 
L 192.980983 102.04 
" clip-path="url(#pae599c5cf4)" style="fill: none; stroke: #0000ff; stroke-width: 1.5"/>
    <path d="M 193.378715 48.870292 
L 193.378715 102.04 
" clip-path="url(#pae599c5cf4)" style="fill: none; stroke: #0000ff; stroke-width: 1.5"/>
    <path d="M 199.39431 95.400617 
L 199.39431 102.04 
" clip-path="url(#pae599c5cf4)" style="fill: none; stroke: #0000ff; stroke-width: 1.5"/>
    <path d="M 211.34857 83.841156 
L 211.34857 102.04 
" clip-path="url(#pae599c5cf4)" style="fill: none; stroke: #0000ff; stroke-width: 1.5"/>
    <path d="M 215.203652 70.382021 
L 215.203652 102.04 
" clip-path="url(#pae599c5cf4)" style="fill: none; stroke: #0000ff; stroke-width: 1.5"/>
    <path d="M 216.063695 94.857392 
L 216.063695 102.04 
" clip-path="url(#pae599c5cf4)" style="fill: none; stroke: #0000ff; stroke-width: 1.5"/>
    <path d="M 222.126688 95.849877 
L 222.126688 102.04 
" clip-path="url(#pae599c5cf4)" style="fill: none; stroke: #0000ff; stroke-width: 1.5"/>
    <path d="M 222.677426 89.958285 
L 222.677426 102.04 
" clip-path="url(#pae599c5cf4)" style="fill: none; stroke: #0000ff; stroke-width: 1.5"/>
    <path d="M 223.739198 66.822426 
L 223.739198 102.04 
" clip-path="url(#pae599c5cf4)" style="fill: none; stroke: #0000ff; stroke-width: 1.5"/>
    <path d="M 241.712087 93.012867 
L 241.712087 102.04 
" clip-path="url(#pae599c5cf4)" style="fill: none; stroke: #0000ff; stroke-width: 1.5"/>
    <path d="M 242.135291 84.960373 
L 242.135291 102.04 
" clip-path="url(#pae599c5cf4)" style="fill: none; stroke: #0000ff; stroke-width: 1.5"/>
    <path d="M 245.56469 86.463316 
L 245.56469 102.04 
" clip-path="url(#pae599c5cf4)" style="fill: none; stroke: #0000ff; stroke-width: 1.5"/>
    <path d="M 246.840586 93.092617 
L 246.840586 102.04 
" clip-path="url(#pae599c5cf4)" style="fill: none; stroke: #0000ff; stroke-width: 1.5"/>
    <path d="M 246.860502 95.152798 
L 246.860502 102.04 
" clip-path="url(#pae599c5cf4)" style="fill: none; stroke: #0000ff; stroke-width: 1.5"/>
    <path d="M 247.727682 71.674046 
L 247.727682 102.04 
" clip-path="url(#pae599c5cf4)" style="fill: none; stroke: #0000ff; stroke-width: 1.5"/>
    <path d="M 254.100364 43.681425 
L 254.100364 102.04 
" clip-path="url(#pae599c5cf4)" style="fill: none; stroke: #0000ff; stroke-width: 1.5"/>
    <path d="M 254.534723 93.098968 
L 254.534723 102.04 
" clip-path="url(#pae599c5cf4)" style="fill: none; stroke: #0000ff; stroke-width: 1.5"/>
    <path d="M 259.223392 96.592123 
L 259.223392 102.04 
" clip-path="url(#pae599c5cf4)" style="fill: none; stroke: #0000ff; stroke-width: 1.5"/>
    <path d="M 263.537024 95.87236 
L 263.537024 102.04 
" clip-path="url(#pae599c5cf4)" style="fill: none; stroke: #0000ff; stroke-width: 1.5"/>
    <path d="M 264.394075 95.07688 
L 264.394075 102.04 
" clip-path="url(#pae599c5cf4)" style="fill: none; stroke: #0000ff; stroke-width: 1.5"/>
    <path d="M 265.218216 92.527211 
L 265.218216 102.04 
" clip-path="url(#pae599c5cf4)" style="fill: none; stroke: #0000ff; stroke-width: 1.5"/>
    <path d="M 272.068509 86.432565 
L 272.068509 102.04 
" clip-path="url(#pae599c5cf4)" style="fill: none; stroke: #0000ff; stroke-width: 1.5"/>
    <path d="M 272.498808 88.112853 
L 272.498808 102.04 
" clip-path="url(#pae599c5cf4)" style="fill: none; stroke: #0000ff; stroke-width: 1.5"/>
    <path d="M 273.585583 89.195471 
L 273.585583 102.04 
" clip-path="url(#pae599c5cf4)" style="fill: none; stroke: #0000ff; stroke-width: 1.5"/>
    <path d="M 273.801159 95.334378 
L 273.801159 102.04 
" clip-path="url(#pae599c5cf4)" style="fill: none; stroke: #0000ff; stroke-width: 1.5"/>
    <path d="M 275.780586 95.617181 
L 275.780586 102.04 
" clip-path="url(#pae599c5cf4)" style="fill: none; stroke: #0000ff; stroke-width: 1.5"/>
    <path d="M 277.2 96.722787 
L 277.2 102.04 
" clip-path="url(#pae599c5cf4)" style="fill: none; stroke: #0000ff; stroke-width: 1.5"/>
   </g>
   <g id="patch_3">
    <path d="M 63.83 102.04 
L 63.83 10.8 
" style="fill: none; stroke: #000000; stroke-width: 0.8; stroke-linejoin: miter; stroke-linecap: square"/>
   </g>
   <g id="patch_4">
    <path d="M 277.2 102.04 
L 277.2 10.8 
" style="fill: none; stroke: #000000; stroke-width: 0.8; stroke-linejoin: miter; stroke-linecap: square"/>
   </g>
   <g id="patch_5">
    <path d="M 63.83 102.04 
L 277.2 102.04 
" style="fill: none; stroke: #000000; stroke-width: 0.8; stroke-linejoin: miter; stroke-linecap: square"/>
   </g>
   <g id="patch_6">
    <path d="M 63.83 10.8 
L 277.2 10.8 
" style="fill: none; stroke: #000000; stroke-width: 0.8; stroke-linejoin: miter; stroke-linecap: square"/>
   </g>
  </g>
 </g>
 <defs>
  <clipPath id="pae599c5cf4">
   <rect x="63.83" y="10.8" width="213.37" height="91.24"/>
  </clipPath>
 </defs>
</svg>
