<?xml version="1.0" encoding="utf-8" standalone="no"?>
<!DOCTYPE svg PUBLIC "-//W3C//DTD SVG 1.1//EN"
  "http://www.w3.org/Graphics/SVG/1.1/DTD/svg11.dtd">
<svg xmlns:xlink="http://www.w3.org/1999/xlink" width="288pt" height="144pt" viewBox="0 0 288 144" xmlns="http://www.w3.org/2000/svg" version="1.1">
 <metadata>
  <rdf:RDF xmlns:dc="http://purl.org/dc/elements/1.1/" xmlns:cc="http://creativecommons.org/ns#" xmlns:rdf="http://www.w3.org/1999/02/22-rdf-syntax-ns#">
   <cc:Work>
    <dc:type rdf:resource="http://purl.org/dc/dcmitype/StillImage"/>
    <dc:date>2022-04-04T13:17:03.424351</dc:date>
    <dc:format>image/svg+xml</dc:format>
    <dc:creator>
     <cc:Agent>
      <dc:title>Matplotlib v3.5.1, https://matplotlib.org/</dc:title>
     </cc:Agent>
    </dc:creator>
   </cc:Work>
  </rdf:RDF>
 </metadata>
 <defs>
  <style type="text/css">*{stroke-linejoin: round; stroke-linecap: butt}</style>
 </defs>
 <g id="figure_1">
  <g id="patch_1">
   <path d="M 0 144 
L 288 144 
L 288 0 
L 0 0 
L 0 144 
z
" style="fill: none"/>
  </g>
  <g id="axes_1">
   <g id="patch_2">
    <path d="M 70.05 102.2 
L 264.45 102.2 
L 264.45 13.544811 
L 70.05 13.544811 
z
" style="fill: #ffffff"/>
   </g>
   <g id="matplotlib.axis_1">
    <g id="xtick_1">
     <g id="line2d_1">
      <defs>
       <path id="m1a74489be1" d="M 0 0 
L 0 3.5 
" style="stroke: #000000; stroke-width: 0.8"/>
      </defs>
      <g>
       <use xlink:href="#m1a74489be1" x="70.05" y="102.2" style="stroke: #000000; stroke-width: 0.8"/>
      </g>
     </g>
     <g id="text_1">
      <!-- 0 -->
      <g transform="translate(66.86875 116.798437)scale(0.1 -0.1)">
       <defs>
        <path id="DejaVuSans-30" d="M 2034 4250 
Q 1547 4250 1301 3770 
Q 1056 3291 1056 2328 
Q 1056 1369 1301 889 
Q 1547 409 2034 409 
Q 2525 409 2770 889 
Q 3016 1369 3016 2328 
Q 3016 3291 2770 3770 
Q 2525 4250 2034 4250 
z
M 2034 4750 
Q 2819 4750 3233 4129 
Q 3647 3509 3647 2328 
Q 3647 1150 3233 529 
Q 2819 -91 2034 -91 
Q 1250 -91 836 529 
Q 422 1150 422 2328 
Q 422 3509 836 4129 
Q 1250 4750 2034 4750 
z
" transform="scale(0.015625)"/>
       </defs>
       <use xlink:href="#DejaVuSans-30"/>
      </g>
     </g>
    </g>
    <g id="xtick_2">
     <g id="line2d_2">
      <g>
       <use xlink:href="#m1a74489be1" x="118.65" y="102.2" style="stroke: #000000; stroke-width: 0.8"/>
      </g>
     </g>
     <g id="text_2">
      <!-- 500 -->
      <g transform="translate(109.10625 116.798437)scale(0.1 -0.1)">
       <defs>
        <path id="DejaVuSans-35" d="M 691 4666 
L 3169 4666 
L 3169 4134 
L 1269 4134 
L 1269 2991 
Q 1406 3038 1543 3061 
Q 1681 3084 1819 3084 
Q 2600 3084 3056 2656 
Q 3513 2228 3513 1497 
Q 3513 744 3044 326 
Q 2575 -91 1722 -91 
Q 1428 -91 1123 -41 
Q 819 9 494 109 
L 494 744 
Q 775 591 1075 516 
Q 1375 441 1709 441 
Q 2250 441 2565 725 
Q 2881 1009 2881 1497 
Q 2881 1984 2565 2268 
Q 2250 2553 1709 2553 
Q 1456 2553 1204 2497 
Q 953 2441 691 2322 
L 691 4666 
z
" transform="scale(0.015625)"/>
       </defs>
       <use xlink:href="#DejaVuSans-35"/>
       <use xlink:href="#DejaVuSans-30" x="63.623047"/>
       <use xlink:href="#DejaVuSans-30" x="127.246094"/>
      </g>
     </g>
    </g>
    <g id="xtick_3">
     <g id="line2d_3">
      <g>
       <use xlink:href="#m1a74489be1" x="167.25" y="102.2" style="stroke: #000000; stroke-width: 0.8"/>
      </g>
     </g>
     <g id="text_3">
      <!-- 1000 -->
      <g transform="translate(154.525 116.798437)scale(0.1 -0.1)">
       <defs>
        <path id="DejaVuSans-31" d="M 794 531 
L 1825 531 
L 1825 4091 
L 703 3866 
L 703 4441 
L 1819 4666 
L 2450 4666 
L 2450 531 
L 3481 531 
L 3481 0 
L 794 0 
L 794 531 
z
" transform="scale(0.015625)"/>
       </defs>
       <use xlink:href="#DejaVuSans-31"/>
       <use xlink:href="#DejaVuSans-30" x="63.623047"/>
       <use xlink:href="#DejaVuSans-30" x="127.246094"/>
       <use xlink:href="#DejaVuSans-30" x="190.869141"/>
      </g>
     </g>
    </g>
    <g id="xtick_4">
     <g id="line2d_4">
      <g>
       <use xlink:href="#m1a74489be1" x="215.85" y="102.2" style="stroke: #000000; stroke-width: 0.8"/>
      </g>
     </g>
     <g id="text_4">
      <!-- 1500 -->
      <g transform="translate(203.125 116.798437)scale(0.1 -0.1)">
       <use xlink:href="#DejaVuSans-31"/>
       <use xlink:href="#DejaVuSans-35" x="63.623047"/>
       <use xlink:href="#DejaVuSans-30" x="127.246094"/>
       <use xlink:href="#DejaVuSans-30" x="190.869141"/>
      </g>
     </g>
    </g>
    <g id="xtick_5">
     <g id="line2d_5">
      <g>
       <use xlink:href="#m1a74489be1" x="264.45" y="102.2" style="stroke: #000000; stroke-width: 0.8"/>
      </g>
     </g>
     <g id="text_5">
      <!-- 2000 -->
      <g transform="translate(251.725 116.798437)scale(0.1 -0.1)">
       <defs>
        <path id="DejaVuSans-32" d="M 1228 531 
L 3431 531 
L 3431 0 
L 469 0 
L 469 531 
Q 828 903 1448 1529 
Q 2069 2156 2228 2338 
Q 2531 2678 2651 2914 
Q 2772 3150 2772 3378 
Q 2772 3750 2511 3984 
Q 2250 4219 1831 4219 
Q 1534 4219 1204 4116 
Q 875 4013 500 3803 
L 500 4441 
Q 881 4594 1212 4672 
Q 1544 4750 1819 4750 
Q 2544 4750 2975 4387 
Q 3406 4025 3406 3419 
Q 3406 3131 3298 2873 
Q 3191 2616 2906 2266 
Q 2828 2175 2409 1742 
Q 1991 1309 1228 531 
z
" transform="scale(0.015625)"/>
       </defs>
       <use xlink:href="#DejaVuSans-32"/>
       <use xlink:href="#DejaVuSans-30" x="63.623047"/>
       <use xlink:href="#DejaVuSans-30" x="127.246094"/>
       <use xlink:href="#DejaVuSans-30" x="190.869141"/>
      </g>
     </g>
    </g>
    <g id="text_6">
     <!-- m/z -->
     <g transform="translate(158.071094 130.476562)scale(0.1 -0.1)">
      <defs>
       <path id="DejaVuSans-6d" d="M 3328 2828 
Q 3544 3216 3844 3400 
Q 4144 3584 4550 3584 
Q 5097 3584 5394 3201 
Q 5691 2819 5691 2113 
L 5691 0 
L 5113 0 
L 5113 2094 
Q 5113 2597 4934 2840 
Q 4756 3084 4391 3084 
Q 3944 3084 3684 2787 
Q 3425 2491 3425 1978 
L 3425 0 
L 2847 0 
L 2847 2094 
Q 2847 2600 2669 2842 
Q 2491 3084 2119 3084 
Q 1678 3084 1418 2786 
Q 1159 2488 1159 1978 
L 1159 0 
L 581 0 
L 581 3500 
L 1159 3500 
L 1159 2956 
Q 1356 3278 1631 3431 
Q 1906 3584 2284 3584 
Q 2666 3584 2933 3390 
Q 3200 3197 3328 2828 
z
" transform="scale(0.015625)"/>
       <path id="DejaVuSans-2f" d="M 1625 4666 
L 2156 4666 
L 531 -594 
L 0 -594 
L 1625 4666 
z
" transform="scale(0.015625)"/>
       <path id="DejaVuSans-7a" d="M 353 3500 
L 3084 3500 
L 3084 2975 
L 922 459 
L 3084 459 
L 3084 0 
L 275 0 
L 275 525 
L 2438 3041 
L 353 3041 
L 353 3500 
z
" transform="scale(0.015625)"/>
      </defs>
      <use xlink:href="#DejaVuSans-6d"/>
      <use xlink:href="#DejaVuSans-2f" x="97.412109"/>
      <use xlink:href="#DejaVuSans-7a" x="131.103516"/>
     </g>
    </g>
   </g>
   <g id="matplotlib.axis_2">
    <g id="ytick_1">
     <g id="line2d_6">
      <defs>
       <path id="m6e2eb2e873" d="M 0 0 
L -3.5 0 
" style="stroke: #000000; stroke-width: 0.8"/>
      </defs>
      <g>
       <use xlink:href="#m6e2eb2e873" x="70.05" y="102.2" style="stroke: #000000; stroke-width: 0.8"/>
      </g>
     </g>
     <g id="text_7">
      <!-- 0 -->
      <g transform="translate(56.6875 105.999219)scale(0.1 -0.1)">
       <use xlink:href="#DejaVuSans-30"/>
      </g>
     </g>
    </g>
    <g id="ytick_2">
     <g id="line2d_7">
      <g>
       <use xlink:href="#m6e2eb2e873" x="70.05" y="58.384174" style="stroke: #000000; stroke-width: 0.8"/>
      </g>
     </g>
     <g id="text_8">
      <!-- 50000 -->
      <g transform="translate(31.2375 62.183393)scale(0.1 -0.1)">
       <use xlink:href="#DejaVuSans-35"/>
       <use xlink:href="#DejaVuSans-30" x="63.623047"/>
       <use xlink:href="#DejaVuSans-30" x="127.246094"/>
       <use xlink:href="#DejaVuSans-30" x="190.869141"/>
       <use xlink:href="#DejaVuSans-30" x="254.492188"/>
      </g>
     </g>
    </g>
    <g id="ytick_3">
     <g id="line2d_8">
      <g>
       <use xlink:href="#m6e2eb2e873" x="70.05" y="14.568349" style="stroke: #000000; stroke-width: 0.8"/>
      </g>
     </g>
     <g id="text_9">
      <!-- 100000 -->
      <g transform="translate(24.875 18.367567)scale(0.1 -0.1)">
       <use xlink:href="#DejaVuSans-31"/>
       <use xlink:href="#DejaVuSans-30" x="63.623047"/>
       <use xlink:href="#DejaVuSans-30" x="127.246094"/>
       <use xlink:href="#DejaVuSans-30" x="190.869141"/>
       <use xlink:href="#DejaVuSans-30" x="254.492188"/>
       <use xlink:href="#DejaVuSans-30" x="318.115234"/>
      </g>
     </g>
    </g>
    <g id="text_10">
     <!-- Intensity -->
     <g transform="translate(18.795312 79.634906)rotate(-90)scale(0.1 -0.1)">
      <defs>
       <path id="DejaVuSans-49" d="M 628 4666 
L 1259 4666 
L 1259 0 
L 628 0 
L 628 4666 
z
" transform="scale(0.015625)"/>
       <path id="DejaVuSans-6e" d="M 3513 2113 
L 3513 0 
L 2938 0 
L 2938 2094 
Q 2938 2591 2744 2837 
Q 2550 3084 2163 3084 
Q 1697 3084 1428 2787 
Q 1159 2491 1159 1978 
L 1159 0 
L 581 0 
L 581 3500 
L 1159 3500 
L 1159 2956 
Q 1366 3272 1645 3428 
Q 1925 3584 2291 3584 
Q 2894 3584 3203 3211 
Q 3513 2838 3513 2113 
z
" transform="scale(0.015625)"/>
       <path id="DejaVuSans-74" d="M 1172 4494 
L 1172 3500 
L 2356 3500 
L 2356 3053 
L 1172 3053 
L 1172 1153 
Q 1172 725 1289 603 
Q 1406 481 1766 481 
L 2356 481 
L 2356 0 
L 1766 0 
Q 1100 0 847 248 
Q 594 497 594 1153 
L 594 3053 
L 172 3053 
L 172 3500 
L 594 3500 
L 594 4494 
L 1172 4494 
z
" transform="scale(0.015625)"/>
       <path id="DejaVuSans-65" d="M 3597 1894 
L 3597 1613 
L 953 1613 
Q 991 1019 1311 708 
Q 1631 397 2203 397 
Q 2534 397 2845 478 
Q 3156 559 3463 722 
L 3463 178 
Q 3153 47 2828 -22 
Q 2503 -91 2169 -91 
Q 1331 -91 842 396 
Q 353 884 353 1716 
Q 353 2575 817 3079 
Q 1281 3584 2069 3584 
Q 2775 3584 3186 3129 
Q 3597 2675 3597 1894 
z
M 3022 2063 
Q 3016 2534 2758 2815 
Q 2500 3097 2075 3097 
Q 1594 3097 1305 2825 
Q 1016 2553 972 2059 
L 3022 2063 
z
" transform="scale(0.015625)"/>
       <path id="DejaVuSans-73" d="M 2834 3397 
L 2834 2853 
Q 2591 2978 2328 3040 
Q 2066 3103 1784 3103 
Q 1356 3103 1142 2972 
Q 928 2841 928 2578 
Q 928 2378 1081 2264 
Q 1234 2150 1697 2047 
L 1894 2003 
Q 2506 1872 2764 1633 
Q 3022 1394 3022 966 
Q 3022 478 2636 193 
Q 2250 -91 1575 -91 
Q 1294 -91 989 -36 
Q 684 19 347 128 
L 347 722 
Q 666 556 975 473 
Q 1284 391 1588 391 
Q 1994 391 2212 530 
Q 2431 669 2431 922 
Q 2431 1156 2273 1281 
Q 2116 1406 1581 1522 
L 1381 1569 
Q 847 1681 609 1914 
Q 372 2147 372 2553 
Q 372 3047 722 3315 
Q 1072 3584 1716 3584 
Q 2034 3584 2315 3537 
Q 2597 3491 2834 3397 
z
" transform="scale(0.015625)"/>
       <path id="DejaVuSans-69" d="M 603 3500 
L 1178 3500 
L 1178 0 
L 603 0 
L 603 3500 
z
M 603 4863 
L 1178 4863 
L 1178 4134 
L 603 4134 
L 603 4863 
z
" transform="scale(0.015625)"/>
       <path id="DejaVuSans-79" d="M 2059 -325 
Q 1816 -950 1584 -1140 
Q 1353 -1331 966 -1331 
L 506 -1331 
L 506 -850 
L 844 -850 
Q 1081 -850 1212 -737 
Q 1344 -625 1503 -206 
L 1606 56 
L 191 3500 
L 800 3500 
L 1894 763 
L 2988 3500 
L 3597 3500 
L 2059 -325 
z
" transform="scale(0.015625)"/>
      </defs>
      <use xlink:href="#DejaVuSans-49"/>
      <use xlink:href="#DejaVuSans-6e" x="29.492188"/>
      <use xlink:href="#DejaVuSans-74" x="92.871094"/>
      <use xlink:href="#DejaVuSans-65" x="132.080078"/>
      <use xlink:href="#DejaVuSans-6e" x="193.603516"/>
      <use xlink:href="#DejaVuSans-73" x="256.982422"/>
      <use xlink:href="#DejaVuSans-69" x="309.082031"/>
      <use xlink:href="#DejaVuSans-74" x="336.865234"/>
      <use xlink:href="#DejaVuSans-79" x="376.074219"/>
     </g>
    </g>
   </g>
   <g id="LineCollection_1">
    <path d="M 83.957512 93.82627 
L 83.957512 102.2 
" clip-path="url(#pd83d165880)" style="fill: none; stroke: #0000ff"/>
    <path d="M 86.486228 97.6655 
L 86.486228 102.2 
" clip-path="url(#pd83d165880)" style="fill: none; stroke: #0000ff"/>
    <path d="M 86.682145 100.072128 
L 86.682145 102.2 
" clip-path="url(#pd83d165880)" style="fill: none; stroke: #0000ff"/>
    <path d="M 87.070391 101.169715 
L 87.070391 102.2 
" clip-path="url(#pd83d165880)" style="fill: none; stroke: #0000ff"/>
    <path d="M 87.071538 95.358685 
L 87.071538 102.2 
" clip-path="url(#pd83d165880)" style="fill: none; stroke: #0000ff"/>
    <path d="M 87.357869 101.634688 
L 87.357869 102.2 
" clip-path="url(#pd83d165880)" style="fill: none; stroke: #0000ff"/>
    <path d="M 87.652638 99.900808 
L 87.652638 102.2 
" clip-path="url(#pd83d165880)" style="fill: none; stroke: #0000ff"/>
    <path d="M 87.852131 100.648219 
L 87.852131 102.2 
" clip-path="url(#pd83d165880)" style="fill: none; stroke: #0000ff"/>
    <path d="M 88.040952 98.691229 
L 88.040952 102.2 
" clip-path="url(#pd83d165880)" style="fill: none; stroke: #0000ff"/>
    <path d="M 88.044519 101.33823 
L 88.044519 102.2 
" clip-path="url(#pd83d165880)" style="fill: none; stroke: #0000ff"/>
    <path d="M 89.40323 99.69873 
L 89.40323 102.2 
" clip-path="url(#pd83d165880)" style="fill: none; stroke: #0000ff"/>
    <path d="M 89.791534 100.249933 
L 89.791534 102.2 
" clip-path="url(#pd83d165880)" style="fill: none; stroke: #0000ff"/>
    <path d="M 89.821646 101.770868 
L 89.821646 102.2 
" clip-path="url(#pd83d165880)" style="fill: none; stroke: #0000ff"/>
    <path d="M 89.886605 98.228534 
L 89.886605 102.2 
" clip-path="url(#pd83d165880)" style="fill: none; stroke: #0000ff"/>
    <path d="M 90.573177 100.735237 
L 90.573177 102.2 
" clip-path="url(#pd83d165880)" style="fill: none; stroke: #0000ff"/>
    <path d="M 90.666412 96.101626 
L 90.666412 102.2 
" clip-path="url(#pd83d165880)" style="fill: none; stroke: #0000ff"/>
    <path d="M 90.862318 81.181724 
L 90.862318 102.2 
" clip-path="url(#pd83d165880)" style="fill: none; stroke: #0000ff"/>
    <path d="M 90.952675 101.29275 
L 90.952675 102.2 
" clip-path="url(#pd83d165880)" style="fill: none; stroke: #0000ff"/>
    <path d="M 90.959849 100.496879 
L 90.959849 102.2 
" clip-path="url(#pd83d165880)" style="fill: none; stroke: #0000ff"/>
    <path d="M 90.96153 100.751712 
L 90.96153 102.2 
" clip-path="url(#pd83d165880)" style="fill: none; stroke: #0000ff"/>
    <path d="M 91.054599 101.645642 
L 91.054599 102.2 
" clip-path="url(#pd83d165880)" style="fill: none; stroke: #0000ff"/>
    <path d="M 92.321426 101.34971 
L 92.321426 102.2 
" clip-path="url(#pd83d165880)" style="fill: none; stroke: #0000ff"/>
    <path d="M 92.517255 101.672633 
L 92.517255 102.2 
" clip-path="url(#pd83d165880)" style="fill: none; stroke: #0000ff"/>
    <path d="M 92.607671 91.836155 
L 92.607671 102.2 
" clip-path="url(#pd83d165880)" style="fill: none; stroke: #0000ff"/>
    <path d="M 92.91075 101.720392 
L 92.91075 102.2 
" clip-path="url(#pd83d165880)" style="fill: none; stroke: #0000ff"/>
    <path d="M 93.391064 99.399643 
L 93.391064 102.2 
" clip-path="url(#pd83d165880)" style="fill: none; stroke: #0000ff"/>
    <path d="M 93.583452 101.301337 
L 93.583452 102.2 
" clip-path="url(#pd83d165880)" style="fill: none; stroke: #0000ff"/>
    <path d="M 93.976344 100.872556 
L 93.976344 102.2 
" clip-path="url(#pd83d165880)" style="fill: none; stroke: #0000ff"/>
    <path d="M 94.850133 101.506921 
L 94.850133 102.2 
" clip-path="url(#pd83d165880)" style="fill: none; stroke: #0000ff"/>
    <path d="M 94.949257 100.9934 
L 94.949257 102.2 
" clip-path="url(#pd83d165880)" style="fill: none; stroke: #0000ff"/>
    <path d="M 95.046001 99.112211 
L 95.046001 102.2 
" clip-path="url(#pd83d165880)" style="fill: none; stroke: #0000ff"/>
    <path d="M 95.136358 101.219314 
L 95.136358 102.2 
" clip-path="url(#pd83d165880)" style="fill: none; stroke: #0000ff"/>
    <path d="M 96.115696 100.777125 
L 96.115696 102.2 
" clip-path="url(#pd83d165880)" style="fill: none; stroke: #0000ff"/>
    <path d="M 97.477964 100.848545 
L 97.477964 102.2 
" clip-path="url(#pd83d165880)" style="fill: none; stroke: #0000ff"/>
    <path d="M 97.571208 92.876781 
L 97.571208 102.2 
" clip-path="url(#pd83d165880)" style="fill: none; stroke: #0000ff"/>
    <path d="M 97.668826 101.305281 
L 97.668826 102.2 
" clip-path="url(#pd83d165880)" style="fill: none; stroke: #0000ff"/>
    <path d="M 97.767115 91.723373 
L 97.767115 102.2 
" clip-path="url(#pd83d165880)" style="fill: none; stroke: #0000ff"/>
    <path d="M 97.864742 101.259888 
L 97.864742 102.2 
" clip-path="url(#pd83d165880)" style="fill: none; stroke: #0000ff"/>
    <path d="M 97.866317 99.980115 
L 97.866317 102.2 
" clip-path="url(#pd83d165880)" style="fill: none; stroke: #0000ff"/>
    <path d="M 98.565175 101.736691 
L 98.565175 102.2 
" clip-path="url(#pd83d165880)" style="fill: none; stroke: #0000ff"/>
    <path d="M 99.032804 100.946955 
L 99.032804 102.2 
" clip-path="url(#pd83d165880)" style="fill: none; stroke: #0000ff"/>
    <path d="M 99.422071 99.891344 
L 99.422071 102.2 
" clip-path="url(#pd83d165880)" style="fill: none; stroke: #0000ff"/>
    <path d="M 99.512496 88.369535 
L 99.512496 102.2 
" clip-path="url(#pd83d165880)" style="fill: none; stroke: #0000ff"/>
    <path d="M 99.609988 101.021442 
L 99.609988 102.2 
" clip-path="url(#pd83d165880)" style="fill: none; stroke: #0000ff"/>
    <path d="M 100.099944 101.371881 
L 100.099944 102.2 
" clip-path="url(#pd83d165880)" style="fill: none; stroke: #0000ff"/>
    <path d="M 100.295841 100.153626 
L 100.295841 102.2 
" clip-path="url(#pd83d165880)" style="fill: none; stroke: #0000ff"/>
    <path d="M 100.881198 100.346591 
L 100.881198 102.2 
" clip-path="url(#pd83d165880)" style="fill: none; stroke: #0000ff"/>
    <path d="M 101.85419 101.357685 
L 101.85419 102.2 
" clip-path="url(#pd83d165880)" style="fill: none; stroke: #0000ff"/>
    <path d="M 101.947609 101.20836 
L 101.947609 102.2 
" clip-path="url(#pd83d165880)" style="fill: none; stroke: #0000ff"/>
    <path d="M 102.041174 99.503048 
L 102.041174 102.2 
" clip-path="url(#pd83d165880)" style="fill: none; stroke: #0000ff"/>
    <path d="M 102.233775 101.446894 
L 102.233775 102.2 
" clip-path="url(#pd83d165880)" style="fill: none; stroke: #0000ff"/>
    <path d="M 102.828095 100.226535 
L 102.828095 102.2 
" clip-path="url(#pd83d165880)" style="fill: none; stroke: #0000ff"/>
    <path d="M 103.020561 101.130193 
L 103.020561 102.2 
" clip-path="url(#pd83d165880)" style="fill: none; stroke: #0000ff"/>
    <path d="M 103.213026 101.503591 
L 103.213026 102.2 
" clip-path="url(#pd83d165880)" style="fill: none; stroke: #0000ff"/>
    <path d="M 103.599445 96.431909 
L 103.599445 102.2 
" clip-path="url(#pd83d165880)" style="fill: none; stroke: #0000ff"/>
    <path d="M 103.696179 101.007158 
L 103.696179 102.2 
" clip-path="url(#pd83d165880)" style="fill: none; stroke: #0000ff"/>
    <path d="M 104.382877 100.62263 
L 104.382877 102.2 
" clip-path="url(#pd83d165880)" style="fill: none; stroke: #0000ff"/>
    <path d="M 104.475995 94.034921 
L 104.475995 102.2 
" clip-path="url(#pd83d165880)" style="fill: none; stroke: #0000ff"/>
    <path d="M 104.573428 101.066309 
L 104.573428 102.2 
" clip-path="url(#pd83d165880)" style="fill: none; stroke: #0000ff"/>
    <path d="M 104.671989 100.622367 
L 104.671989 102.2 
" clip-path="url(#pd83d165880)" style="fill: none; stroke: #0000ff"/>
    <path d="M 104.770909 101.598409 
L 104.770909 102.2 
" clip-path="url(#pd83d165880)" style="fill: none; stroke: #0000ff"/>
    <path d="M 104.867672 101.658086 
L 104.867672 102.2 
" clip-path="url(#pd83d165880)" style="fill: none; stroke: #0000ff"/>
    <path d="M 105.371343 101.705933 
L 105.371343 102.2 
" clip-path="url(#pd83d165880)" style="fill: none; stroke: #0000ff"/>
    <path d="M 105.549199 99.76717 
L 105.549199 102.2 
" clip-path="url(#pd83d165880)" style="fill: none; stroke: #0000ff"/>
    <path d="M 105.646701 101.581759 
L 105.646701 102.2 
" clip-path="url(#pd83d165880)" style="fill: none; stroke: #0000ff"/>
    <path d="M 105.838476 101.602352 
L 105.838476 102.2 
" clip-path="url(#pd83d165880)" style="fill: none; stroke: #0000ff"/>
    <path d="M 105.954747 101.599197 
L 105.954747 102.2 
" clip-path="url(#pd83d165880)" style="fill: none; stroke: #0000ff"/>
    <path d="M 106.061764 98.544446 
L 106.061764 102.2 
" clip-path="url(#pd83d165880)" style="fill: none; stroke: #0000ff"/>
    <path d="M 106.22506 101.468188 
L 106.22506 102.2 
" clip-path="url(#pd83d165880)" style="fill: none; stroke: #0000ff"/>
    <path d="M 106.417283 93.020059 
L 106.417283 102.2 
" clip-path="url(#pd83d165880)" style="fill: none; stroke: #0000ff"/>
    <path d="M 106.514872 101.225098 
L 106.514872 102.2 
" clip-path="url(#pd83d165880)" style="fill: none; stroke: #0000ff"/>
    <path d="M 107.00475 101.358035 
L 107.00475 102.2 
" clip-path="url(#pd83d165880)" style="fill: none; stroke: #0000ff"/>
    <path d="M 107.392869 101.687705 
L 107.392869 102.2 
" clip-path="url(#pd83d165880)" style="fill: none; stroke: #0000ff"/>
    <path d="M 107.588902 101.342875 
L 107.588902 102.2 
" clip-path="url(#pd83d165880)" style="fill: none; stroke: #0000ff"/>
    <path d="M 108.563002 101.345504 
L 108.563002 102.2 
" clip-path="url(#pd83d165880)" style="fill: none; stroke: #0000ff"/>
    <path d="M 108.65853 100.832245 
L 108.65853 102.2 
" clip-path="url(#pd83d165880)" style="fill: none; stroke: #0000ff"/>
    <path d="M 108.758938 101.209587 
L 108.758938 102.2 
" clip-path="url(#pd83d165880)" style="fill: none; stroke: #0000ff"/>
    <path d="M 108.94598 97.927782 
L 108.94598 102.2 
" clip-path="url(#pd83d165880)" style="fill: none; stroke: #0000ff"/>
    <path d="M 109.043491 101.559763 
L 109.043491 102.2 
" clip-path="url(#pd83d165880)" style="fill: none; stroke: #0000ff"/>
    <path d="M 109.138338 101.174447 
L 109.138338 102.2 
" clip-path="url(#pd83d165880)" style="fill: none; stroke: #0000ff"/>
    <path d="M 109.732755 101.423759 
L 109.732755 102.2 
" clip-path="url(#pd83d165880)" style="fill: none; stroke: #0000ff"/>
    <path d="M 109.925474 101.605419 
L 109.925474 102.2 
" clip-path="url(#pd83d165880)" style="fill: none; stroke: #0000ff"/>
    <path d="M 110.504096 100.215932 
L 110.504096 102.2 
" clip-path="url(#pd83d165880)" style="fill: none; stroke: #0000ff"/>
    <path d="M 110.601062 99.392632 
L 110.601062 102.2 
" clip-path="url(#pd83d165880)" style="fill: none; stroke: #0000ff"/>
    <path d="M 110.698437 101.573872 
L 110.698437 102.2 
" clip-path="url(#pd83d165880)" style="fill: none; stroke: #0000ff"/>
    <path d="M 111.091689 101.531721 
L 111.091689 102.2 
" clip-path="url(#pd83d165880)" style="fill: none; stroke: #0000ff"/>
    <path d="M 111.38084 100.017271 
L 111.38084 102.2 
" clip-path="url(#pd83d165880)" style="fill: none; stroke: #0000ff"/>
    <path d="M 111.670583 100.756093 
L 111.670583 102.2 
" clip-path="url(#pd83d165880)" style="fill: none; stroke: #0000ff"/>
    <path d="M 111.872895 84.14788 
L 111.872895 102.2 
" clip-path="url(#pd83d165880)" style="fill: none; stroke: #0000ff"/>
    <path d="M 111.970533 99.36424 
L 111.970533 102.2 
" clip-path="url(#pd83d165880)" style="fill: none; stroke: #0000ff"/>
    <path d="M 112.453967 99.458356 
L 112.453967 102.2 
" clip-path="url(#pd83d165880)" style="fill: none; stroke: #0000ff"/>
    <path d="M 113.032977 101.127476 
L 113.032977 102.2 
" clip-path="url(#pd83d165880)" style="fill: none; stroke: #0000ff"/>
    <path d="M 113.322099 92.697311 
L 113.322099 102.2 
" clip-path="url(#pd83d165880)" style="fill: none; stroke: #0000ff"/>
    <path d="M 113.419328 100.868875 
L 113.419328 102.2 
" clip-path="url(#pd83d165880)" style="fill: none; stroke: #0000ff"/>
    <path d="M 113.421622 101.087253 
L 113.421622 102.2 
" clip-path="url(#pd83d165880)" style="fill: none; stroke: #0000ff"/>
    <path d="M 114.201156 101.450925 
L 114.201156 102.2 
" clip-path="url(#pd83d165880)" style="fill: none; stroke: #0000ff"/>
    <path d="M 114.687914 100.84206 
L 114.687914 102.2 
" clip-path="url(#pd83d165880)" style="fill: none; stroke: #0000ff"/>
    <path d="M 115.850844 100.315657 
L 115.850844 102.2 
" clip-path="url(#pd83d165880)" style="fill: none; stroke: #0000ff"/>
    <path d="M 116.043786 101.556871 
L 116.043786 102.2 
" clip-path="url(#pd83d165880)" style="fill: none; stroke: #0000ff"/>
    <path d="M 116.145652 101.519891 
L 116.145652 102.2 
" clip-path="url(#pd83d165880)" style="fill: none; stroke: #0000ff"/>
    <path d="M 117.408931 99.569123 
L 117.408931 102.2 
" clip-path="url(#pd83d165880)" style="fill: none; stroke: #0000ff"/>
    <path d="M 117.505752 99.692771 
L 117.505752 102.2 
" clip-path="url(#pd83d165880)" style="fill: none; stroke: #0000ff"/>
    <path d="M 117.753835 100.448681 
L 117.753835 102.2 
" clip-path="url(#pd83d165880)" style="fill: none; stroke: #0000ff"/>
    <path d="M 117.996311 101.496668 
L 117.996311 102.2 
" clip-path="url(#pd83d165880)" style="fill: none; stroke: #0000ff"/>
    <path d="M 118.580832 101.499998 
L 118.580832 102.2 
" clip-path="url(#pd83d165880)" style="fill: none; stroke: #0000ff"/>
    <path d="M 119.162779 100.817961 
L 119.162779 102.2 
" clip-path="url(#pd83d165880)" style="fill: none; stroke: #0000ff"/>
    <path d="M 119.937793 100.32258 
L 119.937793 102.2 
" clip-path="url(#pd83d165880)" style="fill: none; stroke: #0000ff"/>
    <path d="M 120.226876 95.970967 
L 120.226876 102.2 
" clip-path="url(#pd83d165880)" style="fill: none; stroke: #0000ff"/>
    <path d="M 120.323784 101.169715 
L 120.323784 102.2 
" clip-path="url(#pd83d165880)" style="fill: none; stroke: #0000ff"/>
    <path d="M 121.393042 101.294502 
L 121.393042 102.2 
" clip-path="url(#pd83d165880)" style="fill: none; stroke: #0000ff"/>
    <path d="M 121.398398 101.285038 
L 121.398398 102.2 
" clip-path="url(#pd83d165880)" style="fill: none; stroke: #0000ff"/>
    <path d="M 121.593129 101.146317 
L 121.593129 102.2 
" clip-path="url(#pd83d165880)" style="fill: none; stroke: #0000ff"/>
    <path d="M 121.884038 101.094527 
L 121.884038 102.2 
" clip-path="url(#pd83d165880)" style="fill: none; stroke: #0000ff"/>
    <path d="M 122.070147 101.698396 
L 122.070147 102.2 
" clip-path="url(#pd83d165880)" style="fill: none; stroke: #0000ff"/>
    <path d="M 122.854765 101.54767 
L 122.854765 102.2 
" clip-path="url(#pd83d165880)" style="fill: none; stroke: #0000ff"/>
    <path d="M 123.053559 99.316568 
L 123.053559 102.2 
" clip-path="url(#pd83d165880)" style="fill: none; stroke: #0000ff"/>
    <path d="M 123.144703 101.651426 
L 123.144703 102.2 
" clip-path="url(#pd83d165880)" style="fill: none; stroke: #0000ff"/>
    <path d="M 123.151361 101.485276 
L 123.151361 102.2 
" clip-path="url(#pd83d165880)" style="fill: none; stroke: #0000ff"/>
    <path d="M 123.634698 98.67861 
L 123.634698 102.2 
" clip-path="url(#pd83d165880)" style="fill: none; stroke: #0000ff"/>
    <path d="M 123.732296 101.485627 
L 123.732296 102.2 
" clip-path="url(#pd83d165880)" style="fill: none; stroke: #0000ff"/>
    <path d="M 124.313795 98.646274 
L 124.313795 102.2 
" clip-path="url(#pd83d165880)" style="fill: none; stroke: #0000ff"/>
    <path d="M 124.411394 101.480106 
L 124.411394 102.2 
" clip-path="url(#pd83d165880)" style="fill: none; stroke: #0000ff"/>
    <path d="M 125.480118 101.342787 
L 125.480118 102.2 
" clip-path="url(#pd83d165880)" style="fill: none; stroke: #0000ff"/>
    <path d="M 127.230524 101.090058 
L 127.230524 102.2 
" clip-path="url(#pd83d165880)" style="fill: none; stroke: #0000ff"/>
    <path d="M 128.497488 101.290646 
L 128.497488 102.2 
" clip-path="url(#pd83d165880)" style="fill: none; stroke: #0000ff"/>
    <path d="M 129.277206 100.834261 
L 129.277206 102.2 
" clip-path="url(#pd83d165880)" style="fill: none; stroke: #0000ff"/>
    <path d="M 129.958588 99.99659 
L 129.958588 102.2 
" clip-path="url(#pd83d165880)" style="fill: none; stroke: #0000ff"/>
    <path d="M 131.218728 101.297306 
L 131.218728 102.2 
" clip-path="url(#pd83d165880)" style="fill: none; stroke: #0000ff"/>
    <path d="M 131.905417 101.236753 
L 131.905417 102.2 
" clip-path="url(#pd83d165880)" style="fill: none; stroke: #0000ff"/>
    <path d="M 132.097601 101.653441 
L 132.097601 102.2 
" clip-path="url(#pd83d165880)" style="fill: none; stroke: #0000ff"/>
    <path d="M 132.384924 100.99708 
L 132.384924 102.2 
" clip-path="url(#pd83d165880)" style="fill: none; stroke: #0000ff"/>
    <path d="M 134.135301 101.414119 
L 134.135301 102.2 
" clip-path="url(#pd83d165880)" style="fill: none; stroke: #0000ff"/>
    <path d="M 134.62622 100.258784 
L 134.62622 102.2 
" clip-path="url(#pd83d165880)" style="fill: none; stroke: #0000ff"/>
    <path d="M 134.723983 101.6594 
L 134.723983 102.2 
" clip-path="url(#pd83d165880)" style="fill: none; stroke: #0000ff"/>
    <path d="M 137.958974 101.354442 
L 137.958974 102.2 
" clip-path="url(#pd83d165880)" style="fill: none; stroke: #0000ff"/>
    <path d="M 139.146681 101.607084 
L 139.146681 102.2 
" clip-path="url(#pd83d165880)" style="fill: none; stroke: #0000ff"/>
    <path d="M 139.28974 101.528128 
L 139.28974 102.2 
" clip-path="url(#pd83d165880)" style="fill: none; stroke: #0000ff"/>
    <path d="M 140.874197 101.613131 
L 140.874197 102.2 
" clip-path="url(#pd83d165880)" style="fill: none; stroke: #0000ff"/>
    <path d="M 140.949906 101.026174 
L 140.949906 102.2 
" clip-path="url(#pd83d165880)" style="fill: none; stroke: #0000ff"/>
    <path d="M 141.040681 101.447244 
L 141.040681 102.2 
" clip-path="url(#pd83d165880)" style="fill: none; stroke: #0000ff"/>
    <path d="M 141.531337 100.588279 
L 141.531337 102.2 
" clip-path="url(#pd83d165880)" style="fill: none; stroke: #0000ff"/>
    <path d="M 141.565075 101.676839 
L 141.565075 102.2 
" clip-path="url(#pd83d165880)" style="fill: none; stroke: #0000ff"/>
    <path d="M 141.629023 101.563444 
L 141.629023 102.2 
" clip-path="url(#pd83d165880)" style="fill: none; stroke: #0000ff"/>
    <path d="M 143.78383 101.687881 
L 143.78383 102.2 
" clip-path="url(#pd83d165880)" style="fill: none; stroke: #0000ff"/>
    <path d="M 148.253562 101.674648 
L 148.253562 102.2 
" clip-path="url(#pd83d165880)" style="fill: none; stroke: #0000ff"/>
    <path d="M 148.436007 101.436641 
L 148.436007 102.2 
" clip-path="url(#pd83d165880)" style="fill: none; stroke: #0000ff"/>
    <path d="M 148.533129 101.580619 
L 148.533129 102.2 
" clip-path="url(#pd83d165880)" style="fill: none; stroke: #0000ff"/>
    <path d="M 148.728229 101.282497 
L 148.728229 102.2 
" clip-path="url(#pd83d165880)" style="fill: none; stroke: #0000ff"/>
    <path d="M 150.383535 97.038759 
L 150.383535 102.2 
" clip-path="url(#pd83d165880)" style="fill: none; stroke: #0000ff"/>
    <path d="M 150.481231 100.706669 
L 150.481231 102.2 
" clip-path="url(#pd83d165880)" style="fill: none; stroke: #0000ff"/>
    <path d="M 151.253845 96.500876 
L 151.253845 102.2 
" clip-path="url(#pd83d165880)" style="fill: none; stroke: #0000ff"/>
    <path d="M 151.351045 101.450136 
L 151.351045 102.2 
" clip-path="url(#pd83d165880)" style="fill: none; stroke: #0000ff"/>
    <path d="M 153.207244 100.471641 
L 153.207244 102.2 
" clip-path="url(#pd83d165880)" style="fill: none; stroke: #0000ff"/>
    <path d="M 155.926103 92.536595 
L 155.926103 102.2 
" clip-path="url(#pd83d165880)" style="fill: none; stroke: #0000ff"/>
    <path d="M 156.023507 98.575292 
L 156.023507 102.2 
" clip-path="url(#pd83d165880)" style="fill: none; stroke: #0000ff"/>
    <path d="M 159.524641 101.411403 
L 159.524641 102.2 
" clip-path="url(#pd83d165880)" style="fill: none; stroke: #0000ff"/>
    <path d="M 159.713413 96.362067 
L 159.713413 102.2 
" clip-path="url(#pd83d165880)" style="fill: none; stroke: #0000ff"/>
    <path d="M 159.811119 101.319828 
L 159.811119 102.2 
" clip-path="url(#pd83d165880)" style="fill: none; stroke: #0000ff"/>
    <path d="M 161.27534 101.591486 
L 161.27534 102.2 
" clip-path="url(#pd83d165880)" style="fill: none; stroke: #0000ff"/>
    <path d="M 162.787315 101.623559 
L 162.787315 102.2 
" clip-path="url(#pd83d165880)" style="fill: none; stroke: #0000ff"/>
    <path d="M 163.609481 101.273909 
L 163.609481 102.2 
" clip-path="url(#pd83d165880)" style="fill: none; stroke: #0000ff"/>
    <path d="M 163.704786 97.328381 
L 163.704786 102.2 
" clip-path="url(#pd83d165880)" style="fill: none; stroke: #0000ff"/>
    <path d="M 163.802083 99.537838 
L 163.802083 102.2 
" clip-path="url(#pd83d165880)" style="fill: none; stroke: #0000ff"/>
    <path d="M 165.359616 13.544811 
L 165.359616 102.2 
" clip-path="url(#pd83d165880)" style="fill: none; stroke: #0000ff"/>
    <path d="M 165.457117 59.413759 
L 165.457117 102.2 
" clip-path="url(#pd83d165880)" style="fill: none; stroke: #0000ff"/>
    <path d="M 165.554443 99.42269 
L 165.554443 102.2 
" clip-path="url(#pd83d165880)" style="fill: none; stroke: #0000ff"/>
    <path d="M 167.070472 101.627415 
L 167.070472 102.2 
" clip-path="url(#pd83d165880)" style="fill: none; stroke: #0000ff"/>
    <path d="M 169.817859 101.638193 
L 169.817859 102.2 
" clip-path="url(#pd83d165880)" style="fill: none; stroke: #0000ff"/>
    <path d="M 170.505403 101.28609 
L 170.505403 102.2 
" clip-path="url(#pd83d165880)" style="fill: none; stroke: #0000ff"/>
    <path d="M 170.902086 95.679504 
L 170.902086 102.2 
" clip-path="url(#pd83d165880)" style="fill: none; stroke: #0000ff"/>
    <path d="M 170.999529 98.472763 
L 170.999529 102.2 
" clip-path="url(#pd83d165880)" style="fill: none; stroke: #0000ff"/>
    <path d="M 172.160622 97.544481 
L 172.160622 102.2 
" clip-path="url(#pd83d165880)" style="fill: none; stroke: #0000ff"/>
    <path d="M 173.430783 100.451135 
L 173.430783 102.2 
" clip-path="url(#pd83d165880)" style="fill: none; stroke: #0000ff"/>
    <path d="M 173.527215 100.94047 
L 173.527215 102.2 
" clip-path="url(#pd83d165880)" style="fill: none; stroke: #0000ff"/>
    <path d="M 175.181374 77.191942 
L 175.181374 102.2 
" clip-path="url(#pd83d165880)" style="fill: none; stroke: #0000ff"/>
    <path d="M 175.278885 88.008843 
L 175.278885 102.2 
" clip-path="url(#pd83d165880)" style="fill: none; stroke: #0000ff"/>
    <path d="M 175.375755 101.123533 
L 175.375755 102.2 
" clip-path="url(#pd83d165880)" style="fill: none; stroke: #0000ff"/>
    <path d="M 181.893481 101.055794 
L 181.893481 102.2 
" clip-path="url(#pd83d165880)" style="fill: none; stroke: #0000ff"/>
    <path d="M 184.423529 100.868963 
L 184.423529 102.2 
" clip-path="url(#pd83d165880)" style="fill: none; stroke: #0000ff"/>
    <path d="M 184.519242 101.174622 
L 184.519242 102.2 
" clip-path="url(#pd83d165880)" style="fill: none; stroke: #0000ff"/>
    <path d="M 184.965089 101.639946 
L 184.965089 102.2 
" clip-path="url(#pd83d165880)" style="fill: none; stroke: #0000ff"/>
    <path d="M 186.173149 83.928625 
L 186.173149 102.2 
" clip-path="url(#pd83d165880)" style="fill: none; stroke: #0000ff"/>
    <path d="M 186.270611 91.399487 
L 186.270611 102.2 
" clip-path="url(#pd83d165880)" style="fill: none; stroke: #0000ff"/>
    <path d="M 186.45534 98.16465 
L 186.45534 102.2 
" clip-path="url(#pd83d165880)" style="fill: none; stroke: #0000ff"/>
    <path d="M 188.798598 101.265934 
L 188.798598 102.2 
" clip-path="url(#pd83d165880)" style="fill: none; stroke: #0000ff"/>
    <path d="M 191.326508 101.311853 
L 191.326508 102.2 
" clip-path="url(#pd83d165880)" style="fill: none; stroke: #0000ff"/>
    <path d="M 191.805908 101.584037 
L 191.805908 102.2 
" clip-path="url(#pd83d165880)" style="fill: none; stroke: #0000ff"/>
    <path d="M 193.077965 87.845585 
L 193.077965 102.2 
" clip-path="url(#pd83d165880)" style="fill: none; stroke: #0000ff"/>
    <path d="M 193.175631 93.630326 
L 193.175631 102.2 
" clip-path="url(#pd83d165880)" style="fill: none; stroke: #0000ff"/>
    <path d="M 193.272763 101.544603 
L 193.272763 102.2 
" clip-path="url(#pd83d165880)" style="fill: none; stroke: #0000ff"/>
    <path d="M 196.277137 98.782716 
L 196.277137 102.2 
" clip-path="url(#pd83d165880)" style="fill: none; stroke: #0000ff"/>
    <path d="M 199.788954 101.694716 
L 199.788954 102.2 
" clip-path="url(#pd83d165880)" style="fill: none; stroke: #0000ff"/>
    <path d="M 205.710951 93.946325 
L 205.710951 102.2 
" clip-path="url(#pd83d165880)" style="fill: none; stroke: #0000ff"/>
    <path d="M 205.808725 100.05171 
L 205.808725 102.2 
" clip-path="url(#pd83d165880)" style="fill: none; stroke: #0000ff"/>
    <path d="M 206.8819 101.250862 
L 206.8819 102.2 
" clip-path="url(#pd83d165880)" style="fill: none; stroke: #0000ff"/>
    <path d="M 206.980238 101.313431 
L 206.980238 102.2 
" clip-path="url(#pd83d165880)" style="fill: none; stroke: #0000ff"/>
    <path d="M 208.633046 95.531407 
L 208.633046 102.2 
" clip-path="url(#pd83d165880)" style="fill: none; stroke: #0000ff"/>
    <path d="M 208.730703 95.580305 
L 208.730703 102.2 
" clip-path="url(#pd83d165880)" style="fill: none; stroke: #0000ff"/>
    <path d="M 212.552383 101.500261 
L 212.552383 102.2 
" clip-path="url(#pd83d165880)" style="fill: none; stroke: #0000ff"/>
    <path d="M 215.37581 101.642838 
L 215.37581 102.2 
" clip-path="url(#pd83d165880)" style="fill: none; stroke: #0000ff"/>
    <path d="M 215.538299 100.855205 
L 215.538299 102.2 
" clip-path="url(#pd83d165880)" style="fill: none; stroke: #0000ff"/>
    <path d="M 215.635616 100.924959 
L 215.635616 102.2 
" clip-path="url(#pd83d165880)" style="fill: none; stroke: #0000ff"/>
    <path d="M 221.423672 101.673509 
L 221.423672 102.2 
" clip-path="url(#pd83d165880)" style="fill: none; stroke: #0000ff"/>
    <path d="M 228.320799 101.569403 
L 228.320799 102.2 
" clip-path="url(#pd83d165880)" style="fill: none; stroke: #0000ff"/>
   </g>
   <g id="patch_3">
    <path d="M 70.05 102.2 
L 70.05 13.544811 
" style="fill: none; stroke: #000000; stroke-width: 0.8; stroke-linejoin: miter; stroke-linecap: square"/>
   </g>
   <g id="patch_4">
    <path d="M 264.45 102.2 
L 264.45 13.544811 
" style="fill: none; stroke: #000000; stroke-width: 0.8; stroke-linejoin: miter; stroke-linecap: square"/>
   </g>
   <g id="patch_5">
    <path d="M 70.05 102.2 
L 264.45 102.2 
" style="fill: none; stroke: #000000; stroke-width: 0.8; stroke-linejoin: miter; stroke-linecap: square"/>
   </g>
   <g id="patch_6">
    <path d="M 70.05 13.544811 
L 264.45 13.544811 
" style="fill: none; stroke: #000000; stroke-width: 0.8; stroke-linejoin: miter; stroke-linecap: square"/>
   </g>
  </g>
 </g>
 <defs>
  <clipPath id="pd83d165880">
   <rect x="70.05" y="13.544811" width="194.4" height="88.655189"/>
  </clipPath>
 </defs>
</svg>
