<?xml version="1.0" encoding="utf-8" standalone="no"?>
<!DOCTYPE svg PUBLIC "-//W3C//DTD SVG 1.1//EN"
  "http://www.w3.org/Graphics/SVG/1.1/DTD/svg11.dtd">
<svg xmlns:xlink="http://www.w3.org/1999/xlink" width="288pt" height="144pt" viewBox="0 0 288 144" xmlns="http://www.w3.org/2000/svg" version="1.1">
 <metadata>
  <rdf:RDF xmlns:dc="http://purl.org/dc/elements/1.1/" xmlns:cc="http://creativecommons.org/ns#" xmlns:rdf="http://www.w3.org/1999/02/22-rdf-syntax-ns#">
   <cc:Work>
    <dc:type rdf:resource="http://purl.org/dc/dcmitype/StillImage"/>
    <dc:date>2022-04-04T13:17:39.755014</dc:date>
    <dc:format>image/svg+xml</dc:format>
    <dc:creator>
     <cc:Agent>
      <dc:title>Matplotlib v3.5.1, https://matplotlib.org/</dc:title>
     </cc:Agent>
    </dc:creator>
   </cc:Work>
  </rdf:RDF>
 </metadata>
 <defs>
  <style type="text/css">*{stroke-linejoin: round; stroke-linecap: butt}</style>
 </defs>
 <g id="figure_1">
  <g id="patch_1">
   <path d="M 0 144 
L 288 144 
L 288 0 
L 0 0 
L 0 144 
z
" style="fill: none"/>
  </g>
  <g id="axes_1">
   <g id="patch_2">
    <path d="M 47.8 102.2 
L 264.45 102.2 
L 264.45 14.8 
L 47.8 14.8 
z
" style="fill: #ffffff"/>
   </g>
   <g id="matplotlib.axis_1">
    <g id="xtick_1">
     <g id="line2d_1">
      <defs>
       <path id="m26f7f8a0c8" d="M 0 0 
L 0 3.5 
" style="stroke: #000000; stroke-width: 0.8"/>
      </defs>
      <g>
       <use xlink:href="#m26f7f8a0c8" x="47.8" y="102.2" style="stroke: #000000; stroke-width: 0.8"/>
      </g>
     </g>
     <g id="text_1">
      <!-- 0 -->
      <g transform="translate(44.61875 116.798437)scale(0.1 -0.1)">
       <defs>
        <path id="DejaVuSans-30" d="M 2034 4250 
Q 1547 4250 1301 3770 
Q 1056 3291 1056 2328 
Q 1056 1369 1301 889 
Q 1547 409 2034 409 
Q 2525 409 2770 889 
Q 3016 1369 3016 2328 
Q 3016 3291 2770 3770 
Q 2525 4250 2034 4250 
z
M 2034 4750 
Q 2819 4750 3233 4129 
Q 3647 3509 3647 2328 
Q 3647 1150 3233 529 
Q 2819 -91 2034 -91 
Q 1250 -91 836 529 
Q 422 1150 422 2328 
Q 422 3509 836 4129 
Q 1250 4750 2034 4750 
z
" transform="scale(0.015625)"/>
       </defs>
       <use xlink:href="#DejaVuSans-30"/>
      </g>
     </g>
    </g>
    <g id="xtick_2">
     <g id="line2d_2">
      <g>
       <use xlink:href="#m26f7f8a0c8" x="101.9625" y="102.2" style="stroke: #000000; stroke-width: 0.8"/>
      </g>
     </g>
     <g id="text_2">
      <!-- 500 -->
      <g transform="translate(92.41875 116.798437)scale(0.1 -0.1)">
       <defs>
        <path id="DejaVuSans-35" d="M 691 4666 
L 3169 4666 
L 3169 4134 
L 1269 4134 
L 1269 2991 
Q 1406 3038 1543 3061 
Q 1681 3084 1819 3084 
Q 2600 3084 3056 2656 
Q 3513 2228 3513 1497 
Q 3513 744 3044 326 
Q 2575 -91 1722 -91 
Q 1428 -91 1123 -41 
Q 819 9 494 109 
L 494 744 
Q 775 591 1075 516 
Q 1375 441 1709 441 
Q 2250 441 2565 725 
Q 2881 1009 2881 1497 
Q 2881 1984 2565 2268 
Q 2250 2553 1709 2553 
Q 1456 2553 1204 2497 
Q 953 2441 691 2322 
L 691 4666 
z
" transform="scale(0.015625)"/>
       </defs>
       <use xlink:href="#DejaVuSans-35"/>
       <use xlink:href="#DejaVuSans-30" x="63.623047"/>
       <use xlink:href="#DejaVuSans-30" x="127.246094"/>
      </g>
     </g>
    </g>
    <g id="xtick_3">
     <g id="line2d_3">
      <g>
       <use xlink:href="#m26f7f8a0c8" x="156.125" y="102.2" style="stroke: #000000; stroke-width: 0.8"/>
      </g>
     </g>
     <g id="text_3">
      <!-- 1000 -->
      <g transform="translate(143.4 116.798437)scale(0.1 -0.1)">
       <defs>
        <path id="DejaVuSans-31" d="M 794 531 
L 1825 531 
L 1825 4091 
L 703 3866 
L 703 4441 
L 1819 4666 
L 2450 4666 
L 2450 531 
L 3481 531 
L 3481 0 
L 794 0 
L 794 531 
z
" transform="scale(0.015625)"/>
       </defs>
       <use xlink:href="#DejaVuSans-31"/>
       <use xlink:href="#DejaVuSans-30" x="63.623047"/>
       <use xlink:href="#DejaVuSans-30" x="127.246094"/>
       <use xlink:href="#DejaVuSans-30" x="190.869141"/>
      </g>
     </g>
    </g>
    <g id="xtick_4">
     <g id="line2d_4">
      <g>
       <use xlink:href="#m26f7f8a0c8" x="210.2875" y="102.2" style="stroke: #000000; stroke-width: 0.8"/>
      </g>
     </g>
     <g id="text_4">
      <!-- 1500 -->
      <g transform="translate(197.5625 116.798437)scale(0.1 -0.1)">
       <use xlink:href="#DejaVuSans-31"/>
       <use xlink:href="#DejaVuSans-35" x="63.623047"/>
       <use xlink:href="#DejaVuSans-30" x="127.246094"/>
       <use xlink:href="#DejaVuSans-30" x="190.869141"/>
      </g>
     </g>
    </g>
    <g id="xtick_5">
     <g id="line2d_5">
      <g>
       <use xlink:href="#m26f7f8a0c8" x="264.45" y="102.2" style="stroke: #000000; stroke-width: 0.8"/>
      </g>
     </g>
     <g id="text_5">
      <!-- 2000 -->
      <g transform="translate(251.725 116.798437)scale(0.1 -0.1)">
       <defs>
        <path id="DejaVuSans-32" d="M 1228 531 
L 3431 531 
L 3431 0 
L 469 0 
L 469 531 
Q 828 903 1448 1529 
Q 2069 2156 2228 2338 
Q 2531 2678 2651 2914 
Q 2772 3150 2772 3378 
Q 2772 3750 2511 3984 
Q 2250 4219 1831 4219 
Q 1534 4219 1204 4116 
Q 875 4013 500 3803 
L 500 4441 
Q 881 4594 1212 4672 
Q 1544 4750 1819 4750 
Q 2544 4750 2975 4387 
Q 3406 4025 3406 3419 
Q 3406 3131 3298 2873 
Q 3191 2616 2906 2266 
Q 2828 2175 2409 1742 
Q 1991 1309 1228 531 
z
" transform="scale(0.015625)"/>
       </defs>
       <use xlink:href="#DejaVuSans-32"/>
       <use xlink:href="#DejaVuSans-30" x="63.623047"/>
       <use xlink:href="#DejaVuSans-30" x="127.246094"/>
       <use xlink:href="#DejaVuSans-30" x="190.869141"/>
      </g>
     </g>
    </g>
    <g id="text_6">
     <!-- m/z -->
     <g transform="translate(146.946094 130.476562)scale(0.1 -0.1)">
      <defs>
       <path id="DejaVuSans-6d" d="M 3328 2828 
Q 3544 3216 3844 3400 
Q 4144 3584 4550 3584 
Q 5097 3584 5394 3201 
Q 5691 2819 5691 2113 
L 5691 0 
L 5113 0 
L 5113 2094 
Q 5113 2597 4934 2840 
Q 4756 3084 4391 3084 
Q 3944 3084 3684 2787 
Q 3425 2491 3425 1978 
L 3425 0 
L 2847 0 
L 2847 2094 
Q 2847 2600 2669 2842 
Q 2491 3084 2119 3084 
Q 1678 3084 1418 2786 
Q 1159 2488 1159 1978 
L 1159 0 
L 581 0 
L 581 3500 
L 1159 3500 
L 1159 2956 
Q 1356 3278 1631 3431 
Q 1906 3584 2284 3584 
Q 2666 3584 2933 3390 
Q 3200 3197 3328 2828 
z
" transform="scale(0.015625)"/>
       <path id="DejaVuSans-2f" d="M 1625 4666 
L 2156 4666 
L 531 -594 
L 0 -594 
L 1625 4666 
z
" transform="scale(0.015625)"/>
       <path id="DejaVuSans-7a" d="M 353 3500 
L 3084 3500 
L 3084 2975 
L 922 459 
L 3084 459 
L 3084 0 
L 275 0 
L 275 525 
L 2438 3041 
L 353 3041 
L 353 3500 
z
" transform="scale(0.015625)"/>
      </defs>
      <use xlink:href="#DejaVuSans-6d"/>
      <use xlink:href="#DejaVuSans-2f" x="97.412109"/>
      <use xlink:href="#DejaVuSans-7a" x="131.103516"/>
     </g>
    </g>
   </g>
   <g id="matplotlib.axis_2">
    <g id="ytick_1">
     <g id="line2d_6">
      <defs>
       <path id="m64665736dc" d="M 0 0 
L -3.5 0 
" style="stroke: #000000; stroke-width: 0.8"/>
      </defs>
      <g>
       <use xlink:href="#m64665736dc" x="47.8" y="102.2" style="stroke: #000000; stroke-width: 0.8"/>
      </g>
     </g>
     <g id="text_7">
      <!-- 0.00 -->
      <g transform="translate(18.534375 105.999219)scale(0.1 -0.1)">
       <defs>
        <path id="DejaVuSans-2e" d="M 684 794 
L 1344 794 
L 1344 0 
L 684 0 
L 684 794 
z
" transform="scale(0.015625)"/>
       </defs>
       <use xlink:href="#DejaVuSans-30"/>
       <use xlink:href="#DejaVuSans-2e" x="63.623047"/>
       <use xlink:href="#DejaVuSans-30" x="95.410156"/>
       <use xlink:href="#DejaVuSans-30" x="159.033203"/>
      </g>
     </g>
    </g>
    <g id="ytick_2">
     <g id="line2d_7">
      <g>
       <use xlink:href="#m64665736dc" x="47.8" y="80.35" style="stroke: #000000; stroke-width: 0.8"/>
      </g>
     </g>
     <g id="text_8">
      <!-- 0.25 -->
      <g transform="translate(18.534375 84.149219)scale(0.1 -0.1)">
       <use xlink:href="#DejaVuSans-30"/>
       <use xlink:href="#DejaVuSans-2e" x="63.623047"/>
       <use xlink:href="#DejaVuSans-32" x="95.410156"/>
       <use xlink:href="#DejaVuSans-35" x="159.033203"/>
      </g>
     </g>
    </g>
    <g id="ytick_3">
     <g id="line2d_8">
      <g>
       <use xlink:href="#m64665736dc" x="47.8" y="58.5" style="stroke: #000000; stroke-width: 0.8"/>
      </g>
     </g>
     <g id="text_9">
      <!-- 0.50 -->
      <g transform="translate(18.534375 62.299219)scale(0.1 -0.1)">
       <use xlink:href="#DejaVuSans-30"/>
       <use xlink:href="#DejaVuSans-2e" x="63.623047"/>
       <use xlink:href="#DejaVuSans-35" x="95.410156"/>
       <use xlink:href="#DejaVuSans-30" x="159.033203"/>
      </g>
     </g>
    </g>
    <g id="ytick_4">
     <g id="line2d_9">
      <g>
       <use xlink:href="#m64665736dc" x="47.8" y="36.65" style="stroke: #000000; stroke-width: 0.8"/>
      </g>
     </g>
     <g id="text_10">
      <!-- 0.75 -->
      <g transform="translate(18.534375 40.449219)scale(0.1 -0.1)">
       <defs>
        <path id="DejaVuSans-37" d="M 525 4666 
L 3525 4666 
L 3525 4397 
L 1831 0 
L 1172 0 
L 2766 4134 
L 525 4134 
L 525 4666 
z
" transform="scale(0.015625)"/>
       </defs>
       <use xlink:href="#DejaVuSans-30"/>
       <use xlink:href="#DejaVuSans-2e" x="63.623047"/>
       <use xlink:href="#DejaVuSans-37" x="95.410156"/>
       <use xlink:href="#DejaVuSans-35" x="159.033203"/>
      </g>
     </g>
    </g>
    <g id="ytick_5">
     <g id="line2d_10">
      <g>
       <use xlink:href="#m64665736dc" x="47.8" y="14.8" style="stroke: #000000; stroke-width: 0.8"/>
      </g>
     </g>
     <g id="text_11">
      <!-- 1.00 -->
      <g transform="translate(18.534375 18.599219)scale(0.1 -0.1)">
       <use xlink:href="#DejaVuSans-31"/>
       <use xlink:href="#DejaVuSans-2e" x="63.623047"/>
       <use xlink:href="#DejaVuSans-30" x="95.410156"/>
       <use xlink:href="#DejaVuSans-30" x="159.033203"/>
      </g>
     </g>
    </g>
    <g id="text_12">
     <!-- Intensity -->
     <g transform="translate(12.454688 80.2625)rotate(-90)scale(0.1 -0.1)">
      <defs>
       <path id="DejaVuSans-49" d="M 628 4666 
L 1259 4666 
L 1259 0 
L 628 0 
L 628 4666 
z
" transform="scale(0.015625)"/>
       <path id="DejaVuSans-6e" d="M 3513 2113 
L 3513 0 
L 2938 0 
L 2938 2094 
Q 2938 2591 2744 2837 
Q 2550 3084 2163 3084 
Q 1697 3084 1428 2787 
Q 1159 2491 1159 1978 
L 1159 0 
L 581 0 
L 581 3500 
L 1159 3500 
L 1159 2956 
Q 1366 3272 1645 3428 
Q 1925 3584 2291 3584 
Q 2894 3584 3203 3211 
Q 3513 2838 3513 2113 
z
" transform="scale(0.015625)"/>
       <path id="DejaVuSans-74" d="M 1172 4494 
L 1172 3500 
L 2356 3500 
L 2356 3053 
L 1172 3053 
L 1172 1153 
Q 1172 725 1289 603 
Q 1406 481 1766 481 
L 2356 481 
L 2356 0 
L 1766 0 
Q 1100 0 847 248 
Q 594 497 594 1153 
L 594 3053 
L 172 3053 
L 172 3500 
L 594 3500 
L 594 4494 
L 1172 4494 
z
" transform="scale(0.015625)"/>
       <path id="DejaVuSans-65" d="M 3597 1894 
L 3597 1613 
L 953 1613 
Q 991 1019 1311 708 
Q 1631 397 2203 397 
Q 2534 397 2845 478 
Q 3156 559 3463 722 
L 3463 178 
Q 3153 47 2828 -22 
Q 2503 -91 2169 -91 
Q 1331 -91 842 396 
Q 353 884 353 1716 
Q 353 2575 817 3079 
Q 1281 3584 2069 3584 
Q 2775 3584 3186 3129 
Q 3597 2675 3597 1894 
z
M 3022 2063 
Q 3016 2534 2758 2815 
Q 2500 3097 2075 3097 
Q 1594 3097 1305 2825 
Q 1016 2553 972 2059 
L 3022 2063 
z
" transform="scale(0.015625)"/>
       <path id="DejaVuSans-73" d="M 2834 3397 
L 2834 2853 
Q 2591 2978 2328 3040 
Q 2066 3103 1784 3103 
Q 1356 3103 1142 2972 
Q 928 2841 928 2578 
Q 928 2378 1081 2264 
Q 1234 2150 1697 2047 
L 1894 2003 
Q 2506 1872 2764 1633 
Q 3022 1394 3022 966 
Q 3022 478 2636 193 
Q 2250 -91 1575 -91 
Q 1294 -91 989 -36 
Q 684 19 347 128 
L 347 722 
Q 666 556 975 473 
Q 1284 391 1588 391 
Q 1994 391 2212 530 
Q 2431 669 2431 922 
Q 2431 1156 2273 1281 
Q 2116 1406 1581 1522 
L 1381 1569 
Q 847 1681 609 1914 
Q 372 2147 372 2553 
Q 372 3047 722 3315 
Q 1072 3584 1716 3584 
Q 2034 3584 2315 3537 
Q 2597 3491 2834 3397 
z
" transform="scale(0.015625)"/>
       <path id="DejaVuSans-69" d="M 603 3500 
L 1178 3500 
L 1178 0 
L 603 0 
L 603 3500 
z
M 603 4863 
L 1178 4863 
L 1178 4134 
L 603 4134 
L 603 4863 
z
" transform="scale(0.015625)"/>
       <path id="DejaVuSans-79" d="M 2059 -325 
Q 1816 -950 1584 -1140 
Q 1353 -1331 966 -1331 
L 506 -1331 
L 506 -850 
L 844 -850 
Q 1081 -850 1212 -737 
Q 1344 -625 1503 -206 
L 1606 56 
L 191 3500 
L 800 3500 
L 1894 763 
L 2988 3500 
L 3597 3500 
L 2059 -325 
z
" transform="scale(0.015625)"/>
      </defs>
      <use xlink:href="#DejaVuSans-49"/>
      <use xlink:href="#DejaVuSans-6e" x="29.492188"/>
      <use xlink:href="#DejaVuSans-74" x="92.871094"/>
      <use xlink:href="#DejaVuSans-65" x="132.080078"/>
      <use xlink:href="#DejaVuSans-6e" x="193.603516"/>
      <use xlink:href="#DejaVuSans-73" x="256.982422"/>
      <use xlink:href="#DejaVuSans-69" x="309.082031"/>
      <use xlink:href="#DejaVuSans-74" x="336.865234"/>
      <use xlink:href="#DejaVuSans-79" x="376.074219"/>
     </g>
    </g>
   </g>
   <g id="LineCollection_1">
    <path d="M 63.299293 67.379637 
L 63.299293 102.2 
" clip-path="url(#pebc3b82147)" style="fill: none; stroke: #0000ff"/>
    <path d="M 66.117433 83.344254 
L 66.117433 102.2 
" clip-path="url(#pebc3b82147)" style="fill: none; stroke: #0000ff"/>
    <path d="M 66.335772 93.351701 
L 66.335772 102.2 
" clip-path="url(#pebc3b82147)" style="fill: none; stroke: #0000ff"/>
    <path d="M 66.768455 97.915779 
L 66.768455 102.2 
" clip-path="url(#pebc3b82147)" style="fill: none; stroke: #0000ff"/>
    <path d="M 66.769733 73.751855 
L 66.769733 102.2 
" clip-path="url(#pebc3b82147)" style="fill: none; stroke: #0000ff"/>
    <path d="M 67.088837 99.849272 
L 67.088837 102.2 
" clip-path="url(#pebc3b82147)" style="fill: none; stroke: #0000ff"/>
    <path d="M 67.417343 92.639304 
L 67.417343 102.2 
" clip-path="url(#pebc3b82147)" style="fill: none; stroke: #0000ff"/>
    <path d="M 67.63967 95.74725 
L 67.63967 102.2 
" clip-path="url(#pebc3b82147)" style="fill: none; stroke: #0000ff"/>
    <path d="M 67.850102 87.609526 
L 67.850102 102.2 
" clip-path="url(#pebc3b82147)" style="fill: none; stroke: #0000ff"/>
    <path d="M 67.854077 98.616515 
L 67.854077 102.2 
" clip-path="url(#pebc3b82147)" style="fill: none; stroke: #0000ff"/>
    <path d="M 69.368298 91.799004 
L 69.368298 102.2 
" clip-path="url(#pebc3b82147)" style="fill: none; stroke: #0000ff"/>
    <path d="M 69.801046 94.091064 
L 69.801046 102.2 
" clip-path="url(#pebc3b82147)" style="fill: none; stroke: #0000ff"/>
    <path d="M 69.834605 100.415546 
L 69.834605 102.2 
" clip-path="url(#pebc3b82147)" style="fill: none; stroke: #0000ff"/>
    <path d="M 69.906998 85.685507 
L 69.906998 102.2 
" clip-path="url(#pebc3b82147)" style="fill: none; stroke: #0000ff"/>
    <path d="M 70.672152 96.109097 
L 70.672152 102.2 
" clip-path="url(#pebc3b82147)" style="fill: none; stroke: #0000ff"/>
    <path d="M 70.776057 76.841217 
L 70.776057 102.2 
" clip-path="url(#pebc3b82147)" style="fill: none; stroke: #0000ff"/>
    <path d="M 70.994387 14.8 
L 70.994387 102.2 
" clip-path="url(#pebc3b82147)" style="fill: none; stroke: #0000ff"/>
    <path d="M 71.095085 98.427393 
L 71.095085 102.2 
" clip-path="url(#pebc3b82147)" style="fill: none; stroke: #0000ff"/>
    <path d="M 71.10308 95.117936 
L 71.10308 102.2 
" clip-path="url(#pebc3b82147)" style="fill: none; stroke: #0000ff"/>
    <path d="M 71.104954 96.177603 
L 71.104954 102.2 
" clip-path="url(#pebc3b82147)" style="fill: none; stroke: #0000ff"/>
    <path d="M 71.208675 99.894822 
L 71.208675 102.2 
" clip-path="url(#pebc3b82147)" style="fill: none; stroke: #0000ff"/>
    <path d="M 72.620496 98.664252 
L 72.620496 102.2 
" clip-path="url(#pebc3b82147)" style="fill: none; stroke: #0000ff"/>
    <path d="M 72.838739 100.007056 
L 72.838739 102.2 
" clip-path="url(#pebc3b82147)" style="fill: none; stroke: #0000ff"/>
    <path d="M 72.939503 59.104171 
L 72.939503 102.2 
" clip-path="url(#pebc3b82147)" style="fill: none; stroke: #0000ff"/>
    <path d="M 73.277271 100.205653 
L 73.277271 102.2 
" clip-path="url(#pebc3b82147)" style="fill: none; stroke: #0000ff"/>
    <path d="M 73.812559 90.555315 
L 73.812559 102.2 
" clip-path="url(#pebc3b82147)" style="fill: none; stroke: #0000ff"/>
    <path d="M 74.026967 98.463104 
L 74.026967 102.2 
" clip-path="url(#pebc3b82147)" style="fill: none; stroke: #0000ff"/>
    <path d="M 74.464827 96.680107 
L 74.464827 102.2 
" clip-path="url(#pebc3b82147)" style="fill: none; stroke: #0000ff"/>
    <path d="M 75.438625 99.317981 
L 75.438625 102.2 
" clip-path="url(#pebc3b82147)" style="fill: none; stroke: #0000ff"/>
    <path d="M 75.549095 97.182611 
L 75.549095 102.2 
" clip-path="url(#pebc3b82147)" style="fill: none; stroke: #0000ff"/>
    <path d="M 75.656911 89.360091 
L 75.656911 102.2 
" clip-path="url(#pebc3b82147)" style="fill: none; stroke: #0000ff"/>
    <path d="M 75.75761 98.122028 
L 75.75761 102.2 
" clip-path="url(#pebc3b82147)" style="fill: none; stroke: #0000ff"/>
    <path d="M 76.849039 96.283279 
L 76.849039 102.2 
" clip-path="url(#pebc3b82147)" style="fill: none; stroke: #0000ff"/>
    <path d="M 78.367224 96.580262 
L 78.367224 102.2 
" clip-path="url(#pebc3b82147)" style="fill: none; stroke: #0000ff"/>
    <path d="M 78.471141 63.431391 
L 78.471141 102.2 
" clip-path="url(#pebc3b82147)" style="fill: none; stroke: #0000ff"/>
    <path d="M 78.579931 98.479502 
L 78.579931 102.2 
" clip-path="url(#pebc3b82147)" style="fill: none; stroke: #0000ff"/>
    <path d="M 78.68947 58.635191 
L 78.68947 102.2 
" clip-path="url(#pebc3b82147)" style="fill: none; stroke: #0000ff"/>
    <path d="M 78.798271 98.290744 
L 78.798271 102.2 
" clip-path="url(#pebc3b82147)" style="fill: none; stroke: #0000ff"/>
    <path d="M 78.800026 92.969084 
L 78.800026 102.2 
" clip-path="url(#pebc3b82147)" style="fill: none; stroke: #0000ff"/>
    <path d="M 79.578872 100.273431 
L 79.578872 102.2 
" clip-path="url(#pebc3b82147)" style="fill: none; stroke: #0000ff"/>
    <path d="M 80.100024 96.989481 
L 80.100024 102.2 
" clip-path="url(#pebc3b82147)" style="fill: none; stroke: #0000ff"/>
    <path d="M 80.533843 92.599949 
L 80.533843 102.2 
" clip-path="url(#pebc3b82147)" style="fill: none; stroke: #0000ff"/>
    <path d="M 80.634618 44.688972 
L 80.634618 102.2 
" clip-path="url(#pebc3b82147)" style="fill: none; stroke: #0000ff"/>
    <path d="M 80.743268 97.299219 
L 80.743268 102.2 
" clip-path="url(#pebc3b82147)" style="fill: none; stroke: #0000ff"/>
    <path d="M 81.289302 98.756444 
L 81.289302 102.2 
" clip-path="url(#pebc3b82147)" style="fill: none; stroke: #0000ff"/>
    <path d="M 81.50762 93.690591 
L 81.50762 102.2 
" clip-path="url(#pebc3b82147)" style="fill: none; stroke: #0000ff"/>
    <path d="M 82.159975 94.492994 
L 82.159975 102.2 
" clip-path="url(#pebc3b82147)" style="fill: none; stroke: #0000ff"/>
    <path d="M 83.24433 98.697412 
L 83.24433 102.2 
" clip-path="url(#pebc3b82147)" style="fill: none; stroke: #0000ff"/>
    <path d="M 83.348441 98.076478 
L 83.348441 102.2 
" clip-path="url(#pebc3b82147)" style="fill: none; stroke: #0000ff"/>
    <path d="M 83.452715 90.985304 
L 83.452715 102.2 
" clip-path="url(#pebc3b82147)" style="fill: none; stroke: #0000ff"/>
    <path d="M 83.667361 99.068368 
L 83.667361 102.2 
" clip-path="url(#pebc3b82147)" style="fill: none; stroke: #0000ff"/>
    <path d="M 84.329703 93.993769 
L 84.329703 102.2 
" clip-path="url(#pebc3b82147)" style="fill: none; stroke: #0000ff"/>
    <path d="M 84.544197 97.751436 
L 84.544197 102.2 
" clip-path="url(#pebc3b82147)" style="fill: none; stroke: #0000ff"/>
    <path d="M 84.758692 99.304133 
L 84.758692 102.2 
" clip-path="url(#pebc3b82147)" style="fill: none; stroke: #0000ff"/>
    <path d="M 85.189338 78.214631 
L 85.189338 102.2 
" clip-path="url(#pebc3b82147)" style="fill: none; stroke: #0000ff"/>
    <path d="M 85.297143 97.239822 
L 85.297143 102.2 
" clip-path="url(#pebc3b82147)" style="fill: none; stroke: #0000ff"/>
    <path d="M 86.062437 95.640846 
L 86.062437 102.2 
" clip-path="url(#pebc3b82147)" style="fill: none; stroke: #0000ff"/>
    <path d="M 86.166213 68.247267 
L 86.166213 102.2 
" clip-path="url(#pebc3b82147)" style="fill: none; stroke: #0000ff"/>
    <path d="M 86.274798 97.48579 
L 86.274798 102.2 
" clip-path="url(#pebc3b82147)" style="fill: none; stroke: #0000ff"/>
    <path d="M 86.384639 95.639753 
L 86.384639 102.2 
" clip-path="url(#pebc3b82147)" style="fill: none; stroke: #0000ff"/>
    <path d="M 86.494882 99.698411 
L 86.494882 102.2 
" clip-path="url(#pebc3b82147)" style="fill: none; stroke: #0000ff"/>
    <path d="M 86.602719 99.946566 
L 86.602719 102.2 
" clip-path="url(#pebc3b82147)" style="fill: none; stroke: #0000ff"/>
    <path d="M 87.164038 100.145527 
L 87.164038 102.2 
" clip-path="url(#pebc3b82147)" style="fill: none; stroke: #0000ff"/>
    <path d="M 87.362251 92.083598 
L 87.362251 102.2 
" clip-path="url(#pebc3b82147)" style="fill: none; stroke: #0000ff"/>
    <path d="M 87.470911 99.629176 
L 87.470911 102.2 
" clip-path="url(#pebc3b82147)" style="fill: none; stroke: #0000ff"/>
    <path d="M 87.684637 99.714809 
L 87.684637 102.2 
" clip-path="url(#pebc3b82147)" style="fill: none; stroke: #0000ff"/>
    <path d="M 87.814215 99.701691 
L 87.814215 102.2 
" clip-path="url(#pebc3b82147)" style="fill: none; stroke: #0000ff"/>
    <path d="M 87.933481 86.99916 
L 87.933481 102.2 
" clip-path="url(#pebc3b82147)" style="fill: none; stroke: #0000ff"/>
    <path d="M 88.115467 99.156917 
L 88.115467 102.2 
" clip-path="url(#pebc3b82147)" style="fill: none; stroke: #0000ff"/>
    <path d="M 88.32969 64.027181 
L 88.32969 102.2 
" clip-path="url(#pebc3b82147)" style="fill: none; stroke: #0000ff"/>
    <path d="M 88.438449 98.146078 
L 88.438449 102.2 
" clip-path="url(#pebc3b82147)" style="fill: none; stroke: #0000ff"/>
    <path d="M 88.984396 98.698869 
L 88.984396 102.2 
" clip-path="url(#pebc3b82147)" style="fill: none; stroke: #0000ff"/>
    <path d="M 89.416938 100.069732 
L 89.416938 102.2 
" clip-path="url(#pebc3b82147)" style="fill: none; stroke: #0000ff"/>
    <path d="M 89.635407 98.635829 
L 89.635407 102.2 
" clip-path="url(#pebc3b82147)" style="fill: none; stroke: #0000ff"/>
    <path d="M 90.720997 98.64676 
L 90.720997 102.2 
" clip-path="url(#pebc3b82147)" style="fill: none; stroke: #0000ff"/>
    <path d="M 90.827459 96.512485 
L 90.827459 102.2 
" clip-path="url(#pebc3b82147)" style="fill: none; stroke: #0000ff"/>
    <path d="M 90.939359 98.08158 
L 90.939359 102.2 
" clip-path="url(#pebc3b82147)" style="fill: none; stroke: #0000ff"/>
    <path d="M 91.147809 84.434895 
L 91.147809 102.2 
" clip-path="url(#pebc3b82147)" style="fill: none; stroke: #0000ff"/>
    <path d="M 91.25648 99.537712 
L 91.25648 102.2 
" clip-path="url(#pebc3b82147)" style="fill: none; stroke: #0000ff"/>
    <path d="M 91.362184 97.935457 
L 91.362184 102.2 
" clip-path="url(#pebc3b82147)" style="fill: none; stroke: #0000ff"/>
    <path d="M 92.024635 98.972167 
L 92.024635 102.2 
" clip-path="url(#pebc3b82147)" style="fill: none; stroke: #0000ff"/>
    <path d="M 92.23941 99.727563 
L 92.23941 102.2 
" clip-path="url(#pebc3b82147)" style="fill: none; stroke: #0000ff"/>
    <path d="M 92.884258 93.949677 
L 92.884258 102.2 
" clip-path="url(#pebc3b82147)" style="fill: none; stroke: #0000ff"/>
    <path d="M 92.992323 90.526163 
L 92.992323 102.2 
" clip-path="url(#pebc3b82147)" style="fill: none; stroke: #0000ff"/>
    <path d="M 93.100843 99.59638 
L 93.100843 102.2 
" clip-path="url(#pebc3b82147)" style="fill: none; stroke: #0000ff"/>
    <path d="M 93.539105 99.421105 
L 93.539105 102.2 
" clip-path="url(#pebc3b82147)" style="fill: none; stroke: #0000ff"/>
    <path d="M 93.86135 93.123588 
L 93.86135 102.2 
" clip-path="url(#pebc3b82147)" style="fill: none; stroke: #0000ff"/>
    <path d="M 94.184256 96.195823 
L 94.184256 102.2 
" clip-path="url(#pebc3b82147)" style="fill: none; stroke: #0000ff"/>
    <path d="M 94.409724 27.134125 
L 94.409724 102.2 
" clip-path="url(#pebc3b82147)" style="fill: none; stroke: #0000ff"/>
    <path d="M 94.518536 90.408098 
L 94.518536 102.2 
" clip-path="url(#pebc3b82147)" style="fill: none; stroke: #0000ff"/>
    <path d="M 95.057301 90.799461 
L 95.057301 102.2 
" clip-path="url(#pebc3b82147)" style="fill: none; stroke: #0000ff"/>
    <path d="M 95.702582 97.74014 
L 95.702582 102.2 
" clip-path="url(#pebc3b82147)" style="fill: none; stroke: #0000ff"/>
    <path d="M 96.024795 62.685105 
L 96.024795 102.2 
" clip-path="url(#pebc3b82147)" style="fill: none; stroke: #0000ff"/>
    <path d="M 96.133153 96.664803 
L 96.133153 102.2 
" clip-path="url(#pebc3b82147)" style="fill: none; stroke: #0000ff"/>
    <path d="M 96.135709 97.572881 
L 96.135709 102.2 
" clip-path="url(#pebc3b82147)" style="fill: none; stroke: #0000ff"/>
    <path d="M 97.004465 99.085131 
L 97.004465 102.2 
" clip-path="url(#pebc3b82147)" style="fill: none; stroke: #0000ff"/>
    <path d="M 97.546935 96.553297 
L 97.546935 102.2 
" clip-path="url(#pebc3b82147)" style="fill: none; stroke: #0000ff"/>
    <path d="M 98.842967 94.364362 
L 98.842967 102.2 
" clip-path="url(#pebc3b82147)" style="fill: none; stroke: #0000ff"/>
    <path d="M 99.057993 99.525687 
L 99.057993 102.2 
" clip-path="url(#pebc3b82147)" style="fill: none; stroke: #0000ff"/>
    <path d="M 99.171517 99.371911 
L 99.171517 102.2 
" clip-path="url(#pebc3b82147)" style="fill: none; stroke: #0000ff"/>
    <path d="M 100.579385 91.26006 
L 100.579385 102.2 
" clip-path="url(#pebc3b82147)" style="fill: none; stroke: #0000ff"/>
    <path d="M 100.687287 91.774225 
L 100.687287 102.2 
" clip-path="url(#pebc3b82147)" style="fill: none; stroke: #0000ff"/>
    <path d="M 100.963765 94.917517 
L 100.963765 102.2 
" clip-path="url(#pebc3b82147)" style="fill: none; stroke: #0000ff"/>
    <path d="M 101.233993 99.275346 
L 101.233993 102.2 
" clip-path="url(#pebc3b82147)" style="fill: none; stroke: #0000ff"/>
    <path d="M 101.885416 99.289193 
L 101.885416 102.2 
" clip-path="url(#pebc3b82147)" style="fill: none; stroke: #0000ff"/>
    <path d="M 103.719921 94.404889 
L 103.719921 102.2 
" clip-path="url(#pebc3b82147)" style="fill: none; stroke: #0000ff"/>
    <path d="M 105.020764 100.655232 
L 105.020764 102.2 
" clip-path="url(#pebc3b82147)" style="fill: none; stroke: #0000ff"/>
    <path d="M 105.242061 100.584601 
L 105.242061 102.2 
" clip-path="url(#pebc3b82147)" style="fill: none; stroke: #0000ff"/>
    <path d="M 106.438099 101.099216 
L 106.438099 102.2 
" clip-path="url(#pebc3b82147)" style="fill: none; stroke: #0000ff"/>
    <path d="M 106.870489 101.131655 
L 106.870489 102.2 
" clip-path="url(#pebc3b82147)" style="fill: none; stroke: #0000ff"/>
    <path d="M 108.274879 98.454478 
L 108.274879 102.2 
" clip-path="url(#pebc3b82147)" style="fill: none; stroke: #0000ff"/>
    <path d="M 109.580261 101.26102 
L 109.580261 102.2 
" clip-path="url(#pebc3b82147)" style="fill: none; stroke: #0000ff"/>
    <path d="M 112.937426 100.33658 
L 112.937426 102.2 
" clip-path="url(#pebc3b82147)" style="fill: none; stroke: #0000ff"/>
    <path d="M 114.667224 101.286831 
L 114.667224 102.2 
" clip-path="url(#pebc3b82147)" style="fill: none; stroke: #0000ff"/>
    <path d="M 114.673052 101.521189 
L 114.673052 102.2 
" clip-path="url(#pebc3b82147)" style="fill: none; stroke: #0000ff"/>
    <path d="M 115.969486 98.695136 
L 115.969486 102.2 
" clip-path="url(#pebc3b82147)" style="fill: none; stroke: #0000ff"/>
    <path d="M 117.269451 100.457331 
L 117.269451 102.2 
" clip-path="url(#pebc3b82147)" style="fill: none; stroke: #0000ff"/>
    <path d="M 119.221478 100.767338 
L 119.221478 102.2 
" clip-path="url(#pebc3b82147)" style="fill: none; stroke: #0000ff"/>
    <path d="M 122.039271 101.127403 
L 122.039271 102.2 
" clip-path="url(#pebc3b82147)" style="fill: none; stroke: #0000ff"/>
    <path d="M 124.96501 100.042894 
L 124.96501 102.2 
" clip-path="url(#pebc3b82147)" style="fill: none; stroke: #0000ff"/>
    <path d="M 126.916009 99.632036 
L 126.916009 102.2 
" clip-path="url(#pebc3b82147)" style="fill: none; stroke: #0000ff"/>
    <path d="M 137.328067 99.246489 
L 137.328067 102.2 
" clip-path="url(#pebc3b82147)" style="fill: none; stroke: #0000ff"/>
    <path d="M 140.419717 101.095871 
L 140.419717 102.2 
" clip-path="url(#pebc3b82147)" style="fill: none; stroke: #0000ff"/>
    <path d="M 140.473847 63.140494 
L 140.473847 102.2 
" clip-path="url(#pebc3b82147)" style="fill: none; stroke: #0000ff"/>
    <path d="M 140.582854 93.141113 
L 140.582854 102.2 
" clip-path="url(#pebc3b82147)" style="fill: none; stroke: #0000ff"/>
    <path d="M 143.505062 97.606374 
L 143.505062 102.2 
" clip-path="url(#pebc3b82147)" style="fill: none; stroke: #0000ff"/>
    <path d="M 147.723822 101.197409 
L 147.723822 102.2 
" clip-path="url(#pebc3b82147)" style="fill: none; stroke: #0000ff"/>
    <path d="M 149.028694 101.167362 
L 149.028694 102.2 
" clip-path="url(#pebc3b82147)" style="fill: none; stroke: #0000ff"/>
    <path d="M 152.175806 100.082461 
L 152.175806 102.2 
" clip-path="url(#pebc3b82147)" style="fill: none; stroke: #0000ff"/>
    <path d="M 154.018729 14.8 
L 154.018729 102.2 
" clip-path="url(#pebc3b82147)" style="fill: none; stroke: #0000ff"/>
    <path d="M 154.127346 68.313066 
L 154.127346 102.2 
" clip-path="url(#pebc3b82147)" style="fill: none; stroke: #0000ff"/>
    <path d="M 160.196493 99.977234 
L 160.196493 102.2 
" clip-path="url(#pebc3b82147)" style="fill: none; stroke: #0000ff"/>
    <path d="M 160.304308 100.703242 
L 160.304308 102.2 
" clip-path="url(#pebc3b82147)" style="fill: none; stroke: #0000ff"/>
    <path d="M 163.480083 101.166392 
L 163.480083 102.2 
" clip-path="url(#pebc3b82147)" style="fill: none; stroke: #0000ff"/>
    <path d="M 164.964764 74.082359 
L 164.964764 102.2 
" clip-path="url(#pebc3b82147)" style="fill: none; stroke: #0000ff"/>
    <path d="M 165.073479 89.765176 
L 165.073479 102.2 
" clip-path="url(#pebc3b82147)" style="fill: none; stroke: #0000ff"/>
    <path d="M 171.618541 101.246403 
L 171.618541 102.2 
" clip-path="url(#pebc3b82147)" style="fill: none; stroke: #0000ff"/>
    <path d="M 177.214783 85.486967 
L 177.214783 102.2 
" clip-path="url(#pebc3b82147)" style="fill: none; stroke: #0000ff"/>
    <path d="M 177.322783 94.330365 
L 177.322783 102.2 
" clip-path="url(#pebc3b82147)" style="fill: none; stroke: #0000ff"/>
    <path d="M 184.90991 89.219764 
L 184.90991 102.2 
" clip-path="url(#pebc3b82147)" style="fill: none; stroke: #0000ff"/>
    <path d="M 185.018321 95.608289 
L 185.018321 102.2 
" clip-path="url(#pebc3b82147)" style="fill: none; stroke: #0000ff"/>
    <path d="M 198.386136 101.335247 
L 198.386136 102.2 
" clip-path="url(#pebc3b82147)" style="fill: none; stroke: #0000ff"/>
    <path d="M 198.988163 100.863483 
L 198.988163 102.2 
" clip-path="url(#pebc3b82147)" style="fill: none; stroke: #0000ff"/>
    <path d="M 202.24478 94.164497 
L 202.24478 102.2 
" clip-path="url(#pebc3b82147)" style="fill: none; stroke: #0000ff"/>
    <path d="M 202.353788 95.846055 
L 202.353788 102.2 
" clip-path="url(#pebc3b82147)" style="fill: none; stroke: #0000ff"/>
    <path d="M 209.938607 100.336783 
L 209.938607 102.2 
" clip-path="url(#pebc3b82147)" style="fill: none; stroke: #0000ff"/>
   </g>
   <g id="patch_3">
    <path d="M 47.8 102.2 
L 47.8 14.8 
" style="fill: none; stroke: #000000; stroke-width: 0.8; stroke-linejoin: miter; stroke-linecap: square"/>
   </g>
   <g id="patch_4">
    <path d="M 264.45 102.2 
L 264.45 14.8 
" style="fill: none; stroke: #000000; stroke-width: 0.8; stroke-linejoin: miter; stroke-linecap: square"/>
   </g>
   <g id="patch_5">
    <path d="M 47.8 102.2 
L 264.45 102.2 
" style="fill: none; stroke: #000000; stroke-width: 0.8; stroke-linejoin: miter; stroke-linecap: square"/>
   </g>
   <g id="patch_6">
    <path d="M 47.8 14.8 
L 264.45 14.8 
" style="fill: none; stroke: #000000; stroke-width: 0.8; stroke-linejoin: miter; stroke-linecap: square"/>
   </g>
  </g>
 </g>
 <defs>
  <clipPath id="pebc3b82147">
   <rect x="47.8" y="14.8" width="216.65" height="87.4"/>
  </clipPath>
 </defs>
</svg>
