<?xml version="1.0" encoding="utf-8" standalone="no"?>
<!DOCTYPE svg PUBLIC "-//W3C//DTD SVG 1.1//EN"
  "http://www.w3.org/Graphics/SVG/1.1/DTD/svg11.dtd">
<svg xmlns:xlink="http://www.w3.org/1999/xlink" width="288pt" height="144pt" viewBox="0 0 288 144" xmlns="http://www.w3.org/2000/svg" version="1.1">
 <metadata>
  <rdf:RDF xmlns:dc="http://purl.org/dc/elements/1.1/" xmlns:cc="http://creativecommons.org/ns#" xmlns:rdf="http://www.w3.org/1999/02/22-rdf-syntax-ns#">
   <cc:Work>
    <dc:type rdf:resource="http://purl.org/dc/dcmitype/StillImage"/>
    <dc:date>2023-03-31T09:58:24.399319</dc:date>
    <dc:format>image/svg+xml</dc:format>
    <dc:creator>
     <cc:Agent>
      <dc:title>Matplotlib v3.6.2, https://matplotlib.org/</dc:title>
     </cc:Agent>
    </dc:creator>
   </cc:Work>
  </rdf:RDF>
 </metadata>
 <defs>
  <style type="text/css">*{stroke-linejoin: round; stroke-linecap: butt}</style>
 </defs>
 <g id="figure_1">
  <g id="patch_1">
   <path d="M 0 144 
L 288 144 
L 288 0 
L 0 0 
z
" style="fill: #ffffff"/>
  </g>
  <g id="axes_1">
   <g id="patch_2">
    <path d="M 70.22 102.04 
L 277.2 102.04 
L 277.2 10.8 
L 70.22 10.8 
z
" style="fill: #ffffff"/>
   </g>
   <g id="matplotlib.axis_1">
    <g id="xtick_1">
     <g id="line2d_1">
      <defs>
       <path id="m5692062241" d="M 0 0 
L 0 3.5 
" style="stroke: #000000; stroke-width: 0.8"/>
      </defs>
      <g>
       <use xlink:href="#m5692062241" x="70.22" y="102.04" style="stroke: #000000; stroke-width: 0.8"/>
      </g>
     </g>
     <g id="text_1">
      <!-- 0 -->
      <g transform="translate(67.03875 116.638437) scale(0.1 -0.1)">
       <defs>
        <path id="DejaVuSans-30" d="M 2034 4250 
Q 1547 4250 1301 3770 
Q 1056 3291 1056 2328 
Q 1056 1369 1301 889 
Q 1547 409 2034 409 
Q 2525 409 2770 889 
Q 3016 1369 3016 2328 
Q 3016 3291 2770 3770 
Q 2525 4250 2034 4250 
z
M 2034 4750 
Q 2819 4750 3233 4129 
Q 3647 3509 3647 2328 
Q 3647 1150 3233 529 
Q 2819 -91 2034 -91 
Q 1250 -91 836 529 
Q 422 1150 422 2328 
Q 422 3509 836 4129 
Q 1250 4750 2034 4750 
z
" transform="scale(0.015625)"/>
       </defs>
       <use xlink:href="#DejaVuSans-30"/>
      </g>
     </g>
    </g>
    <g id="xtick_2">
     <g id="line2d_2">
      <g>
       <use xlink:href="#m5692062241" x="133.777068" y="102.04" style="stroke: #000000; stroke-width: 0.8"/>
      </g>
     </g>
     <g id="text_2">
      <!-- 500 -->
      <g transform="translate(124.233318 116.638437) scale(0.1 -0.1)">
       <defs>
        <path id="DejaVuSans-35" d="M 691 4666 
L 3169 4666 
L 3169 4134 
L 1269 4134 
L 1269 2991 
Q 1406 3038 1543 3061 
Q 1681 3084 1819 3084 
Q 2600 3084 3056 2656 
Q 3513 2228 3513 1497 
Q 3513 744 3044 326 
Q 2575 -91 1722 -91 
Q 1428 -91 1123 -41 
Q 819 9 494 109 
L 494 744 
Q 775 591 1075 516 
Q 1375 441 1709 441 
Q 2250 441 2565 725 
Q 2881 1009 2881 1497 
Q 2881 1984 2565 2268 
Q 2250 2553 1709 2553 
Q 1456 2553 1204 2497 
Q 953 2441 691 2322 
L 691 4666 
z
" transform="scale(0.015625)"/>
       </defs>
       <use xlink:href="#DejaVuSans-35"/>
       <use xlink:href="#DejaVuSans-30" x="63.623047"/>
       <use xlink:href="#DejaVuSans-30" x="127.246094"/>
      </g>
     </g>
    </g>
    <g id="xtick_3">
     <g id="line2d_3">
      <g>
       <use xlink:href="#m5692062241" x="197.334137" y="102.04" style="stroke: #000000; stroke-width: 0.8"/>
      </g>
     </g>
     <g id="text_3">
      <!-- 1000 -->
      <g transform="translate(184.609137 116.638437) scale(0.1 -0.1)">
       <defs>
        <path id="DejaVuSans-31" d="M 794 531 
L 1825 531 
L 1825 4091 
L 703 3866 
L 703 4441 
L 1819 4666 
L 2450 4666 
L 2450 531 
L 3481 531 
L 3481 0 
L 794 0 
L 794 531 
z
" transform="scale(0.015625)"/>
       </defs>
       <use xlink:href="#DejaVuSans-31"/>
       <use xlink:href="#DejaVuSans-30" x="63.623047"/>
       <use xlink:href="#DejaVuSans-30" x="127.246094"/>
       <use xlink:href="#DejaVuSans-30" x="190.869141"/>
      </g>
     </g>
    </g>
    <g id="xtick_4">
     <g id="line2d_4">
      <g>
       <use xlink:href="#m5692062241" x="260.891205" y="102.04" style="stroke: #000000; stroke-width: 0.8"/>
      </g>
     </g>
     <g id="text_4">
      <!-- 1500 -->
      <g transform="translate(248.166205 116.638437) scale(0.1 -0.1)">
       <use xlink:href="#DejaVuSans-31"/>
       <use xlink:href="#DejaVuSans-35" x="63.623047"/>
       <use xlink:href="#DejaVuSans-30" x="127.246094"/>
       <use xlink:href="#DejaVuSans-30" x="190.869141"/>
      </g>
     </g>
    </g>
    <g id="text_5">
     <!-- m/z -->
     <g transform="translate(164.531094 130.316563) scale(0.1 -0.1)">
      <defs>
       <path id="DejaVuSans-6d" d="M 3328 2828 
Q 3544 3216 3844 3400 
Q 4144 3584 4550 3584 
Q 5097 3584 5394 3201 
Q 5691 2819 5691 2113 
L 5691 0 
L 5113 0 
L 5113 2094 
Q 5113 2597 4934 2840 
Q 4756 3084 4391 3084 
Q 3944 3084 3684 2787 
Q 3425 2491 3425 1978 
L 3425 0 
L 2847 0 
L 2847 2094 
Q 2847 2600 2669 2842 
Q 2491 3084 2119 3084 
Q 1678 3084 1418 2786 
Q 1159 2488 1159 1978 
L 1159 0 
L 581 0 
L 581 3500 
L 1159 3500 
L 1159 2956 
Q 1356 3278 1631 3431 
Q 1906 3584 2284 3584 
Q 2666 3584 2933 3390 
Q 3200 3197 3328 2828 
z
" transform="scale(0.015625)"/>
       <path id="DejaVuSans-2f" d="M 1625 4666 
L 2156 4666 
L 531 -594 
L 0 -594 
L 1625 4666 
z
" transform="scale(0.015625)"/>
       <path id="DejaVuSans-7a" d="M 353 3500 
L 3084 3500 
L 3084 2975 
L 922 459 
L 3084 459 
L 3084 0 
L 275 0 
L 275 525 
L 2438 3041 
L 353 3041 
L 353 3500 
z
" transform="scale(0.015625)"/>
      </defs>
      <use xlink:href="#DejaVuSans-6d"/>
      <use xlink:href="#DejaVuSans-2f" x="97.412109"/>
      <use xlink:href="#DejaVuSans-7a" x="131.103516"/>
     </g>
    </g>
   </g>
   <g id="matplotlib.axis_2">
    <g id="ytick_1">
     <g id="line2d_5">
      <defs>
       <path id="ma49971d56f" d="M 0 0 
L -3.5 0 
" style="stroke: #000000; stroke-width: 0.8"/>
      </defs>
      <g>
       <use xlink:href="#ma49971d56f" x="70.22" y="102.04" style="stroke: #000000; stroke-width: 0.8"/>
      </g>
     </g>
     <g id="text_6">
      <!-- 0 -->
      <g transform="translate(56.8575 105.839219) scale(0.1 -0.1)">
       <use xlink:href="#DejaVuSans-30"/>
      </g>
     </g>
    </g>
    <g id="ytick_2">
     <g id="line2d_6">
      <g>
       <use xlink:href="#ma49971d56f" x="70.22" y="61.046082" style="stroke: #000000; stroke-width: 0.8"/>
      </g>
     </g>
     <g id="text_7">
      <!-- 50000 -->
      <g transform="translate(31.4075 64.8453) scale(0.1 -0.1)">
       <use xlink:href="#DejaVuSans-35"/>
       <use xlink:href="#DejaVuSans-30" x="63.623047"/>
       <use xlink:href="#DejaVuSans-30" x="127.246094"/>
       <use xlink:href="#DejaVuSans-30" x="190.869141"/>
       <use xlink:href="#DejaVuSans-30" x="254.492188"/>
      </g>
     </g>
    </g>
    <g id="ytick_3">
     <g id="line2d_7">
      <g>
       <use xlink:href="#ma49971d56f" x="70.22" y="20.052163" style="stroke: #000000; stroke-width: 0.8"/>
      </g>
     </g>
     <g id="text_8">
      <!-- 100000 -->
      <g transform="translate(25.045 23.851382) scale(0.1 -0.1)">
       <use xlink:href="#DejaVuSans-31"/>
       <use xlink:href="#DejaVuSans-30" x="63.623047"/>
       <use xlink:href="#DejaVuSans-30" x="127.246094"/>
       <use xlink:href="#DejaVuSans-30" x="190.869141"/>
       <use xlink:href="#DejaVuSans-30" x="254.492188"/>
       <use xlink:href="#DejaVuSans-30" x="318.115234"/>
      </g>
     </g>
    </g>
    <g id="text_9">
     <!-- Intensity -->
     <g transform="translate(18.965312 78.1825) rotate(-90) scale(0.1 -0.1)">
      <defs>
       <path id="DejaVuSans-49" d="M 628 4666 
L 1259 4666 
L 1259 0 
L 628 0 
L 628 4666 
z
" transform="scale(0.015625)"/>
       <path id="DejaVuSans-6e" d="M 3513 2113 
L 3513 0 
L 2938 0 
L 2938 2094 
Q 2938 2591 2744 2837 
Q 2550 3084 2163 3084 
Q 1697 3084 1428 2787 
Q 1159 2491 1159 1978 
L 1159 0 
L 581 0 
L 581 3500 
L 1159 3500 
L 1159 2956 
Q 1366 3272 1645 3428 
Q 1925 3584 2291 3584 
Q 2894 3584 3203 3211 
Q 3513 2838 3513 2113 
z
" transform="scale(0.015625)"/>
       <path id="DejaVuSans-74" d="M 1172 4494 
L 1172 3500 
L 2356 3500 
L 2356 3053 
L 1172 3053 
L 1172 1153 
Q 1172 725 1289 603 
Q 1406 481 1766 481 
L 2356 481 
L 2356 0 
L 1766 0 
Q 1100 0 847 248 
Q 594 497 594 1153 
L 594 3053 
L 172 3053 
L 172 3500 
L 594 3500 
L 594 4494 
L 1172 4494 
z
" transform="scale(0.015625)"/>
       <path id="DejaVuSans-65" d="M 3597 1894 
L 3597 1613 
L 953 1613 
Q 991 1019 1311 708 
Q 1631 397 2203 397 
Q 2534 397 2845 478 
Q 3156 559 3463 722 
L 3463 178 
Q 3153 47 2828 -22 
Q 2503 -91 2169 -91 
Q 1331 -91 842 396 
Q 353 884 353 1716 
Q 353 2575 817 3079 
Q 1281 3584 2069 3584 
Q 2775 3584 3186 3129 
Q 3597 2675 3597 1894 
z
M 3022 2063 
Q 3016 2534 2758 2815 
Q 2500 3097 2075 3097 
Q 1594 3097 1305 2825 
Q 1016 2553 972 2059 
L 3022 2063 
z
" transform="scale(0.015625)"/>
       <path id="DejaVuSans-73" d="M 2834 3397 
L 2834 2853 
Q 2591 2978 2328 3040 
Q 2066 3103 1784 3103 
Q 1356 3103 1142 2972 
Q 928 2841 928 2578 
Q 928 2378 1081 2264 
Q 1234 2150 1697 2047 
L 1894 2003 
Q 2506 1872 2764 1633 
Q 3022 1394 3022 966 
Q 3022 478 2636 193 
Q 2250 -91 1575 -91 
Q 1294 -91 989 -36 
Q 684 19 347 128 
L 347 722 
Q 666 556 975 473 
Q 1284 391 1588 391 
Q 1994 391 2212 530 
Q 2431 669 2431 922 
Q 2431 1156 2273 1281 
Q 2116 1406 1581 1522 
L 1381 1569 
Q 847 1681 609 1914 
Q 372 2147 372 2553 
Q 372 3047 722 3315 
Q 1072 3584 1716 3584 
Q 2034 3584 2315 3537 
Q 2597 3491 2834 3397 
z
" transform="scale(0.015625)"/>
       <path id="DejaVuSans-69" d="M 603 3500 
L 1178 3500 
L 1178 0 
L 603 0 
L 603 3500 
z
M 603 4863 
L 1178 4863 
L 1178 4134 
L 603 4134 
L 603 4863 
z
" transform="scale(0.015625)"/>
       <path id="DejaVuSans-79" d="M 2059 -325 
Q 1816 -950 1584 -1140 
Q 1353 -1331 966 -1331 
L 506 -1331 
L 506 -850 
L 844 -850 
Q 1081 -850 1212 -737 
Q 1344 -625 1503 -206 
L 1606 56 
L 191 3500 
L 800 3500 
L 1894 763 
L 2988 3500 
L 3597 3500 
L 2059 -325 
z
" transform="scale(0.015625)"/>
      </defs>
      <use xlink:href="#DejaVuSans-49"/>
      <use xlink:href="#DejaVuSans-6e" x="29.492188"/>
      <use xlink:href="#DejaVuSans-74" x="92.871094"/>
      <use xlink:href="#DejaVuSans-65" x="132.080078"/>
      <use xlink:href="#DejaVuSans-6e" x="193.603516"/>
      <use xlink:href="#DejaVuSans-73" x="256.982422"/>
      <use xlink:href="#DejaVuSans-69" x="309.082031"/>
      <use xlink:href="#DejaVuSans-74" x="336.865234"/>
      <use xlink:href="#DejaVuSans-79" x="376.074219"/>
     </g>
    </g>
   </g>
   <g id="LineCollection_1">
    <path d="M 88.407669 94.20557 
L 88.407669 102.04 
" clip-path="url(#p5ac2bf4001)" style="fill: none; stroke: #0000ff; stroke-width: 1.5"/>
    <path d="M 88.407783 89.912769 
L 88.407783 102.04 
" clip-path="url(#p5ac2bf4001)" style="fill: none; stroke: #0000ff; stroke-width: 1.5"/>
    <path d="M 89.701195 97.933557 
L 89.701195 102.04 
" clip-path="url(#p5ac2bf4001)" style="fill: none; stroke: #0000ff; stroke-width: 1.5"/>
    <path d="M 90.442804 92.585327 
L 90.442804 102.04 
" clip-path="url(#p5ac2bf4001)" style="fill: none; stroke: #0000ff; stroke-width: 1.5"/>
    <path d="M 90.888466 97.280934 
L 90.888466 102.04 
" clip-path="url(#p5ac2bf4001)" style="fill: none; stroke: #0000ff; stroke-width: 1.5"/>
    <path d="M 91.714619 97.797539 
L 91.714619 102.04 
" clip-path="url(#p5ac2bf4001)" style="fill: none; stroke: #0000ff; stroke-width: 1.5"/>
    <path d="M 91.714645 91.438153 
L 91.714645 102.04 
" clip-path="url(#p5ac2bf4001)" style="fill: none; stroke: #0000ff; stroke-width: 1.5"/>
    <path d="M 91.97083 100.049171 
L 91.97083 102.04 
" clip-path="url(#p5ac2bf4001)" style="fill: none; stroke: #0000ff; stroke-width: 1.5"/>
    <path d="M 92.478562 101.076069 
L 92.478562 102.04 
" clip-path="url(#p5ac2bf4001)" style="fill: none; stroke: #0000ff; stroke-width: 1.5"/>
    <path d="M 92.480062 95.639292 
L 92.480062 102.04 
" clip-path="url(#p5ac2bf4001)" style="fill: none; stroke: #0000ff; stroke-width: 1.5"/>
    <path d="M 92.480139 87.109113 
L 92.480139 102.04 
" clip-path="url(#p5ac2bf4001)" style="fill: none; stroke: #0000ff; stroke-width: 1.5"/>
    <path d="M 92.854515 101.511096 
L 92.854515 102.04 
" clip-path="url(#p5ac2bf4001)" style="fill: none; stroke: #0000ff; stroke-width: 1.5"/>
    <path d="M 93.240002 99.888885 
L 93.240002 102.04 
" clip-path="url(#p5ac2bf4001)" style="fill: none; stroke: #0000ff; stroke-width: 1.5"/>
    <path d="M 93.500891 100.588159 
L 93.500891 102.04 
" clip-path="url(#p5ac2bf4001)" style="fill: none; stroke: #0000ff; stroke-width: 1.5"/>
    <path d="M 93.747823 98.757207 
L 93.747823 102.04 
" clip-path="url(#p5ac2bf4001)" style="fill: none; stroke: #0000ff; stroke-width: 1.5"/>
    <path d="M 93.752488 101.233732 
L 93.752488 102.04 
" clip-path="url(#p5ac2bf4001)" style="fill: none; stroke: #0000ff; stroke-width: 1.5"/>
    <path d="M 94.889028 97.111711 
L 94.889028 102.04 
" clip-path="url(#p5ac2bf4001)" style="fill: none; stroke: #0000ff; stroke-width: 1.5"/>
    <path d="M 95.529353 99.699821 
L 95.529353 102.04 
" clip-path="url(#p5ac2bf4001)" style="fill: none; stroke: #0000ff; stroke-width: 1.5"/>
    <path d="M 95.529365 96.516151 
L 95.529365 102.04 
" clip-path="url(#p5ac2bf4001)" style="fill: none; stroke: #0000ff; stroke-width: 1.5"/>
    <path d="M 95.86562 97.468112 
L 95.86562 102.04 
" clip-path="url(#p5ac2bf4001)" style="fill: none; stroke: #0000ff; stroke-width: 1.5"/>
    <path d="M 96.037161 100.215525 
L 96.037161 102.04 
" clip-path="url(#p5ac2bf4001)" style="fill: none; stroke: #0000ff; stroke-width: 1.5"/>
    <path d="M 96.076541 101.638506 
L 96.076541 102.04 
" clip-path="url(#p5ac2bf4001)" style="fill: none; stroke: #0000ff; stroke-width: 1.5"/>
    <path d="M 96.161491 98.324311 
L 96.161491 102.04 
" clip-path="url(#p5ac2bf4001)" style="fill: none; stroke: #0000ff; stroke-width: 1.5"/>
    <path d="M 97.059362 100.669573 
L 97.059362 102.04 
" clip-path="url(#p5ac2bf4001)" style="fill: none; stroke: #0000ff; stroke-width: 1.5"/>
    <path d="M 97.18129 96.334384 
L 97.18129 102.04 
" clip-path="url(#p5ac2bf4001)" style="fill: none; stroke: #0000ff; stroke-width: 1.5"/>
    <path d="M 97.181557 90.737075 
L 97.181557 102.04 
" clip-path="url(#p5ac2bf4001)" style="fill: none; stroke: #0000ff; stroke-width: 1.5"/>
    <path d="M 97.437488 82.375381 
L 97.437488 102.04 
" clip-path="url(#p5ac2bf4001)" style="fill: none; stroke: #0000ff; stroke-width: 1.5"/>
    <path d="M 97.437615 34.588771 
L 97.437615 102.04 
" clip-path="url(#p5ac2bf4001)" style="fill: none; stroke: #0000ff; stroke-width: 1.5"/>
    <path d="M 97.555654 101.19118 
L 97.555654 102.04 
" clip-path="url(#p5ac2bf4001)" style="fill: none; stroke: #0000ff; stroke-width: 1.5"/>
    <path d="M 97.565035 100.446566 
L 97.565035 102.04 
" clip-path="url(#p5ac2bf4001)" style="fill: none; stroke: #0000ff; stroke-width: 1.5"/>
    <path d="M 97.567234 100.684987 
L 97.567234 102.04 
" clip-path="url(#p5ac2bf4001)" style="fill: none; stroke: #0000ff; stroke-width: 1.5"/>
    <path d="M 97.688946 101.521345 
L 97.688946 102.04 
" clip-path="url(#p5ac2bf4001)" style="fill: none; stroke: #0000ff; stroke-width: 1.5"/>
    <path d="M 99.345649 101.244472 
L 99.345649 102.04 
" clip-path="url(#p5ac2bf4001)" style="fill: none; stroke: #0000ff; stroke-width: 1.5"/>
    <path d="M 99.348865 95.602315 
L 99.348865 102.04 
" clip-path="url(#p5ac2bf4001)" style="fill: none; stroke: #0000ff; stroke-width: 1.5"/>
    <path d="M 99.601746 101.546597 
L 99.601746 102.04 
" clip-path="url(#p5ac2bf4001)" style="fill: none; stroke: #0000ff; stroke-width: 1.5"/>
    <path d="M 99.719988 92.343627 
L 99.719988 102.04 
" clip-path="url(#p5ac2bf4001)" style="fill: none; stroke: #0000ff; stroke-width: 1.5"/>
    <path d="M 99.720191 78.627635 
L 99.720191 102.04 
" clip-path="url(#p5ac2bf4001)" style="fill: none; stroke: #0000ff; stroke-width: 1.5"/>
    <path d="M 100.116342 101.591281 
L 100.116342 102.04 
" clip-path="url(#p5ac2bf4001)" style="fill: none; stroke: #0000ff; stroke-width: 1.5"/>
    <path d="M 100.744477 99.419997 
L 100.744477 102.04 
" clip-path="url(#p5ac2bf4001)" style="fill: none; stroke: #0000ff; stroke-width: 1.5"/>
    <path d="M 100.996074 101.199215 
L 100.996074 102.04 
" clip-path="url(#p5ac2bf4001)" style="fill: none; stroke: #0000ff; stroke-width: 1.5"/>
    <path d="M 101.509882 100.798048 
L 101.509882 102.04 
" clip-path="url(#p5ac2bf4001)" style="fill: none; stroke: #0000ff; stroke-width: 1.5"/>
    <path d="M 101.885034 98.210594 
L 101.885034 102.04 
" clip-path="url(#p5ac2bf4001)" style="fill: none; stroke: #0000ff; stroke-width: 1.5"/>
    <path d="M 102.652587 101.391558 
L 102.652587 102.04 
" clip-path="url(#p5ac2bf4001)" style="fill: none; stroke: #0000ff; stroke-width: 1.5"/>
    <path d="M 102.782218 100.911109 
L 102.782218 102.04 
" clip-path="url(#p5ac2bf4001)" style="fill: none; stroke: #0000ff; stroke-width: 1.5"/>
    <path d="M 102.908735 99.151077 
L 102.908735 102.04 
" clip-path="url(#p5ac2bf4001)" style="fill: none; stroke: #0000ff; stroke-width: 1.5"/>
    <path d="M 102.909091 89.740267 
L 102.909091 102.04 
" clip-path="url(#p5ac2bf4001)" style="fill: none; stroke: #0000ff; stroke-width: 1.5"/>
    <path d="M 103.0269 101.122474 
L 103.0269 102.04 
" clip-path="url(#p5ac2bf4001)" style="fill: none; stroke: #0000ff; stroke-width: 1.5"/>
    <path d="M 104.307639 100.708763 
L 104.307639 102.04 
" clip-path="url(#p5ac2bf4001)" style="fill: none; stroke: #0000ff; stroke-width: 1.5"/>
    <path d="M 105.360665 97.704483 
L 105.360665 102.04 
" clip-path="url(#p5ac2bf4001)" style="fill: none; stroke: #0000ff; stroke-width: 1.5"/>
    <path d="M 106.089156 100.775584 
L 106.089156 102.04 
" clip-path="url(#p5ac2bf4001)" style="fill: none; stroke: #0000ff; stroke-width: 1.5"/>
    <path d="M 106.211097 93.317232 
L 106.211097 102.04 
" clip-path="url(#p5ac2bf4001)" style="fill: none; stroke: #0000ff; stroke-width: 1.5"/>
    <path d="M 106.211237 81.570999 
L 106.211237 102.04 
" clip-path="url(#p5ac2bf4001)" style="fill: none; stroke: #0000ff; stroke-width: 1.5"/>
    <path d="M 106.243422 97.866409 
L 106.243422 102.04 
" clip-path="url(#p5ac2bf4001)" style="fill: none; stroke: #0000ff; stroke-width: 1.5"/>
    <path d="M 106.338757 101.202904 
L 106.338757 102.04 
" clip-path="url(#p5ac2bf4001)" style="fill: none; stroke: #0000ff; stroke-width: 1.5"/>
    <path d="M 106.467295 92.238108 
L 106.467295 102.04 
" clip-path="url(#p5ac2bf4001)" style="fill: none; stroke: #0000ff; stroke-width: 1.5"/>
    <path d="M 106.467448 62.451763 
L 106.467448 102.04 
" clip-path="url(#p5ac2bf4001)" style="fill: none; stroke: #0000ff; stroke-width: 1.5"/>
    <path d="M 106.594969 101.160434 
L 106.594969 102.04 
" clip-path="url(#p5ac2bf4001)" style="fill: none; stroke: #0000ff; stroke-width: 1.5"/>
    <path d="M 106.597028 99.963084 
L 106.597028 102.04 
" clip-path="url(#p5ac2bf4001)" style="fill: none; stroke: #0000ff; stroke-width: 1.5"/>
    <path d="M 107.510966 101.60653 
L 107.510966 102.04 
" clip-path="url(#p5ac2bf4001)" style="fill: none; stroke: #0000ff; stroke-width: 1.5"/>
    <path d="M 108.122512 100.867656 
L 108.122512 102.04 
" clip-path="url(#p5ac2bf4001)" style="fill: none; stroke: #0000ff; stroke-width: 1.5"/>
    <path d="M 108.631579 99.88003 
L 108.631579 102.04 
" clip-path="url(#p5ac2bf4001)" style="fill: none; stroke: #0000ff; stroke-width: 1.5"/>
    <path d="M 108.631782 93.382986 
L 108.631782 102.04 
" clip-path="url(#p5ac2bf4001)" style="fill: none; stroke: #0000ff; stroke-width: 1.5"/>
    <path d="M 108.749833 89.10027 
L 108.749833 102.04 
" clip-path="url(#p5ac2bf4001)" style="fill: none; stroke: #0000ff; stroke-width: 1.5"/>
    <path d="M 108.750074 58.802403 
L 108.750074 102.04 
" clip-path="url(#p5ac2bf4001)" style="fill: none; stroke: #0000ff; stroke-width: 1.5"/>
    <path d="M 108.877328 100.937346 
L 108.877328 102.04 
" clip-path="url(#p5ac2bf4001)" style="fill: none; stroke: #0000ff; stroke-width: 1.5"/>
    <path d="M 109.518073 101.265215 
L 109.518073 102.04 
" clip-path="url(#p5ac2bf4001)" style="fill: none; stroke: #0000ff; stroke-width: 1.5"/>
    <path d="M 109.774259 100.12542 
L 109.774259 102.04 
" clip-path="url(#p5ac2bf4001)" style="fill: none; stroke: #0000ff; stroke-width: 1.5"/>
    <path d="M 110.539219 96.640855 
L 110.539219 102.04 
" clip-path="url(#p5ac2bf4001)" style="fill: none; stroke: #0000ff; stroke-width: 1.5"/>
    <path d="M 110.539765 100.305957 
L 110.539765 102.04 
" clip-path="url(#p5ac2bf4001)" style="fill: none; stroke: #0000ff; stroke-width: 1.5"/>
    <path d="M 111.812203 101.251933 
L 111.812203 102.04 
" clip-path="url(#p5ac2bf4001)" style="fill: none; stroke: #0000ff; stroke-width: 1.5"/>
    <path d="M 111.934373 101.112226 
L 111.934373 102.04 
" clip-path="url(#p5ac2bf4001)" style="fill: none; stroke: #0000ff; stroke-width: 1.5"/>
    <path d="M 112.056733 99.516742 
L 112.056733 102.04 
" clip-path="url(#p5ac2bf4001)" style="fill: none; stroke: #0000ff; stroke-width: 1.5"/>
    <path d="M 112.308609 101.335397 
L 112.308609 102.04 
" clip-path="url(#p5ac2bf4001)" style="fill: none; stroke: #0000ff; stroke-width: 1.5"/>
    <path d="M 113.085836 100.193634 
L 113.085836 102.04 
" clip-path="url(#p5ac2bf4001)" style="fill: none; stroke: #0000ff; stroke-width: 1.5"/>
    <path d="M 113.337535 101.039092 
L 113.337535 102.04 
" clip-path="url(#p5ac2bf4001)" style="fill: none; stroke: #0000ff; stroke-width: 1.5"/>
    <path d="M 113.589233 101.388443 
L 113.589233 102.04 
" clip-path="url(#p5ac2bf4001)" style="fill: none; stroke: #0000ff; stroke-width: 1.5"/>
    <path d="M 114.094576 96.643397 
L 114.094576 102.04 
" clip-path="url(#p5ac2bf4001)" style="fill: none; stroke: #0000ff; stroke-width: 1.5"/>
    <path d="M 114.094627 87.240704 
L 114.094627 102.04 
" clip-path="url(#p5ac2bf4001)" style="fill: none; stroke: #0000ff; stroke-width: 1.5"/>
    <path d="M 114.22108 100.923982 
L 114.22108 102.04 
" clip-path="url(#p5ac2bf4001)" style="fill: none; stroke: #0000ff; stroke-width: 1.5"/>
    <path d="M 115.119116 100.564219 
L 115.119116 102.04 
" clip-path="url(#p5ac2bf4001)" style="fill: none; stroke: #0000ff; stroke-width: 1.5"/>
    <path d="M 115.240891 94.400783 
L 115.240891 102.04 
" clip-path="url(#p5ac2bf4001)" style="fill: none; stroke: #0000ff; stroke-width: 1.5"/>
    <path d="M 115.241196 76.295737 
L 115.241196 102.04 
" clip-path="url(#p5ac2bf4001)" style="fill: none; stroke: #0000ff; stroke-width: 1.5"/>
    <path d="M 115.36831 100.979323 
L 115.36831 102.04 
" clip-path="url(#p5ac2bf4001)" style="fill: none; stroke: #0000ff; stroke-width: 1.5"/>
    <path d="M 115.496988 96.199105 
L 115.496988 102.04 
" clip-path="url(#p5ac2bf4001)" style="fill: none; stroke: #0000ff; stroke-width: 1.5"/>
    <path d="M 115.497204 100.563973 
L 115.497204 102.04 
" clip-path="url(#p5ac2bf4001)" style="fill: none; stroke: #0000ff; stroke-width: 1.5"/>
    <path d="M 115.626568 101.477154 
L 115.626568 102.04 
" clip-path="url(#p5ac2bf4001)" style="fill: none; stroke: #0000ff; stroke-width: 1.5"/>
    <path d="M 115.75311 101.532987 
L 115.75311 102.04 
" clip-path="url(#p5ac2bf4001)" style="fill: none; stroke: #0000ff; stroke-width: 1.5"/>
    <path d="M 116.41179 101.577753 
L 116.41179 102.04 
" clip-path="url(#p5ac2bf4001)" style="fill: none; stroke: #0000ff; stroke-width: 1.5"/>
    <path d="M 116.644384 99.763854 
L 116.644384 102.04 
" clip-path="url(#p5ac2bf4001)" style="fill: none; stroke: #0000ff; stroke-width: 1.5"/>
    <path d="M 116.771892 101.461576 
L 116.771892 102.04 
" clip-path="url(#p5ac2bf4001)" style="fill: none; stroke: #0000ff; stroke-width: 1.5"/>
    <path d="M 117.022688 101.480843 
L 117.022688 102.04 
" clip-path="url(#p5ac2bf4001)" style="fill: none; stroke: #0000ff; stroke-width: 1.5"/>
    <path d="M 117.174742 101.477891 
L 117.174742 102.04 
" clip-path="url(#p5ac2bf4001)" style="fill: none; stroke: #0000ff; stroke-width: 1.5"/>
    <path d="M 117.300229 97.006193 
L 117.300229 102.04 
" clip-path="url(#p5ac2bf4001)" style="fill: none; stroke: #0000ff; stroke-width: 1.5"/>
    <path d="M 117.314695 98.619877 
L 117.314695 102.04 
" clip-path="url(#p5ac2bf4001)" style="fill: none; stroke: #0000ff; stroke-width: 1.5"/>
    <path d="M 117.464028 92.215152 
L 117.464028 102.04 
" clip-path="url(#p5ac2bf4001)" style="fill: none; stroke: #0000ff; stroke-width: 1.5"/>
    <path d="M 117.528246 101.35532 
L 117.528246 102.04 
" clip-path="url(#p5ac2bf4001)" style="fill: none; stroke: #0000ff; stroke-width: 1.5"/>
    <path d="M 117.779627 93.451282 
L 117.779627 102.04 
" clip-path="url(#p5ac2bf4001)" style="fill: none; stroke: #0000ff; stroke-width: 1.5"/>
    <path d="M 117.779818 73.401075 
L 117.779818 102.04 
" clip-path="url(#p5ac2bf4001)" style="fill: none; stroke: #0000ff; stroke-width: 1.5"/>
    <path d="M 117.90725 101.127885 
L 117.90725 102.04 
" clip-path="url(#p5ac2bf4001)" style="fill: none; stroke: #0000ff; stroke-width: 1.5"/>
    <path d="M 118.547892 101.252261 
L 118.547892 102.04 
" clip-path="url(#p5ac2bf4001)" style="fill: none; stroke: #0000ff; stroke-width: 1.5"/>
    <path d="M 119.055459 101.560699 
L 119.055459 102.04 
" clip-path="url(#p5ac2bf4001)" style="fill: none; stroke: #0000ff; stroke-width: 1.5"/>
    <path d="M 119.311823 101.238077 
L 119.311823 102.04 
" clip-path="url(#p5ac2bf4001)" style="fill: none; stroke: #0000ff; stroke-width: 1.5"/>
    <path d="M 120.58571 101.240537 
L 120.58571 102.04 
" clip-path="url(#p5ac2bf4001)" style="fill: none; stroke: #0000ff; stroke-width: 1.5"/>
    <path d="M 120.710638 100.760334 
L 120.710638 102.04 
" clip-path="url(#p5ac2bf4001)" style="fill: none; stroke: #0000ff; stroke-width: 1.5"/>
    <path d="M 120.841947 101.113373 
L 120.841947 102.04 
" clip-path="url(#p5ac2bf4001)" style="fill: none; stroke: #0000ff; stroke-width: 1.5"/>
    <path d="M 121.086552 98.042929 
L 121.086552 102.04 
" clip-path="url(#p5ac2bf4001)" style="fill: none; stroke: #0000ff; stroke-width: 1.5"/>
    <path d="M 121.214073 101.440997 
L 121.214073 102.04 
" clip-path="url(#p5ac2bf4001)" style="fill: none; stroke: #0000ff; stroke-width: 1.5"/>
    <path d="M 121.338111 101.080496 
L 121.338111 102.04 
" clip-path="url(#p5ac2bf4001)" style="fill: none; stroke: #0000ff; stroke-width: 1.5"/>
    <path d="M 122.115465 101.313752 
L 122.115465 102.04 
" clip-path="url(#p5ac2bf4001)" style="fill: none; stroke: #0000ff; stroke-width: 1.5"/>
    <path d="M 122.367494 101.483713 
L 122.367494 102.04 
" clip-path="url(#p5ac2bf4001)" style="fill: none; stroke: #0000ff; stroke-width: 1.5"/>
    <path d="M 123.124192 100.183713 
L 123.124192 102.04 
" clip-path="url(#p5ac2bf4001)" style="fill: none; stroke: #0000ff; stroke-width: 1.5"/>
    <path d="M 123.125272 94.699137 
L 123.125272 102.04 
" clip-path="url(#p5ac2bf4001)" style="fill: none; stroke: #0000ff; stroke-width: 1.5"/>
    <path d="M 123.251001 99.413438 
L 123.251001 102.04 
" clip-path="url(#p5ac2bf4001)" style="fill: none; stroke: #0000ff; stroke-width: 1.5"/>
    <path d="M 123.251141 88.150851 
L 123.251141 102.04 
" clip-path="url(#p5ac2bf4001)" style="fill: none; stroke: #0000ff; stroke-width: 1.5"/>
    <path d="M 123.378344 101.454197 
L 123.378344 102.04 
" clip-path="url(#p5ac2bf4001)" style="fill: none; stroke: #0000ff; stroke-width: 1.5"/>
    <path d="M 123.892622 101.414761 
L 123.892622 102.04 
" clip-path="url(#p5ac2bf4001)" style="fill: none; stroke: #0000ff; stroke-width: 1.5"/>
    <path d="M 124.270761 99.997847 
L 124.270761 102.04 
" clip-path="url(#p5ac2bf4001)" style="fill: none; stroke: #0000ff; stroke-width: 1.5"/>
    <path d="M 124.271105 89.373043 
L 124.271105 102.04 
" clip-path="url(#p5ac2bf4001)" style="fill: none; stroke: #0000ff; stroke-width: 1.5"/>
    <path d="M 124.649676 100.689086 
L 124.649676 102.04 
" clip-path="url(#p5ac2bf4001)" style="fill: none; stroke: #0000ff; stroke-width: 1.5"/>
    <path d="M 124.650579 94.763989 
L 124.650579 102.04 
" clip-path="url(#p5ac2bf4001)" style="fill: none; stroke: #0000ff; stroke-width: 1.5"/>
    <path d="M 124.656502 96.439329 
L 124.656502 102.04 
" clip-path="url(#p5ac2bf4001)" style="fill: none; stroke: #0000ff; stroke-width: 1.5"/>
    <path d="M 124.914251 85.150506 
L 124.914251 102.04 
" clip-path="url(#p5ac2bf4001)" style="fill: none; stroke: #0000ff; stroke-width: 1.5"/>
    <path d="M 124.914417 77.346411 
L 124.914417 102.04 
" clip-path="url(#p5ac2bf4001)" style="fill: none; stroke: #0000ff; stroke-width: 1.5"/>
    <path d="M 125.041938 99.386874 
L 125.041938 102.04 
" clip-path="url(#p5ac2bf4001)" style="fill: none; stroke: #0000ff; stroke-width: 1.5"/>
    <path d="M 125.674152 99.474929 
L 125.674152 102.04 
" clip-path="url(#p5ac2bf4001)" style="fill: none; stroke: #0000ff; stroke-width: 1.5"/>
    <path d="M 126.431359 101.036551 
L 126.431359 102.04 
" clip-path="url(#p5ac2bf4001)" style="fill: none; stroke: #0000ff; stroke-width: 1.5"/>
    <path d="M 126.80946 93.149321 
L 126.80946 102.04 
" clip-path="url(#p5ac2bf4001)" style="fill: none; stroke: #0000ff; stroke-width: 1.5"/>
    <path d="M 126.809765 54.582817 
L 126.809765 102.04 
" clip-path="url(#p5ac2bf4001)" style="fill: none; stroke: #0000ff; stroke-width: 1.5"/>
    <path d="M 126.936612 100.794605 
L 126.936612 102.04 
" clip-path="url(#p5ac2bf4001)" style="fill: none; stroke: #0000ff; stroke-width: 1.5"/>
    <path d="M 126.938951 94.769155 
L 126.938951 102.04 
" clip-path="url(#p5ac2bf4001)" style="fill: none; stroke: #0000ff; stroke-width: 1.5"/>
    <path d="M 126.939612 100.998918 
L 126.939612 102.04 
" clip-path="url(#p5ac2bf4001)" style="fill: none; stroke: #0000ff; stroke-width: 1.5"/>
    <path d="M 127.959054 101.339168 
L 127.959054 102.04 
" clip-path="url(#p5ac2bf4001)" style="fill: none; stroke: #0000ff; stroke-width: 1.5"/>
    <path d="M 128.333444 97.609787 
L 128.333444 102.04 
" clip-path="url(#p5ac2bf4001)" style="fill: none; stroke: #0000ff; stroke-width: 1.5"/>
    <path d="M 128.595617 100.769516 
L 128.595617 102.04 
" clip-path="url(#p5ac2bf4001)" style="fill: none; stroke: #0000ff; stroke-width: 1.5"/>
    <path d="M 129.616394 97.024476 
L 129.616394 102.04 
" clip-path="url(#p5ac2bf4001)" style="fill: none; stroke: #0000ff; stroke-width: 1.5"/>
    <path d="M 129.871296 96.377592 
L 129.871296 102.04 
" clip-path="url(#p5ac2bf4001)" style="fill: none; stroke: #0000ff; stroke-width: 1.5"/>
    <path d="M 130.11641 94.304202 
L 130.11641 102.04 
" clip-path="url(#p5ac2bf4001)" style="fill: none; stroke: #0000ff; stroke-width: 1.5"/>
    <path d="M 130.116448 100.277016 
L 130.116448 102.04 
" clip-path="url(#p5ac2bf4001)" style="fill: none; stroke: #0000ff; stroke-width: 1.5"/>
    <path d="M 130.36877 101.438291 
L 130.36877 102.04 
" clip-path="url(#p5ac2bf4001)" style="fill: none; stroke: #0000ff; stroke-width: 1.5"/>
    <path d="M 130.501985 101.403692 
L 130.501985 102.04 
" clip-path="url(#p5ac2bf4001)" style="fill: none; stroke: #0000ff; stroke-width: 1.5"/>
    <path d="M 132.153808 89.348037 
L 132.153808 102.04 
" clip-path="url(#p5ac2bf4001)" style="fill: none; stroke: #0000ff; stroke-width: 1.5"/>
    <path d="M 132.15405 99.578561 
L 132.15405 102.04 
" clip-path="url(#p5ac2bf4001)" style="fill: none; stroke: #0000ff; stroke-width: 1.5"/>
    <path d="M 132.280668 99.694246 
L 132.280668 102.04 
" clip-path="url(#p5ac2bf4001)" style="fill: none; stroke: #0000ff; stroke-width: 1.5"/>
    <path d="M 132.281787 90.714446 
L 132.281787 102.04 
" clip-path="url(#p5ac2bf4001)" style="fill: none; stroke: #0000ff; stroke-width: 1.5"/>
    <path d="M 132.605013 91.594832 
L 132.605013 102.04 
" clip-path="url(#p5ac2bf4001)" style="fill: none; stroke: #0000ff; stroke-width: 1.5"/>
    <path d="M 132.605102 100.401473 
L 132.605102 102.04 
" clip-path="url(#p5ac2bf4001)" style="fill: none; stroke: #0000ff; stroke-width: 1.5"/>
    <path d="M 132.669129 96.586989 
L 132.669129 102.04 
" clip-path="url(#p5ac2bf4001)" style="fill: none; stroke: #0000ff; stroke-width: 1.5"/>
    <path d="M 132.9222 101.381966 
L 132.9222 102.04 
" clip-path="url(#p5ac2bf4001)" style="fill: none; stroke: #0000ff; stroke-width: 1.5"/>
    <path d="M 133.257845 96.816965 
L 133.257845 102.04 
" clip-path="url(#p5ac2bf4001)" style="fill: none; stroke: #0000ff; stroke-width: 1.5"/>
    <path d="M 133.680004 97.716043 
L 133.680004 102.04 
" clip-path="url(#p5ac2bf4001)" style="fill: none; stroke: #0000ff; stroke-width: 1.5"/>
    <path d="M 133.686614 101.385081 
L 133.686614 102.04 
" clip-path="url(#p5ac2bf4001)" style="fill: none; stroke: #0000ff; stroke-width: 1.5"/>
    <path d="M 134.447659 100.74697 
L 134.447659 102.04 
" clip-path="url(#p5ac2bf4001)" style="fill: none; stroke: #0000ff; stroke-width: 1.5"/>
    <path d="M 135.461191 100.283493 
L 135.461191 102.04 
" clip-path="url(#p5ac2bf4001)" style="fill: none; stroke: #0000ff; stroke-width: 1.5"/>
    <path d="M 135.839241 96.212141 
L 135.839241 102.04 
" clip-path="url(#p5ac2bf4001)" style="fill: none; stroke: #0000ff; stroke-width: 1.5"/>
    <path d="M 135.965974 101.076069 
L 135.965974 102.04 
" clip-path="url(#p5ac2bf4001)" style="fill: none; stroke: #0000ff; stroke-width: 1.5"/>
    <path d="M 137.364306 101.19282 
L 137.364306 102.04 
" clip-path="url(#p5ac2bf4001)" style="fill: none; stroke: #0000ff; stroke-width: 1.5"/>
    <path d="M 137.37131 101.183965 
L 137.37131 102.04 
" clip-path="url(#p5ac2bf4001)" style="fill: none; stroke: #0000ff; stroke-width: 1.5"/>
    <path d="M 137.62597 101.054178 
L 137.62597 102.04 
" clip-path="url(#p5ac2bf4001)" style="fill: none; stroke: #0000ff; stroke-width: 1.5"/>
    <path d="M 138.00641 101.005723 
L 138.00641 102.04 
" clip-path="url(#p5ac2bf4001)" style="fill: none; stroke: #0000ff; stroke-width: 1.5"/>
    <path d="M 138.249795 101.570702 
L 138.249795 102.04 
" clip-path="url(#p5ac2bf4001)" style="fill: none; stroke: #0000ff; stroke-width: 1.5"/>
    <path d="M 139.275886 101.429683 
L 139.275886 102.04 
" clip-path="url(#p5ac2bf4001)" style="fill: none; stroke: #0000ff; stroke-width: 1.5"/>
    <path d="M 139.53586 99.342272 
L 139.53586 102.04 
" clip-path="url(#p5ac2bf4001)" style="fill: none; stroke: #0000ff; stroke-width: 1.5"/>
    <path d="M 139.655055 101.526756 
L 139.655055 102.04 
" clip-path="url(#p5ac2bf4001)" style="fill: none; stroke: #0000ff; stroke-width: 1.5"/>
    <path d="M 139.663762 101.371307 
L 139.663762 102.04 
" clip-path="url(#p5ac2bf4001)" style="fill: none; stroke: #0000ff; stroke-width: 1.5"/>
    <path d="M 140.29585 98.745401 
L 140.29585 102.04 
" clip-path="url(#p5ac2bf4001)" style="fill: none; stroke: #0000ff; stroke-width: 1.5"/>
    <path d="M 140.423485 101.371635 
L 140.423485 102.04 
" clip-path="url(#p5ac2bf4001)" style="fill: none; stroke: #0000ff; stroke-width: 1.5"/>
    <path d="M 141.183946 98.715147 
L 141.183946 102.04 
" clip-path="url(#p5ac2bf4001)" style="fill: none; stroke: #0000ff; stroke-width: 1.5"/>
    <path d="M 141.311581 101.36647 
L 141.311581 102.04 
" clip-path="url(#p5ac2bf4001)" style="fill: none; stroke: #0000ff; stroke-width: 1.5"/>
    <path d="M 142.709214 101.237995 
L 142.709214 102.04 
" clip-path="url(#p5ac2bf4001)" style="fill: none; stroke: #0000ff; stroke-width: 1.5"/>
    <path d="M 144.998323 101.001542 
L 144.998323 102.04 
" clip-path="url(#p5ac2bf4001)" style="fill: none; stroke: #0000ff; stroke-width: 1.5"/>
    <path d="M 146.655205 101.189212 
L 146.655205 102.04 
" clip-path="url(#p5ac2bf4001)" style="fill: none; stroke: #0000ff; stroke-width: 1.5"/>
    <path d="M 147.674889 100.76222 
L 147.674889 102.04 
" clip-path="url(#p5ac2bf4001)" style="fill: none; stroke: #0000ff; stroke-width: 1.5"/>
    <path d="M 148.565972 99.978498 
L 148.565972 102.04 
" clip-path="url(#p5ac2bf4001)" style="fill: none; stroke: #0000ff; stroke-width: 1.5"/>
    <path d="M 150.213931 101.195443 
L 150.213931 102.04 
" clip-path="url(#p5ac2bf4001)" style="fill: none; stroke: #0000ff; stroke-width: 1.5"/>
    <path d="M 151.111954 101.13879 
L 151.111954 102.04 
" clip-path="url(#p5ac2bf4001)" style="fill: none; stroke: #0000ff; stroke-width: 1.5"/>
    <path d="M 151.363284 101.528642 
L 151.363284 102.04 
" clip-path="url(#p5ac2bf4001)" style="fill: none; stroke: #0000ff; stroke-width: 1.5"/>
    <path d="M 151.739033 100.914553 
L 151.739033 102.04 
" clip-path="url(#p5ac2bf4001)" style="fill: none; stroke: #0000ff; stroke-width: 1.5"/>
    <path d="M 154.028105 101.304733 
L 154.028105 102.04 
" clip-path="url(#p5ac2bf4001)" style="fill: none; stroke: #0000ff; stroke-width: 1.5"/>
    <path d="M 154.670107 100.223805 
L 154.670107 102.04 
" clip-path="url(#p5ac2bf4001)" style="fill: none; stroke: #0000ff; stroke-width: 1.5"/>
    <path d="M 154.797959 101.534217 
L 154.797959 102.04 
" clip-path="url(#p5ac2bf4001)" style="fill: none; stroke: #0000ff; stroke-width: 1.5"/>
    <path d="M 159.028546 101.248899 
L 159.028546 102.04 
" clip-path="url(#p5ac2bf4001)" style="fill: none; stroke: #0000ff; stroke-width: 1.5"/>
    <path d="M 160.581779 101.48527 
L 160.581779 102.04 
" clip-path="url(#p5ac2bf4001)" style="fill: none; stroke: #0000ff; stroke-width: 1.5"/>
    <path d="M 160.768866 101.411399 
L 160.768866 102.04 
" clip-path="url(#p5ac2bf4001)" style="fill: none; stroke: #0000ff; stroke-width: 1.5"/>
    <path d="M 162.840953 101.490927 
L 162.840953 102.04 
" clip-path="url(#p5ac2bf4001)" style="fill: none; stroke: #0000ff; stroke-width: 1.5"/>
    <path d="M 162.939962 100.941773 
L 162.939962 102.04 
" clip-path="url(#p5ac2bf4001)" style="fill: none; stroke: #0000ff; stroke-width: 1.5"/>
    <path d="M 163.058674 101.335724 
L 163.058674 102.04 
" clip-path="url(#p5ac2bf4001)" style="fill: none; stroke: #0000ff; stroke-width: 1.5"/>
    <path d="M 163.700334 100.53208 
L 163.700334 102.04 
" clip-path="url(#p5ac2bf4001)" style="fill: none; stroke: #0000ff; stroke-width: 1.5"/>
    <path d="M 163.744455 101.550533 
L 163.744455 102.04 
" clip-path="url(#p5ac2bf4001)" style="fill: none; stroke: #0000ff; stroke-width: 1.5"/>
    <path d="M 163.828083 101.44444 
L 163.828083 102.04 
" clip-path="url(#p5ac2bf4001)" style="fill: none; stroke: #0000ff; stroke-width: 1.5"/>
    <path d="M 166.646051 101.560863 
L 166.646051 102.04 
" clip-path="url(#p5ac2bf4001)" style="fill: none; stroke: #0000ff; stroke-width: 1.5"/>
    <path d="M 172.491382 101.548483 
L 172.491382 102.04 
" clip-path="url(#p5ac2bf4001)" style="fill: none; stroke: #0000ff; stroke-width: 1.5"/>
    <path d="M 172.729975 101.325804 
L 172.729975 102.04 
" clip-path="url(#p5ac2bf4001)" style="fill: none; stroke: #0000ff; stroke-width: 1.5"/>
    <path d="M 172.856988 101.46051 
L 172.856988 102.04 
" clip-path="url(#p5ac2bf4001)" style="fill: none; stroke: #0000ff; stroke-width: 1.5"/>
    <path d="M 173.112131 101.181587 
L 173.112131 102.04 
" clip-path="url(#p5ac2bf4001)" style="fill: none; stroke: #0000ff; stroke-width: 1.5"/>
    <path d="M 175.276872 97.211162 
L 175.276872 102.04 
" clip-path="url(#p5ac2bf4001)" style="fill: none; stroke: #0000ff; stroke-width: 1.5"/>
    <path d="M 175.404635 100.642845 
L 175.404635 102.04 
" clip-path="url(#p5ac2bf4001)" style="fill: none; stroke: #0000ff; stroke-width: 1.5"/>
    <path d="M 176.415027 96.707921 
L 176.415027 102.04 
" clip-path="url(#p5ac2bf4001)" style="fill: none; stroke: #0000ff; stroke-width: 1.5"/>
    <path d="M 176.542141 101.33843 
L 176.542141 102.04 
" clip-path="url(#p5ac2bf4001)" style="fill: none; stroke: #0000ff; stroke-width: 1.5"/>
    <path d="M 178.969602 100.422954 
L 178.969602 102.04 
" clip-path="url(#p5ac2bf4001)" style="fill: none; stroke: #0000ff; stroke-width: 1.5"/>
    <path d="M 182.525213 92.998955 
L 182.525213 102.04 
" clip-path="url(#p5ac2bf4001)" style="fill: none; stroke: #0000ff; stroke-width: 1.5"/>
    <path d="M 182.652594 98.648737 
L 182.652594 102.04 
" clip-path="url(#p5ac2bf4001)" style="fill: none; stroke: #0000ff; stroke-width: 1.5"/>
    <path d="M 187.231232 101.302191 
L 187.231232 102.04 
" clip-path="url(#p5ac2bf4001)" style="fill: none; stroke: #0000ff; stroke-width: 1.5"/>
    <path d="M 187.478101 96.578052 
L 187.478101 102.04 
" clip-path="url(#p5ac2bf4001)" style="fill: none; stroke: #0000ff; stroke-width: 1.5"/>
    <path d="M 187.605876 101.216514 
L 187.605876 102.04 
" clip-path="url(#p5ac2bf4001)" style="fill: none; stroke: #0000ff; stroke-width: 1.5"/>
    <path d="M 189.520723 101.470676 
L 189.520723 102.04 
" clip-path="url(#p5ac2bf4001)" style="fill: none; stroke: #0000ff; stroke-width: 1.5"/>
    <path d="M 191.498022 101.500684 
L 191.498022 102.04 
" clip-path="url(#p5ac2bf4001)" style="fill: none; stroke: #0000ff; stroke-width: 1.5"/>
    <path d="M 192.573217 101.173553 
L 192.573217 102.04 
" clip-path="url(#p5ac2bf4001)" style="fill: none; stroke: #0000ff; stroke-width: 1.5"/>
    <path d="M 192.697852 97.482132 
L 192.697852 102.04 
" clip-path="url(#p5ac2bf4001)" style="fill: none; stroke: #0000ff; stroke-width: 1.5"/>
    <path d="M 192.825093 99.549292 
L 192.825093 102.04 
" clip-path="url(#p5ac2bf4001)" style="fill: none; stroke: #0000ff; stroke-width: 1.5"/>
    <path d="M 194.86197 19.094545 
L 194.86197 102.04 
" clip-path="url(#p5ac2bf4001)" style="fill: none; stroke: #0000ff; stroke-width: 1.5"/>
    <path d="M 194.989479 62.009357 
L 194.989479 102.04 
" clip-path="url(#p5ac2bf4001)" style="fill: none; stroke: #0000ff; stroke-width: 1.5"/>
    <path d="M 195.116758 99.441559 
L 195.116758 102.04 
" clip-path="url(#p5ac2bf4001)" style="fill: none; stroke: #0000ff; stroke-width: 1.5"/>
    <path d="M 197.099357 101.504291 
L 197.099357 102.04 
" clip-path="url(#p5ac2bf4001)" style="fill: none; stroke: #0000ff; stroke-width: 1.5"/>
    <path d="M 200.692276 101.514376 
L 200.692276 102.04 
" clip-path="url(#p5ac2bf4001)" style="fill: none; stroke: #0000ff; stroke-width: 1.5"/>
    <path d="M 201.591418 101.184949 
L 201.591418 102.04 
" clip-path="url(#p5ac2bf4001)" style="fill: none; stroke: #0000ff; stroke-width: 1.5"/>
    <path d="M 202.110184 95.939449 
L 202.110184 102.04 
" clip-path="url(#p5ac2bf4001)" style="fill: none; stroke: #0000ff; stroke-width: 1.5"/>
    <path d="M 202.237616 98.552811 
L 202.237616 102.04 
" clip-path="url(#p5ac2bf4001)" style="fill: none; stroke: #0000ff; stroke-width: 1.5"/>
    <path d="M 203.756045 97.684314 
L 203.756045 102.04 
" clip-path="url(#p5ac2bf4001)" style="fill: none; stroke: #0000ff; stroke-width: 1.5"/>
    <path d="M 205.417109 100.403769 
L 205.417109 102.04 
" clip-path="url(#p5ac2bf4001)" style="fill: none; stroke: #0000ff; stroke-width: 1.5"/>
    <path d="M 205.543219 100.861589 
L 205.543219 102.04 
" clip-path="url(#p5ac2bf4001)" style="fill: none; stroke: #0000ff; stroke-width: 1.5"/>
    <path d="M 207.70646 78.642557 
L 207.70646 102.04 
" clip-path="url(#p5ac2bf4001)" style="fill: none; stroke: #0000ff; stroke-width: 1.5"/>
    <path d="M 207.833981 88.762808 
L 207.833981 102.04 
" clip-path="url(#p5ac2bf4001)" style="fill: none; stroke: #0000ff; stroke-width: 1.5"/>
    <path d="M 207.960663 101.032861 
L 207.960663 102.04 
" clip-path="url(#p5ac2bf4001)" style="fill: none; stroke: #0000ff; stroke-width: 1.5"/>
    <path d="M 216.484276 100.969485 
L 216.484276 102.04 
" clip-path="url(#p5ac2bf4001)" style="fill: none; stroke: #0000ff; stroke-width: 1.5"/>
    <path d="M 219.792968 100.794687 
L 219.792968 102.04 
" clip-path="url(#p5ac2bf4001)" style="fill: none; stroke: #0000ff; stroke-width: 1.5"/>
    <path d="M 219.918137 101.08066 
L 219.918137 102.04 
" clip-path="url(#p5ac2bf4001)" style="fill: none; stroke: #0000ff; stroke-width: 1.5"/>
    <path d="M 220.501197 101.516016 
L 220.501197 102.04 
" clip-path="url(#p5ac2bf4001)" style="fill: none; stroke: #0000ff; stroke-width: 1.5"/>
    <path d="M 222.081048 84.945372 
L 222.081048 102.04 
" clip-path="url(#p5ac2bf4001)" style="fill: none; stroke: #0000ff; stroke-width: 1.5"/>
    <path d="M 222.208505 91.935081 
L 222.208505 102.04 
" clip-path="url(#p5ac2bf4001)" style="fill: none; stroke: #0000ff; stroke-width: 1.5"/>
    <path d="M 222.450085 98.264542 
L 222.450085 102.04 
" clip-path="url(#p5ac2bf4001)" style="fill: none; stroke: #0000ff; stroke-width: 1.5"/>
    <path d="M 225.514502 101.166092 
L 225.514502 102.04 
" clip-path="url(#p5ac2bf4001)" style="fill: none; stroke: #0000ff; stroke-width: 1.5"/>
    <path d="M 228.820398 101.209053 
L 228.820398 102.04 
" clip-path="url(#p5ac2bf4001)" style="fill: none; stroke: #0000ff; stroke-width: 1.5"/>
    <path d="M 229.447337 101.463707 
L 229.447337 102.04 
" clip-path="url(#p5ac2bf4001)" style="fill: none; stroke: #0000ff; stroke-width: 1.5"/>
    <path d="M 231.11088 88.610064 
L 231.11088 102.04 
" clip-path="url(#p5ac2bf4001)" style="fill: none; stroke: #0000ff; stroke-width: 1.5"/>
    <path d="M 231.238604 94.022245 
L 231.238604 102.04 
" clip-path="url(#p5ac2bf4001)" style="fill: none; stroke: #0000ff; stroke-width: 1.5"/>
    <path d="M 231.365629 101.426813 
L 231.365629 102.04 
" clip-path="url(#p5ac2bf4001)" style="fill: none; stroke: #0000ff; stroke-width: 1.5"/>
    <path d="M 235.294626 98.842802 
L 235.294626 102.04 
" clip-path="url(#p5ac2bf4001)" style="fill: none; stroke: #0000ff; stroke-width: 1.5"/>
    <path d="M 239.887234 101.567258 
L 239.887234 102.04 
" clip-path="url(#p5ac2bf4001)" style="fill: none; stroke: #0000ff; stroke-width: 1.5"/>
    <path d="M 247.631777 94.317894 
L 247.631777 102.04 
" clip-path="url(#p5ac2bf4001)" style="fill: none; stroke: #0000ff; stroke-width: 1.5"/>
    <path d="M 247.759641 100.030068 
L 247.759641 102.04 
" clip-path="url(#p5ac2bf4001)" style="fill: none; stroke: #0000ff; stroke-width: 1.5"/>
    <path d="M 249.163096 101.15199 
L 249.163096 102.04 
" clip-path="url(#p5ac2bf4001)" style="fill: none; stroke: #0000ff; stroke-width: 1.5"/>
    <path d="M 249.291697 101.210529 
L 249.291697 102.04 
" clip-path="url(#p5ac2bf4001)" style="fill: none; stroke: #0000ff; stroke-width: 1.5"/>
    <path d="M 251.453171 95.80089 
L 251.453171 102.04 
" clip-path="url(#p5ac2bf4001)" style="fill: none; stroke: #0000ff; stroke-width: 1.5"/>
    <path d="M 251.580883 95.846639 
L 251.580883 102.04 
" clip-path="url(#p5ac2bf4001)" style="fill: none; stroke: #0000ff; stroke-width: 1.5"/>
    <path d="M 256.578718 101.385327 
L 256.578718 102.04 
" clip-path="url(#p5ac2bf4001)" style="fill: none; stroke: #0000ff; stroke-width: 1.5"/>
    <path d="M 260.271079 101.518721 
L 260.271079 102.04 
" clip-path="url(#p5ac2bf4001)" style="fill: none; stroke: #0000ff; stroke-width: 1.5"/>
    <path d="M 260.483576 100.781815 
L 260.483576 102.04 
" clip-path="url(#p5ac2bf4001)" style="fill: none; stroke: #0000ff; stroke-width: 1.5"/>
    <path d="M 260.610842 100.847077 
L 260.610842 102.04 
" clip-path="url(#p5ac2bf4001)" style="fill: none; stroke: #0000ff; stroke-width: 1.5"/>
    <path d="M 268.180222 101.547417 
L 268.180222 102.04 
" clip-path="url(#p5ac2bf4001)" style="fill: none; stroke: #0000ff; stroke-width: 1.5"/>
    <path d="M 277.2 101.450016 
L 277.2 102.04 
" clip-path="url(#p5ac2bf4001)" style="fill: none; stroke: #0000ff; stroke-width: 1.5"/>
   </g>
   <g id="patch_3">
    <path d="M 70.22 102.04 
L 70.22 10.8 
" style="fill: none; stroke: #000000; stroke-width: 0.8; stroke-linejoin: miter; stroke-linecap: square"/>
   </g>
   <g id="patch_4">
    <path d="M 277.2 102.04 
L 277.2 10.8 
" style="fill: none; stroke: #000000; stroke-width: 0.8; stroke-linejoin: miter; stroke-linecap: square"/>
   </g>
   <g id="patch_5">
    <path d="M 70.22 102.04 
L 277.2 102.04 
" style="fill: none; stroke: #000000; stroke-width: 0.8; stroke-linejoin: miter; stroke-linecap: square"/>
   </g>
   <g id="patch_6">
    <path d="M 70.22 10.8 
L 277.2 10.8 
" style="fill: none; stroke: #000000; stroke-width: 0.8; stroke-linejoin: miter; stroke-linecap: square"/>
   </g>
  </g>
 </g>
 <defs>
  <clipPath id="p5ac2bf4001">
   <rect x="70.22" y="10.8" width="206.98" height="91.24"/>
  </clipPath>
 </defs>
</svg>
